<?xml version="1.0" encoding="utf-8"?>
<svg xmlns="http://www.w3.org/2000/svg" style="margin: auto; background: rgb(241, 242, 243); display: block; shape-rendering: auto;" width="280" height="250" preserveAspectRatio="xMidYMid">
<style type="text/css">
  text {
    text-anchor: middle; font-size: 80px; opacity: 0;
  }
</style>
<g style="transform-origin:140px 125px;transform:scale(1)">
<g transform="translate(140,125)">
  <g transform="translate(0,0)"><g class="path" style="transform: scale(0.91); transform-origin: -95.36px -4.82812px; animation: 1s linear -0.565714s infinite normal forwards running breath-a1c5ada8-903b-46d0-8d15-c9f90d9e4e93;"><path d="M19.28 0.72L19.28 0.72L19.28 0.72Q14.24 0.72 11.92-2.64L11.92-2.64L5.20 2.16L3.68 2.16L12.64-50.24L12.64-50.24Q10.24-50 8.64-48L8.64-48L7.44-48.96L7.44-48.96Q9.84-51.84 13.48-51.84L13.48-51.84L13.48-51.84Q17.12-51.84 19.12-50L19.12-50L19.12-50Q21.12-48.16 21.12-44.80L21.12-44.80L21.12-44.80Q21.12-44.16 20.96-42.72L20.96-42.72L20.96-42.72Q19.68-35.60 17.84-25.60L17.84-25.60L17.84-25.60Q21.20-31.04 26.56-31.04L26.56-31.04L26.56-31.04Q31.92-31.04 34.80-27.96L34.80-27.96L34.80-27.96Q37.68-24.88 37.68-19.52L37.68-19.52L37.68-19.52Q37.68-10.08 32.56-4.68L32.56-4.68L32.56-4.68Q27.44 0.72 19.28 0.72zM18.72-1.44L18.72-1.44L18.72-1.44Q23.12-1.44 25.88-7.56L25.88-7.56L25.88-7.56Q28.64-13.68 28.64-22.80L28.64-22.80L28.64-22.80Q28.64-26.48 27.88-27.84L27.88-27.84L27.88-27.84Q27.12-29.20 25.12-29.20L25.12-29.20L25.12-29.20Q23.12-29.20 21-26.80L21-26.80L21-26.80Q18.88-24.40 17.92-22.28L17.92-22.28L17.92-22.28Q16.96-20.16 16.96-19.84L16.96-19.84L16.80-19.84L16.80-19.84Q14.80-9.36 13.84-4L13.84-4L13.84-4Q15.20-1.44 18.72-1.44" fill="#f36100" stroke="none" stroke-width="none" transform="translate(-116.04000854492188,20.01188485281809)" style="fill: rgb(243, 97, 0);"></path></g><g class="path" style="transform: scale(0.91); transform-origin: -59.4px 4.45188px; animation: 1s linear -0.471429s infinite normal forwards running breath-a1c5ada8-903b-46d0-8d15-c9f90d9e4e93;"><path d="M43.28-27.28L42.08-28.24L42.08-28.24Q44.48-31.12 48.12-31.12L48.12-31.12L48.12-31.12Q51.76-31.12 53.76-29.28L53.76-29.28L53.76-29.28Q55.76-27.44 55.76-24.08L55.76-24.08L55.76-23.60L55.76-23.60Q59.36-31.12 65.12-31.12L65.12-31.12L65.12-31.12Q71.28-31.12 71.28-24.72L71.28-24.72L71.28-24.72Q71.28-22.08 69.52-19.12L69.52-19.12L69.52-19.12Q67.76-16.16 66-13.48L66-13.48L66-13.48Q64.24-10.80 64.24-8.72L64.24-8.72L62.32-8.72L62.32-8.72Q62.32-11.68 65.76-16.72L65.76-16.72L65.76-16.72Q69.20-21.76 69.20-24.52L69.20-24.52L69.20-24.52Q69.20-27.28 68.12-28.28L68.12-28.28L68.12-28.28Q67.04-29.28 64.92-29.28L64.92-29.28L64.92-29.28Q62.80-29.28 60.76-27.44L60.76-27.44L60.76-27.44Q58.72-25.60 57.36-22.80L57.36-22.80L57.36-22.80Q55.20-18.64 54.48-16L54.48-16L54.48-15.92L51.60 0L42 0L47.28-29.52L47.28-29.52Q44.88-29.28 43.28-27.28L43.28-27.28" fill="#f36100" stroke="none" stroke-width="none" transform="translate(-116.04000854492188,20.01188485281809)" style="fill: rgb(250, 144, 47);"></path></g><g class="path" style="transform: scale(0.91); transform-origin: -29.32px 4.81188px; animation: 1s linear -0.377143s infinite normal forwards running breath-a1c5ada8-903b-46d0-8d15-c9f90d9e4e93;"><path d="M90.24-31.12L90.24-31.12L90.24-31.12Q100.40-31.12 100.40-23.04L100.40-23.04L100.40-23.04Q100.40-18 95.64-15.40L95.64-15.40L95.64-15.40Q90.88-12.80 82.08-12.72L82.08-12.72L82.08-12.72Q81.92-9.84 81.92-8.16L81.92-8.16L81.92-8.16Q81.92-4.56 83.56-2.84L83.56-2.84L83.56-2.84Q85.20-1.12 87.68-1.12L87.68-1.12L87.68-1.12Q90.16-1.12 92.20-2.08L92.20-2.08L92.20-2.08Q94.24-3.04 95.44-4.36L95.44-4.36L95.44-4.36Q96.64-5.68 97.52-7.12L97.52-7.12L97.52-7.12Q99.12-9.76 99.12-10.48L99.12-10.48L100.56-9.84L100.56-9.84Q100.32-8.56 99.12-6.44L99.12-6.44L99.12-6.44Q97.92-4.32 96.48-2.96L96.48-2.96L96.48-2.96Q95.04-1.60 92.24-0.44L92.24-0.44L92.24-0.44Q89.44 0.72 86.00 0.72L86.00 0.72L86.00 0.72Q79.52 0.72 76.20-2.36L76.20-2.36L76.20-2.36Q72.88-5.44 72.88-10.80L72.88-10.80L72.88-10.80Q72.88-20.32 77.60-25.72L77.60-25.72L77.60-25.72Q82.32-31.12 90.24-31.12zM98.40-23.04L98.40-23.04Q98.40-25.68 96.84-27.40L96.84-27.40L96.84-27.40Q95.28-29.12 92.20-29.12L92.20-29.12L92.20-29.12Q89.12-29.12 86.20-25.44L86.20-25.44L86.20-25.44Q83.28-21.76 82.32-14.56L82.32-14.56L82.32-14.56Q98.40-14.64 98.40-23.04L98.40-23.04" fill="#f36100" stroke="none" stroke-width="none" transform="translate(-116.04000854492188,20.01188485281809)" style="fill: rgb(255, 184, 86);"></path></g><g class="path" style="transform: scale(0.91); transform-origin: 5.95999px 4.81188px; animation: 1s linear -0.282857s infinite normal forwards running breath-a1c5ada8-903b-46d0-8d15-c9f90d9e4e93;"><path d="M132.96 0.72L132.96 0.72L132.96 0.72Q125.92 0.72 125.28-5.44L125.28-5.44L125.28-5.44Q121.76 0.72 116.40 0.72L116.40 0.72L116.40 0.72Q111.04 0.72 107.88-2.52L107.88-2.52L107.88-2.52Q104.72-5.76 104.72-11.60L104.72-11.60L104.72-11.60Q104.72-20.72 109.20-25.92L109.20-25.92L109.20-25.92Q113.68-31.12 120.80-31.12L120.80-31.12L120.80-31.12Q126.64-31.12 128.56-25.60L128.56-25.60L128.56-25.60Q128.96-28 129.44-30.40L129.44-30.40L129.44-30.40Q135.36-30.40 138.24-30.88L138.24-30.88L139.28-31.12L133.76-0.88L133.76-0.88Q136.16-1.12 137.76-3.12L137.76-3.12L138.96-2.16L138.96-2.16Q136.56 0.72 132.96 0.72zM113.76-7.52L113.76-7.52Q113.76-3.92 114.68-2.52L114.68-2.52L114.68-2.52Q115.60-1.12 117.52-1.12L117.52-1.12L117.52-1.12Q119.44-1.12 121.44-3.20L121.44-3.20L121.44-3.20Q124.08-5.92 125.68-10.08L125.68-10.08L125.68-10.08Q125.92-11.12 126.60-15.08L126.60-15.08L126.60-15.08Q127.28-19.04 127.76-21.60L127.76-21.60L127.76-21.60Q127.52-24.64 126.08-26.88L126.08-26.88L126.08-26.88Q124.64-29.12 122.48-29.12L122.48-29.12L122.48-29.12Q118.56-29.12 116.16-22.12L116.16-22.12L116.16-22.12Q113.76-15.12 113.76-7.52L113.76-7.52" fill="#f36100" stroke="none" stroke-width="none" transform="translate(-116.04000854492188,20.01188485281809)" style="fill: rgb(255, 213, 93);"></path></g><g class="path" style="transform: scale(0.91); transform-origin: 39.96px -1.10811px; animation: 1s linear -0.188571s infinite normal forwards running breath-a1c5ada8-903b-46d0-8d15-c9f90d9e4e93;"><path d="M144.32-30.40L148.40-30.40L150.56-42.24L150.56-42.24Q156.48-42.24 159.36-42.72L159.36-42.72L160.40-42.96L160.40-42.96Q159.28-37.36 157.92-30.40L157.92-30.40L167.84-30.40L167.68-28.96L157.68-28.96L157.68-28.96Q153.68-8.32 153.68-4.08L153.68-4.08L153.68-4.08Q153.68-1.52 156.40-1.52L156.40-1.52L156.40-1.52Q159.12-1.52 161.36-4.96L161.36-4.96L161.36-4.96Q163.60-8.40 164.56-12.40L164.56-12.40L166.00-11.92L166.00-11.92Q163.04 0.72 153.76 0.72L153.76 0.72L153.76 0.72Q149.92 0.72 147.36-1.40L147.36-1.40L147.36-1.40Q144.80-3.52 144.80-7.32L144.80-7.32L144.80-7.32Q144.80-11.12 148.08-28.96L148.08-28.96L144.16-28.96L144.32-30.40" fill="#f36100" stroke="none" stroke-width="none" transform="translate(-116.04000854492188,20.01188485281809)" style="fill: rgb(255, 255, 52);"></path></g><g class="path" style="transform: scale(0.91); transform-origin: 70.36px -5.54811px; animation: 1s linear -0.0942857s infinite normal forwards running breath-a1c5ada8-903b-46d0-8d15-c9f90d9e4e93;"><path d="M199.20-0.88L199.20-0.88L199.20-0.88Q201.12-0.88 203.20-3.12L203.20-3.12L204.40-2.16L204.40-2.16Q203.84-1.04 201.92-0.16L201.92-0.16L201.92-0.16Q200.00 0.72 197.68 0.72L197.68 0.72L197.68 0.72Q190.40 0.72 190.40-5.84L190.40-5.84L190.40-5.84Q190.40-8.64 191.84-15.84L191.84-15.84L191.84-15.84Q193.28-23.04 193.28-25.28L193.28-25.28L193.28-25.28Q193.28-28.72 190.00-28.72L190.00-28.72L190.00-28.72Q187.28-28.72 184.76-25.04L184.76-25.04L184.76-25.04Q182.24-21.36 180.64-15.04L180.64-15.04L178.00 0L168.40 0L177.28-50.24L177.28-50.24Q174.88-50 173.28-48L173.28-48L172.08-48.96L172.08-48.96Q174.48-51.84 178.12-51.84L178.12-51.84L178.12-51.84Q181.76-51.84 183.76-50L183.76-50L183.76-50Q185.76-48.16 185.76-44.80L185.76-44.80L185.76-44.80Q185.76-44.16 185.60-42.72L185.60-42.72L182.24-23.76L182.24-23.76Q185.52-31.12 192.40-31.12L192.40-31.12L192.40-31.12Q197.12-31.12 199.76-28.44L199.76-28.44L199.76-28.44Q202.40-25.76 202.40-21.04L202.40-21.04L202.40-21.04Q202.40-18.56 200.88-11.48L200.88-11.48L200.88-11.48Q199.36-4.40 199.20-0.88" fill="#f36100" stroke="none" stroke-width="none" transform="translate(-116.04000854492188,20.01188485281809)" style="fill: rgb(243, 97, 0);"></path></g><g class="path" style="transform: scale(0.91); transform-origin: 105.88px 4.81188px; animation: 1s linear 0s infinite normal forwards running breath-a1c5ada8-903b-46d0-8d15-c9f90d9e4e93;"><path d="M225.44-31.12L225.44-31.12L225.44-31.12Q235.60-31.12 235.60-23.04L235.60-23.04L235.60-23.04Q235.60-18 230.84-15.40L230.84-15.40L230.84-15.40Q226.08-12.80 217.28-12.72L217.28-12.72L217.28-12.72Q217.12-9.84 217.12-8.16L217.12-8.16L217.12-8.16Q217.12-4.56 218.76-2.84L218.76-2.84L218.76-2.84Q220.40-1.12 222.88-1.12L222.88-1.12L222.88-1.12Q225.36-1.12 227.40-2.08L227.40-2.08L227.40-2.08Q229.44-3.04 230.64-4.36L230.64-4.36L230.64-4.36Q231.84-5.68 232.72-7.12L232.72-7.12L232.72-7.12Q234.32-9.76 234.32-10.48L234.32-10.48L235.76-9.84L235.76-9.84Q235.52-8.56 234.32-6.44L234.32-6.44L234.32-6.44Q233.12-4.32 231.68-2.96L231.68-2.96L231.68-2.96Q230.24-1.60 227.44-0.44L227.44-0.44L227.44-0.44Q224.64 0.72 221.20 0.72L221.20 0.72L221.20 0.72Q214.72 0.72 211.40-2.36L211.40-2.36L211.40-2.36Q208.08-5.44 208.08-10.80L208.08-10.80L208.08-10.80Q208.08-20.32 212.80-25.72L212.80-25.72L212.80-25.72Q217.52-31.12 225.44-31.12zM233.60-23.04L233.60-23.04Q233.60-25.68 232.04-27.40L232.04-27.40L232.04-27.40Q230.48-29.12 227.40-29.12L227.40-29.12L227.40-29.12Q224.32-29.12 221.40-25.44L221.40-25.44L221.40-25.44Q218.48-21.76 217.52-14.56L217.52-14.56L217.52-14.56Q233.60-14.64 233.60-23.04L233.60-23.04" fill="#f36100" stroke="none" stroke-width="none" transform="translate(-116.04000854492188,20.01188485281809)" style="fill: rgb(250, 144, 47);"></path></g></g>
</g>
</g>
<style id="breath-a1c5ada8-903b-46d0-8d15-c9f90d9e4e93" data-anikit="">@keyframes breath-a1c5ada8-903b-46d0-8d15-c9f90d9e4e93
{
  0% {
    animation-timing-function: cubic-bezier(0.9647,0.2413,-0.0705,0.7911);
    transform: scale(0.9099999999999999);
  }
  51% {
    animation-timing-function: cubic-bezier(0.9226,0.2631,-0.0308,0.7628);
    transform: scale(1.02994);
  }
  100% {
    transform: scale(0.9099999999999999);
  }
}</style></svg>