<?xml version="1.0" standalone="no"?>
<!DOCTYPE svg PUBLIC "-//W3C//DTD SVG 1.1//EN" "http://www.w3.org/Graphics/SVG/1.1/DTD/svg11.dtd" >
<svg xmlns="http://www.w3.org/2000/svg" xmlns:xlink="http://www.w3.org/1999/xlink" version="1.1">
<metadata></metadata>
<defs>
<font id="incisedblackwidenormal" horiz-adv-x="862" >
<font-face units-per-em="2048" ascent="1638" descent="-410" />
<missing-glyph horiz-adv-x="831" />
<glyph horiz-adv-x="0" />
<glyph horiz-adv-x="682" />
<glyph unicode=" "  horiz-adv-x="831" />
<glyph unicode="&#x09;" horiz-adv-x="831" />
<glyph unicode="&#xa0;" horiz-adv-x="831" />
<glyph unicode="!" horiz-adv-x="675" d="M434 139q-10 -8 -37.5 0t-56.5 25.5t-51.5 37t-26.5 36.5q0 2 34 31.5t87 97.5q10 -10 19.5 -14.5t9.5 -14.5q0 -12 -10.5 -20.5t-21.5 -15.5t-21.5 -17.5t-10.5 -26.5q0 -31 27.5 -51.5t58.5 -67.5zM412 1479q0 -41 -12.5 -96.5t-28 -117t-30.5 -123t-22 -110.5 q0 -4 2.5 -37.5t5.5 -75.5t4 -80t-3 -51q-18 63 -32.5 94t-24 52.5t-14.5 49.5t-5 85q0 41 8 73t18.5 68.5t19.5 86t9 124.5q0 55 -19.5 112.5t-64.5 111.5q29 20 56.5 34.5t48.5 22.5q33 -33 58.5 -93t25.5 -130zM635 244q0 6 -36 37.5t-80 67.5t-83 63.5t-43 27.5 q-6 0 -41 -28.5t-72.5 -64.5t-68.5 -68.5t-31 -38.5q0 -20 32 -54t74 -68t78.5 -60.5t47.5 -32.5q94 92 158.5 143t64.5 76zM621 1634q0 121 -31 180.5t-64 59.5q-16 0 -56 -21.5t-82 -47t-74.5 -47t-34.5 -21.5q-96 -53 -167 -86t-71 -43q0 -6 7 -10.5t7 -10.5h43 q37 23 64.5 9.5t46 -44t30 -71.5t13.5 -76l-53 -348q8 -74 30.5 -157t53 -151.5t64.5 -114.5t63 -46q37 0 44 12t-0.5 40t-19.5 74t-12 113q0 57 4 96.5t10 67t13.5 51t15.5 52.5q10 31 34.5 101.5t52.5 152.5t48.5 159.5t20.5 126.5z" />
<glyph unicode="&#x22;" horiz-adv-x="1017" d="M786 1559q-16 -12 -35.5 -8.5t-41 16t-44 29t-44.5 28.5q57 47 93 73.5t54 41.5q10 -25 1 -36t-24.5 -19.5t-30 -18.5t-14.5 -35q0 -2 19.5 -23t66.5 -48zM977 1651q-8 8 -66.5 49t-146.5 104q-23 -8 -82 -56t-150 -126q0 -23 27 -38t57.5 -28.5t57 -30t26.5 -40.5 q0 -6 -17 -30.5t-38.5 -52.5t-39 -51.5t-17.5 -29.5q0 -35 37 -35q14 0 21 9.5t20.5 30t40 55t79.5 83.5q55 53 92 85t58.5 51.5t31 30t9.5 20.5zM297 1565q-16 -12 -35.5 -8t-42 16t-45 28.5t-45.5 28.5q59 45 95 72t55 43q8 -23 -2.5 -35t-27 -22.5t-30.5 -20.5t-10 -31 q0 -2 20.5 -23t67.5 -48zM487 1657q-8 10 -65 49t-148 104q-20 -8 -80.5 -56t-152.5 -126q0 -23 26.5 -38t57.5 -28.5t57.5 -29.5t26.5 -41q0 -6 -17.5 -30.5t-38 -52.5t-38 -51.5t-17.5 -29.5q0 -35 37 -35q14 0 21.5 9.5t20.5 30t40 55t80 83.5q55 53 92 85t58.5 51.5 t30.5 30t9 20.5z" />
<glyph unicode="&#x26;" horiz-adv-x="1632" d="M582 -4q-20 -18 -42 -32.5t-32 -14.5q-23 0 -48.5 18.5t-50 45t-49 56t-45.5 50.5q-23 23 -53.5 60.5t-59 83.5t-48 97.5t-19.5 102.5q0 37 12.5 76t27.5 73.5t31.5 61t24.5 35.5q-10 -111 -0.5 -203t48 -176t111.5 -165t192 -169zM836 258q0 -25 -34 -55.5t-63 -52.5 q-12 14 -67.5 55t-116.5 106.5t-109.5 154.5t-46.5 200q0 41 15.5 81.5t29.5 98.5q49 -39 79 -109.5t100 -179.5q59 -92 100 -146.5t65.5 -84t36 -43t11.5 -25.5zM1274 29q0 -14 -13.5 -25.5t-25.5 -32.5q-25 12 -87.5 65.5t-138 135.5t-155.5 188.5t-139 227.5q-2 4 -33 52 t-75 121t-95 158t-95 161.5t-74 133t-30 72.5q0 4 14.5 11.5t20.5 11.5q33 -14 124 -187.5t273 -470.5q66 -106 119.5 -191t93.5 -147q57 -86 138.5 -151t177.5 -133zM1253 870q-10 -8 -31.5 2.5t-43 28t-35 37.5t-6.5 37q49 -14 66.5 -24.5t21.5 -19.5t6 -17.5t22 -18.5 v-25zM799 1325q0 -68 -27 -106.5t-67 -65.5l-146 293q27 37 53.5 50t53.5 38q55 -27 94 -83t39 -126zM893 1405q-4 47 -17.5 71.5t-34 42t-45 35t-51.5 48.5q55 0 90 -36t51.5 -72t16.5 -54.5t-10 18.5v-53zM1591 422q0 16 -22.5 26.5t-24.5 10.5q-10 0 -27.5 -33t-37 -73 t-41 -72.5t-43.5 -32.5q-88 0 -132 35.5t-57.5 87t-3.5 109t33 100.5q0 4 17.5 39.5t40 78.5t47 82t38.5 51q16 12 39 20.5t44.5 17t36.5 20.5t15 33q0 18 -14 38.5t-33.5 39t-40 35t-32.5 30.5q-31 33 -48.5 61.5t-31 50t-25.5 34t-33 12.5q-25 0 -35 -15.5t-31.5 -49.5 t-66.5 -87t-141 -127v-43q88 0 149.5 -54t61.5 -120q0 -12 -4 -36.5t-14.5 -52.5t-32 -54.5t-56.5 -42.5q-27 23 -84 105.5t-116.5 175.5t-106.5 170t-51 89q180 102 255 196.5t75 199.5q0 66 -32 118t-73 86.5t-75.5 53t-40.5 18.5q8 0 -37 -35t-117 -87t-158 -110.5 t-156.5 -106.5t-114.5 -75.5t-32 -15.5l166 -352q-10 -25 -65.5 -71t-118 -112.5t-112.5 -152.5t-50 -193q0 -106 66.5 -210.5t146.5 -192.5q88 -96 160.5 -143.5t85.5 -47.5q20 0 86.5 51.5t140.5 114t131 114.5t60 54q18 -12 60 -57t89 -92t94 -85t74 -38q18 0 62 51 t88.5 112.5t77 113t32.5 53.5q0 31 15.5 57.5t34 50t32.5 42t14 32.5z" />
<glyph unicode="'" horiz-adv-x="528" d="M297 1565q-16 -12 -35.5 -8t-42 16t-45 28.5t-45.5 28.5q59 45 95 72t55 43q8 -23 -2.5 -35t-27 -22.5t-30.5 -20.5t-10 -31q0 -2 20.5 -23t67.5 -48zM487 1657q-8 10 -65 49t-148 104q-20 -8 -80.5 -56t-152.5 -126q0 -23 26.5 -38t57.5 -28.5t57.5 -29.5t26.5 -41 q0 -6 -17.5 -30.5t-38 -52.5t-38 -51.5t-17.5 -29.5q0 -35 37 -35q14 0 21.5 9.5t20.5 30t40 55t80 83.5q55 53 92 85t58.5 51.5t30.5 30t9 20.5z" />
<glyph unicode="," horiz-adv-x="532" d="M305 156q-29 -20 -62.5 -48t-33.5 -45q0 -27 28.5 -32.5t47.5 -12.5v-22q0 -14 -17.5 -7t-42 22.5t-50 32.5t-40.5 24q31 20 59.5 43.5t52 40t39 19.5t19.5 -15zM492 98q-16 31 -211 164q-16 -8 -81 -59t-159 -135q0 -14 28.5 -35t61.5 -41.5t61.5 -37.5t28.5 -28 q0 -2 -4 -7t-16.5 -20.5t-33 -44t-50.5 -79.5v-33q8 -2 14 -3t21 -5q82 111 145 175t107.5 101t66 54.5t21.5 33.5z" />
<glyph unicode="-" d="M729 610q-131 -25 -217 -28.5t-140.5 1.5t-83 11t-44.5 0t-21.5 -16.5t-13.5 -22.5t-24.5 -23.5t-55.5 -17.5q23 25 31 44.5t30 59.5zM821 659q0 2 -4 10.5t-4 12.5l-672 -14q-12 -8 -26.5 -33t-27.5 -54.5t-25.5 -60.5t-20.5 -55h559q113 0 167 55t54 139z" />
<glyph unicode="." horiz-adv-x="507" d="M289 16q-14 -14 -29.5 -11t-34 16.5t-39 32t-45.5 32.5q45 29 63.5 52.5t39.5 58.5q16 -4 13 -18.5t-13.5 -30t-22.5 -27.5t-12 -10q0 -14 28.5 -37t51.5 -58zM467 109q0 8 -33 39.5t-72.5 66.5t-75.5 63.5t-42 32.5q-39 -45 -88.5 -97t-114.5 -118q0 -8 28.5 -35.5 t65.5 -59.5t72 -59.5t51 -35.5q90 66 149.5 126.5t59.5 76.5z" />
<glyph unicode="0" horiz-adv-x="1398" d="M502 49q-10 -8 -19.5 -16t-19.5 -17q-70 33 -133.5 63t-112.5 58.5t-77.5 58t-28.5 62.5v1112h86v-1106q0 -47 7 -63.5t36.5 -28.5t91 -36t170.5 -87zM848 350q0 -119 -31 -173t-117 -54q-8 0 -36.5 18.5t-67.5 43t-83 50t-85 39.5v1051q0 104 47 129t111.5 8.5 t133 -54.5t109.5 -60q14 -16 16.5 -35t2.5 -41v-922zM1012 1386q-4 -158 -7.5 -285.5t-4.5 -250.5t-2 -251t-1 -284q0 -35 -4 -72.5t-47 -56.5h-33v1184q-39 27 -69.5 40t-58 24.5t-53 27t-52.5 45.5q33 27 33 31t20 4q14 -2 91 -56.5t188 -99.5zM1358 1550v33 q-31 4 -58.5 -11.5t-49 -37t-40 -39.5t-30.5 -18q-33 0 -86.5 30.5t-107.5 67.5t-98 67.5t-63 30.5q-8 0 -28.5 -16.5t-64.5 -42t-116.5 -58t-187.5 -63.5q-141 -39 -244.5 -47t-142.5 -19v-1249q0 -35 41 -54.5t96 -43t113.5 -58t95.5 -102.5h31q43 23 150.5 82t260.5 104 q113 33 184.5 43.5t116 11.5t68 4t41.5 21q-10 6 -29.5 19.5t-19.5 38.5q-6 139 -6 253.5t3 223t6 223.5t7 254q2 86 3 133t15.5 80t46.5 61.5t93 77.5z" />
<glyph unicode="1" horiz-adv-x="1093" d="M780 63q-25 0 -43 -8l-37 25q-36 26 -82.5 63t-85 80t-38.5 78q-4 150 -3 273.5t4 241.5t5 241t2 274q-18 78 -33.5 107.5t-29 42t-27 19.5t-25.5 42h41q55 -31 84 -52.5t41 -43t13 -48t1 -67.5q2 -94 -7 -207.5t-16 -233.5t-6 -240t24.5 -226.5t74.5 -193.5t143 -140 v-27zM1053 293q0 29 -16.5 26.5t-40 -20.5t-49 -42t-42.5 -38q-16 6 -41.5 21.5t-51.5 35t-44 42t-18 47.5v966q-4 84 -22.5 142.5t-49.5 99.5t-73 67.5t-91 49.5q-14 0 -28.5 -10.5t-39 -28t-65.5 -40t-111 -44.5q-119 -39 -174 -60.5t-55 -36.5q0 -16 6 -24t35 -19l184 72 q41 0 74 -18.5t55.5 -46t35.5 -58t13 -53.5v-950q0 -41 -31.5 -84t-69.5 -81t-69.5 -65.5t-31.5 -33.5q0 -39 33.5 -28t73.5 41t73 60.5t31 30.5q12 -10 49 -47t85 -77t98 -71.5t87 -31.5q4 0 49 42t97.5 95t94.5 103.5t40 66.5z" />
<glyph unicode="2" horiz-adv-x="1546" d="M1282 201q-20 -20 -21 -23.5t-22 -23.5q-49 43 -109.5 67.5t-120 38.5t-111.5 18.5t-87 4.5q-49 0 -112.5 -8.5t-129 -21.5t-128 -28.5t-107.5 -29.5q39 25 97 48t124 41.5t134.5 30t127.5 11.5q111 0 240 -29.5t225 -95.5zM670 1587q-8 -6 -40 -22.5t-71 -34t-76 -31.5 t-57 -14q-23 0 -46.5 5t-66.5 9q29 12 45.5 14.5t29.5 2.5t26.5 2t38.5 12q0 2 23.5 18.5t51 36t52 34.5t26.5 15q10 0 27 -15.5t37 -31.5zM1087 877q-2 0 -28.5 2t-36.5 4v579h65v-585zM1505 324q0 10 -7 22t-38 12q-25 0 -39 -14t-27.5 -31.5t-28.5 -32t-42 -14.5 q-6 0 -43 20.5t-101.5 45t-152.5 45t-197 20.5q-106 0 -190 -18.5t-160 -50t-150.5 -73.5t-164.5 -87l-8 43q139 285 353 433.5t564 148.5q39 0 66.5 1t53.5 -1t53.5 -11.5t68.5 -27.5q4 8 17.5 24.5t13.5 32.5q0 14 -10.5 22.5t-23 15.5t-21.5 18.5t-9 31.5v487 q0 16 21.5 53.5t35.5 67.5h-34q-25 -8 -40.5 -9t-31.5 1t-37.5 7t-58.5 10q-104 10 -168 17t-115 27.5t-106.5 60.5t-141.5 116q-86 -90 -155.5 -134t-174.5 -44q-31 0 -49 2t-30.5 5t-22.5 7t-29 8q0 -8 -5 -13t-5 -9q0 -25 37 -62t89 -69.5t106.5 -56t87.5 -23.5 q113 0 190.5 23.5t129.5 52t82 52t44 23.5q35 0 51.5 -23.5t21.5 -55t4 -62.5t-1 -45q-4 -78 -4 -134.5t-6 -131.5q-8 -88 -24.5 -128t-44.5 -55.5t-70 -17.5t-101 -14.5t-137 -47t-180 -114.5q-119 -94 -192 -178t-111.5 -157t-52 -135.5t-13.5 -111.5t23.5 -81t46.5 -32 q25 0 78 21.5t123.5 48.5t151.5 48.5t159 21.5q123 0 263 -31t259 -125h35q37 68 92 127t107.5 106.5t89 81.5t36.5 50z" />
<glyph unicode="3" horiz-adv-x="1540" d="M981 147q-12 -2 -19.5 -9t-15.5 -7q-10 0 -31.5 14.5t-63.5 32t-106.5 31.5t-158.5 14q-27 0 -67 -4t-87 -11t-94 -18.5t-90 -23.5q162 94 401 94q104 0 187.5 -19.5t144.5 -93.5zM1274 432q0 -23 2 -60.5t-4 -74.5t-25.5 -64.5t-60.5 -27.5q-14 0 -15 18v533h84 q6 -6 12.5 -37t6.5 -43v-244zM889 1591q-10 -10 -44 -29.5t-84 -38t-113.5 -32.5t-137.5 -14q-12 0 -47 7t-113 23q43 25 104.5 27t92.5 8q18 4 61 20.5t87 33t78 30.5t34 16q14 0 31.5 -14t50.5 -37zM1255 1036h-73q-8 31 -12.5 96.5t-5.5 136t3 134t15 90.5q18 -4 31.5 -5 t41.5 -3v-449zM1499 147q-8 25 -21.5 43.5t-25.5 40t-21.5 52t-9.5 79.5q0 129 9.5 217.5t19.5 143.5t18.5 80.5t8.5 32.5q-131 -16 -227.5 -15.5t-162 12t-104.5 29t-55 31.5q41 20 89 33.5t94 19.5t86 8t65 2q78 0 124 -5t113 -1q-14 41 -33.5 88t-23.5 82q-4 33 -5 56.5 t-1 49t2 57.5t4 81q6 20 20.5 68.5t22.5 101.5h-166q-94 -10 -186.5 17.5t-166 65.5t-120.5 71l-47 32q-6 0 -32 -22.5t-84 -49t-156.5 -49t-250.5 -22.5q0 -8 -7 -14.5t-7 -12.5q0 -27 49 -61.5t116 -66t134.5 -53t104.5 -21.5q78 0 148.5 24.5t125.5 55t90 55t39 24.5 q20 0 37 -6l35 -293q-2 -10 -3 -54t-23.5 -93t-78 -88t-166.5 -39q-16 0 -45.5 6t-58.5 7t-50.5 -10t-21.5 -44q-2 0 3 -14.5t11.5 -32t12.5 -32.5t8 -17q55 27 75.5 46t49.5 19q12 0 31.5 -6t38 -14t32 -15.5t15.5 -7.5q41 -12 71.5 -20t53 -26.5t34 -56.5t11.5 -114 q0 -80 -3 -136t-12 -140q-2 -25 -3 -51.5t-5 -49t-14 -37t-29 -14.5q-35 0 -58.5 22.5t-63.5 50t-109.5 50t-196.5 22.5q-160 0 -274.5 -43t-188 -95t-108.5 -96t-35 -46q0 -20 37 -15t89 18t109.5 28.5t98.5 15.5q55 0 96 -9t77 -26.5t69.5 -43t76.5 -60.5q70 33 106 62.5 t64 41.5q100 43 199.5 59.5t185.5 22.5t151.5 6t98.5 8z" />
<glyph unicode="4" horiz-adv-x="1589" d="M748 1303q-41 -70 -131.5 -148t-182.5 -171t-162.5 -202.5t-70.5 -242.5h-39q-2 0 -19.5 7t-17.5 29q0 74 40 146t103.5 140.5t138 133t144.5 120.5t124.5 103.5t72.5 84.5zM926 1485l-39 -963h-221q-47 8 -95.5 7t-86.5 0t-60.5 10.5t-22.5 40.5q2 82 83 189.5 t179.5 228t179.5 245.5t83 242zM1235 37q-10 -2 -17.5 -8t-19.5 -6q-8 0 -42 20t-71.5 56t-69.5 83t-34 99q-2 63 -3 115.5t-1 102.5t-1 102t-3 116l53 866q39 -61 39 -186t-12.5 -282t-23.5 -329t5 -329q12 -113 17.5 -166t20.5 -85t51 -63.5t112 -105.5zM1548 250 q0 8 -8 15t-10 16h-35q-4 -8 -18.5 -25.5t-33 -36t-38 -32t-33.5 -13.5q-23 0 -49.5 25.5t-49 58.5t-37.5 63.5t-15 38.5q0 18 8 36t14 36h115q35 -16 54.5 -27.5t33.5 -19.5t26.5 -18.5t30.5 -22.5q10 18 14.5 54t3.5 74t-5.5 72t-12.5 50q-51 -20 -87 -50t-97 -30 q-41 0 -56.5 10.5t-19.5 36t-3 68.5t-5 110q0 92 -1 159t9 161q10 96 13.5 162.5t6.5 111.5t7 69.5t12 37.5q59 -18 88 22q-131 66 -207 110t-116.5 72.5t-57 45t-28.5 24.5q0 -76 -3.5 -121t-21.5 -90q-12 29 -14 49.5t-25 46.5q-174 -236 -329.5 -379t-272.5 -250.5 t-185.5 -206.5t-68.5 -245q0 -53 38 -64.5t122 -11.5h442q135 0 188.5 -7t65.5 -26.5t2 -52t-2 -86.5q10 -70 55 -128t96.5 -101t95.5 -67.5t50 -24.5q23 0 80 44t118.5 98t108.5 102.5t47 56.5z" />
<glyph unicode="5" horiz-adv-x="1519" d="M870 106q-49 -14 -90 -14q-16 0 -41.5 14.5t-71.5 33t-117 32.5t-177 14q37 6 50 8.5t22.5 4.5t22.5 2h48q43 0 80 -5.5t77 -16.5t88 -29.5t109 -43.5zM1130 690q2 -80 1 -146.5t-3 -130t-4 -130t-2 -146.5q-20 0 -28.5 -1t-10.5 -1t-4 1t-12 1q4 80 7 145.5t4 127t1 127 t-2 145.5q-4 158 -188 252q10 4 19.5 9t23.5 5q8 0 40 -13t66.5 -43t62 -79t29.5 -123zM1331 1606q-80 -45 -152.5 -83t-185.5 -38q-84 0 -177 20.5t-212 36.5q-33 4 -64.5 5t-58 4t-43 11.5t-16.5 28.5q0 25 39 22t111.5 -17.5t176 -30t232.5 -15.5q111 0 191.5 20 t158.5 36zM1479 1024q0 4 -5.5 7t-5.5 7h-34q-29 -35 -51.5 -57.5t-63.5 -56.5q-37 16 -75 43.5t-73.5 53.5t-66.5 45t-53 19q-2 0 -43 -19t-104.5 -47t-140.5 -60.5t-149.5 -60.5t-132 -46t-90.5 -18l53 552q53 0 75 3.5t28 3.5q59 0 94 -5.5t69.5 -11.5t83 -12t132.5 -6 q123 0 212 30.5t151.5 75.5t102.5 97.5t66 95.5v63q-29 -6 -73 -25.5t-108.5 -41t-151.5 -38t-199 -16.5q-78 0 -136.5 10.5t-115 23t-117.5 22.5t-147 10q-29 0 -46.5 -1t-58.5 -7q35 -371 20.5 -580t-28.5 -250q-8 -18 -31.5 -42.5t-23.5 -47.5q0 -27 17 -34t36 -7 q74 0 145.5 42t143 83t144.5 61.5t146 -22.5q55 -31 84 -74t41.5 -93t13.5 -103t1 -107q0 -137 -7.5 -231t-43.5 -121q-33 18 -80 42t-107.5 45.5t-132.5 35.5t-154 14q-115 0 -199.5 -39t-140 -89t-82 -97t-26.5 -61q0 -29 30.5 -22t72.5 27.5t83 42t60 21.5 q72 0 128 -21.5t96 -48t63.5 -50l29.5 -29.5q31 18 78 48t115.5 59.5t160 51t209.5 21.5q25 0 70 -9.5t123 -33.5q8 35 3 49t-15.5 35.5t-20.5 63.5t-10 135q0 39 4 85t8 93t8 90t4 76q0 106 21.5 166.5t48.5 95.5t47.5 54t20.5 42z" />
<glyph unicode="6" horiz-adv-x="1478" d="M580 10q-10 -2 -18.5 -7t-16.5 -9q-4 2 -51.5 33.5t-103.5 68.5t-106.5 71t-62.5 40l6 1206q20 2 31.5 3t22.5 3q12 -25 17 -34t5 -29q2 -213 -9 -397.5t3 -348.5t75 -311.5t208 -288.5zM979 522l-12 -364q-6 0 -30 -3t-54.5 -9.5t-60 -15.5t-46.5 -21q-45 31 -91 58.5 t-84 50t-61.5 42t-23.5 35.5v453q0 8 28.5 34.5t71.5 55t95.5 51t101.5 22.5q-6 0 16.5 -10t51 -25.5t55.5 -31t31 -25.5q2 -6 4 -41t4 -81t3 -94t1 -81zM1122 877l-8 -697q-18 -2 -57 -6l2 494q0 74 -8.5 120t-27.5 76.5t-51 51t-81 40.5q14 8 21.5 14.5t21.5 6.5 q12 0 38.5 -14.5t56.5 -32t56.5 -33.5t36.5 -20zM1190 1493q-33 -2 -39 -5t-21 -3q-82 0 -143 29.5t-147 62.5q23 23 31 27t34 26q23 -14 96.5 -63t188.5 -74zM1438 1034q0 10 -3 13.5t-5 9.5h-31q-37 -37 -56.5 -57.5t-31 -31t-17.5 -12.5t-16 -2q-41 0 -77 23.5 t-68.5 52.5t-62.5 52.5t-58 23.5q-6 0 -67.5 -37t-140.5 -81t-155 -81t-112 -37q-4 0 -10.5 3.5t-10.5 3.5v528q0 29 17.5 60.5t60.5 31.5q16 0 42 -19.5t69 -44t107.5 -45t158.5 -20.5q104 0 183 22.5t130 52.5t78 56.5t27 34.5q0 23 -13.5 19.5t-42 -10.5t-78 -7 t-122.5 29q-80 31 -112 57.5t-37 48t4 42t9 38.5q-27 -6 -70.5 -31.5t-112.5 -64.5t-169 -83t-237 -87q-39 -12 -80 -10t-74 -3.5t-54.5 -28t-21.5 -87.5q6 -156 6 -283t-2 -247.5t-7 -247.5t-11 -283q-4 -66 -40 -110t-83 -99v-35q0 -14 22.5 -2t48 33.5t46.5 41.5l22 19 q20 0 76.5 -32.5t118 -73.5t114 -74t64.5 -33q20 0 70.5 30t132.5 65.5t197.5 65.5t267.5 30q23 0 34 -2t22 -3t25.5 0t43.5 5v45q-33 18 -44.5 92t-12.5 163t4 175t5 131q0 84 21.5 133t48.5 80t48.5 50t21.5 44z" />
<glyph unicode="7" horiz-adv-x="1460" d="M676 51q0 -33 -41 -33q-18 0 -66.5 28t-98.5 77t-90 116.5t-40 145.5q0 45 18.5 105.5t54.5 124t85 125t108 112.5q-27 -35 -56.5 -81t-54 -99.5t-41 -111.5t-16.5 -118q0 -90 37 -159.5t82 -118.5t82 -78t37 -35zM838 1499q-66 0 -87.5 -4t-35 -8t-35 -7t-84.5 -3 q-94 0 -161.5 17t-133.5 32q6 16 19.5 32.5t33.5 40.5q55 -18 97.5 -35.5t92.5 -31.5t117.5 -23.5t176.5 -9.5zM1419 1640v80q-41 -6 -89 -31.5t-120.5 -54t-179 -51t-266.5 -22.5q-90 0 -146.5 10t-99.5 27.5t-84 41t-104 50.5l-289 -353q8 -12 16.5 -20t30.5 -8 q25 0 35 11t15 25.5t10.5 25.5t19.5 11q8 0 32.5 -11t69.5 -25.5t115 -25.5t166 -11q55 0 139 9t187.5 40t222.5 88t243 153q-8 -57 -38.5 -91.5t-102.5 -89t-194.5 -146.5t-315.5 -264q-18 -16 -84.5 -65.5t-140.5 -129.5t-131 -189.5t-57 -244.5q0 -117 52 -203 t118.5 -141t128 -82t79.5 -27q12 0 19.5 8.5t22 30t44 59t86.5 97.5q90 92 147.5 134t57.5 73q0 16 -11 22t-26 15q-29 -20 -48 -41t-35.5 -36.5t-33 -25.5t-40.5 -10q-37 0 -72 27.5t-61.5 67.5t-43 86t-16.5 83q0 121 41 211t107.5 168t151.5 149.5t170 156.5t165 190.5 t137 248.5z" />
<glyph unicode="8" horiz-adv-x="1390" d="M692 8q-14 0 -23.5 -4t-21.5 -4q-4 0 -45 28.5t-104.5 65.5t-140 75t-150.5 56v496q47 0 94 -8v-430q0 -18 14.5 -31.5t55.5 -37.5t117.5 -66t203.5 -117v-23zM952 692q-2 -68 -3 -125t-2 -111.5t-3 -110.5t-4 -126q-2 -63 -22.5 -83.5t-53.5 -20.5l-28 21 q-27 22 -78 54.5t-122 70.5t-157 71v413q29 20 103.5 39t155.5 19t144.5 -24t69.5 -87zM1077 195q-6 -2 -18 -8.5t-25.5 -9.5t-26 2t-14.5 24l21 518q18 -2 25.5 -3t10.5 -1h8t19 -4v-518zM281 991l-19 -2q-20 -2 -37 -10l-12 448q20 2 32.5 4.5t35.5 4.5v-445zM952 1257 l-12 -309q-31 -2 -67.5 -9t-71.5 -15.5t-63.5 -14.5t-41.5 -6q-10 0 -77.5 23.5t-139.5 44.5v479q0 29 7.5 41t18.5 18.5t26.5 10.5t31.5 14q119 -72 196 -113t120 -67.5t59 -47t14 -49.5zM1087 1386l-10 -421q-39 -2 -69 0v413q-82 31 -131.5 53.5t-85 43t-66.5 40 t-78 41.5q33 29 36 31t13 12q37 -29 88.5 -62.5t105.5 -64t106 -54.5t91 -32zM1350 1577q0 8 -21.5 -3t-47.5 -27.5t-46.5 -32t-17.5 -15.5q-31 0 -95.5 31t-131 69.5t-121 74.5t-66.5 46q-102 -63 -211 -109t-203 -79t-163.5 -52.5t-92.5 -29.5q12 -45 24.5 -94t14.5 -115 q0 -82 -9 -145.5t-14.5 -106.5t0 -64.5t33.5 -21.5q2 0 44 2t101.5 -1t126 -14t119.5 -40q-47 -18 -167.5 -50t-286.5 -38v-35q33 -18 33 -37v-438q0 -37 -17.5 -57.5t-38 -36t-38 -27.5t-17.5 -35q0 -18 28.5 -10t59.5 25.5t52.5 36t6.5 18.5q66 0 129.5 -38t123 -84 t113.5 -84t99 -38q25 0 54.5 23.5t81 58.5t131 78t202.5 80q6 0 14.5 -1t24 1t43 7t76.5 17v519q0 20 -8 44.5t-10 34.5q-201 0 -300.5 22.5t-158.5 53.5l22 17q12 0 39 7t78 14t128 13.5t192 6.5q0 66 3 120t5 106t3 106.5t-3 119.5q-2 47 10 81t27.5 58.5t29 41t13.5 26.5 z" />
<glyph unicode="9" horiz-adv-x="1419" d="M950 180q-66 -29 -141.5 -26.5t-158.5 14.5t-171 22.5t-176 -0.5q12 4 56 13.5t95.5 19.5t97.5 17.5t62 7.5q98 0 169 -20.5t167 -47.5zM551 602q-14 -10 -23.5 -16t-21.5 -15q-57 33 -93 52.5t-65 35t-57.5 32t-67.5 40.5v682q0 -2 20.5 1t30.5 5q25 -51 32 -122.5 t5 -148.5t-8 -151.5t-6 -132.5q-18 -57 -1 -98t57 -70.5t93.5 -51.5t104.5 -42zM1094 442q0 -49 3 -88t-5.5 -68.5t-31 -51t-71.5 -35.5q2 172 6 314t6.5 277.5t2.5 277.5t-5 314q0 27 -26.5 43.5t-68.5 35t-92 46t-99 76.5q14 4 25.5 8t29.5 19q6 -4 58.5 -30t111.5 -58.5 t107.5 -65.5t48.5 -51v-963zM926 1389v-103.5t-1 -90.5t-3 -90t-7 -104q-4 -47 -6 -94t-2 -92l-29 -15q-28 -16 -63 -34t-66.5 -33.5t-37.5 -15.5q-23 0 -56.5 13t-67.5 34.5t-57.5 48.5t-23.5 55v602q4 4 21.5 16.5t39 25t44 21.5t36.5 9q12 0 38 -17.5t61.5 -42t81 -51 t98.5 -42.5zM1378 1606q0 18 -32.5 2.5t-61.5 -34t-33 -22.5q-57 0 -110.5 29t-103.5 64.5t-94 64.5t-83 29q-16 0 -73.5 -43t-149.5 -95.5t-213 -95.5t-264 -43v-762q20 -20 77.5 -53t118 -63.5t109.5 -53t55 -24.5l387 229l19 -10l-2 -463q-90 12 -147.5 27.5t-137.5 15.5 q-139 0 -249.5 -27.5t-187.5 -64.5t-119 -75t-42 -58q0 -8 6 -13.5t8 -15.5q90 12 163 20.5t142.5 0t143.5 -40t162 -94.5q100 74 157.5 113.5t119 65t149.5 49t249 64.5v27q-18 4 -30.5 10t-24.5 15q-4 176 -10 319t-10 279.5t-4 280t10 317.5q0 8 16.5 25.5t37 38t36.5 39 t16 26.5z" />
<glyph unicode=":" horiz-adv-x="540" d="M303 16q-20 -14 -45 -3.5t-48.5 32t-44 44t-30.5 32.5q35 27 74 57.5t51 65.5q8 -8 35 -8q16 0 11 -10.5t-20.5 -27t-35 -37t-29.5 -40.5q0 -20 24.5 -39t57.5 -66zM285 745q-23 -12 -49.5 2.5t-50 36t-42 43t-22.5 25.5q43 29 69.5 57.5t49.5 57.5q10 -4 20 -8.5 t10 -12.5q0 -16 -30.5 -40.5t-30.5 -57.5q0 -20 31 -42t45 -61zM500 109q0 20 -35 55t-76 68.5t-78 58t-43 24.5q-23 -6 -81 -56t-142 -132q0 -8 27.5 -40t63.5 -68.5t70 -70.5t44 -46h20q111 90 170.5 134t59.5 73zM492 844q0 12 -33 45t-75 67.5t-80 62.5t-46 28 q-43 -8 -94 -59.5t-123 -135.5q0 -12 34 -48t74.5 -73t75.5 -66.5t35 -31.5q39 27 79 61.5t73.5 66.5t56.5 55.5t23 27.5z" />
<glyph unicode=";" horiz-adv-x="532" d="M301 217q0 -2 -15.5 -15.5t-54.5 -47.5v-58q14 4 23 13q12 -10 21.5 -18.5t9.5 -22.5q0 -12 -17.5 -21.5t-23.5 -13.5q-37 41 -55.5 56t-51.5 26q49 33 77 59.5t43 40.5t23.5 16t20.5 -14zM305 756q-6 -23 -26.5 -17t-46 22.5t-51 39t-44.5 35.5q29 31 46.5 52t30.5 36.5 t26.5 27t35.5 23.5q0 -8 4.5 -12.5t4.5 -12.5q0 -12 -10.5 -23.5t-21.5 -24.5t-21.5 -29.5t-10.5 -36.5q0 -12 19.5 -17.5t64.5 -62.5zM492 154q0 6 -31 33.5t-68 56t-70.5 52t-41.5 23.5q-4 0 -43 -30.5t-83 -67.5t-79 -68.5t-35 -33.5q0 -6 28.5 -27.5t61.5 -46.5 t61.5 -45t28.5 -27q0 -6 -16.5 -29.5t-34.5 -51t-34.5 -52t-16.5 -30.5q0 -43 21.5 -30t47 47t49 70.5t29.5 39.5q47 57 88 91.5t72 56t48.5 36.5t17.5 33zM492 850q-8 29 -67.5 81t-156.5 124q-23 -8 -78 -64.5t-137 -144.5q0 -14 33 -48t74 -70t75.5 -63.5t40.5 -29.5 q37 29 76 63.5t70 66.5t50.5 55.5t19.5 29.5z" />
<glyph unicode="?" horiz-adv-x="1198" d="M569 303l-12 -15q-12 -16 -30.5 -37.5t-42 -44t-50.5 -40.5q-4 2 -17.5 9t-33.5 13q10 16 28.5 35t39 39.5t39 42t26.5 39.5q27 -12 40 -19.5t13 -21.5zM1065 1270q0 -84 -48 -130t-119 -75t-155 -51.5t-154.5 -62.5t-118.5 -106.5t-48 -185.5q-8 29 -14.5 44.5 t-6.5 41.5q0 104 67 169t157 110t185 81t151 83q6 6 21 24.5t26.5 48t12.5 70.5t-22 90q27 -29 46.5 -65.5t19.5 -85.5zM600 1647q-84 -53 -142.5 -79t-129.5 -26q-14 0 -34 7t-50 12q215 25 282 153q37 -23 54.5 -43t19.5 -24zM758 231l-35 28q-35 28 -79 61.5t-85 63.5 t-53 34q-59 -98 -105.5 -144.5t-53.5 -78t35 -68.5t159 -115q86 100 151.5 148t65.5 71zM1157 1210q2 129 -62.5 200t-159.5 123t-202.5 107.5t-191.5 153.5h-35q-43 -111 -171 -163t-294 -9v-31q53 -53 108.5 -84.5t106.5 -48t96 -21.5t76 -5q88 0 155.5 17t114.5 37.5 t75 38t38 17.5q29 0 57.5 -19.5t51 -48t36 -63.5t13.5 -63q-2 -72 -48.5 -117t-115 -80t-148 -64.5t-148.5 -71.5t-115 -102.5t-46 -154.5q0 -29 12.5 -69t40 -77t71.5 -63.5t110 -26.5q53 0 53 58q0 10 -18.5 20t-41 22.5t-41 27t-18.5 32.5q0 35 45 62.5t110.5 50 t137.5 45t123 47.5q39 18 80 51t72.5 74t52 92t20.5 106z" />
<glyph unicode="A" horiz-adv-x="2467" d="M1823 -375q0 -33 -35 -73.5t-106.5 -76.5t-180 -60.5t-258.5 -24.5q-137 0 -280.5 39t-262 93t-194.5 112.5t-76 99.5q0 20 58.5 41.5t146.5 37t192.5 25.5t194.5 10q141 0 284.5 -14t258 -43t186.5 -70t72 -96zM1468 156q-12 -33 -23 -41.5t-24 -30.5q-57 31 -109 54.5 t-104.5 40t-112 25.5t-132.5 9q-61 0 -112.5 -6t-98.5 -19.5t-96.5 -33t-108.5 -43.5q61 47 114.5 76.5t109.5 46t121.5 22.5t147.5 6q92 0 156 -10t111 -26.5t84.5 -35t76.5 -34.5zM1753 512q-51 -59 -79.5 -95t-44 -56.5t-24 -26.5t-20.5 -6q-4 0 -20.5 8t-54 21.5 t-102.5 31t-165 33.5q6 18 17.5 44t21.5 50.5t20.5 43t14.5 24.5h436v-72zM1735 641q-45 -2 -77 -2h-72t-97 1t-154 1q6 12 11.5 29.5t11.5 27.5q35 -2 44 0t26.5 4.5t62.5 2.5t151 -7q49 -2 66 -12t27 -45zM1681 801q-90 0 -156.5 4t-119.5 4q0 6 -5 10t-5 8q0 6 22.5 49.5 t52 98.5t55 111.5t29.5 87.5q10 -18 29 -69.5t39 -110t36.5 -112.5t22.5 -81zM2167 150q0 -23 -14.5 -35.5t-30.5 -22.5q-76 78 -120 125t-67.5 81t-34 61.5t-19.5 65.5t-23.5 93t-47.5 146q-59 168 -99 283.5t-63.5 189t-32.5 109.5t-9 44q0 4 14 20.5t27 71.5 q10 -10 42.5 -100t68.5 -199.5t65.5 -205t36.5 -113.5q31 -96 52 -171t42 -149q25 -88 60.5 -141t69.5 -83t57.5 -44t25.5 -26zM1479 1214q0 -16 -29 -63q-88 61 -136 98t-90 56.5t-95.5 25.5t-151.5 6q33 4 51.5 7.5t32.5 5.5t27.5 3t37.5 1q55 0 117 -13.5t115 -35t87 -45 t34 -46.5zM1599 1475q0 -16 -12 -36t-33 -57q-39 68 -100 114t-131 74.5t-140.5 41t-125.5 12.5q-31 0 -78 -7t-93 -16.5t-82 -18.5t-46 -13q98 66 206.5 94.5t180.5 28.5q96 0 179 -30t144.5 -68t96 -72.5t34.5 -46.5zM2427 387q0 14 -10.5 21.5t-24.5 13.5 q-29 -47 -55.5 -66.5t-42.5 -19.5q-41 0 -75 52t-59.5 116.5t-41 119t-15.5 60.5q-20 63 -32.5 97t-23.5 67t-23.5 77t-34.5 126q-51 193 -110.5 374t-125.5 371q-23 -25 -33 -46t-17 -40.5t-19.5 -37t-36.5 -32.5q-68 63 -192 122t-302 59q-129 0 -245.5 -45t-206 -122 t-141.5 -178.5t-52 -213.5q0 -113 49 -194t118.5 -132t146.5 -75.5t132 -24.5q53 0 93 4t75 14t71 27.5t79 42.5v22q0 2 -9.5 5t-11.5 5q-57 -33 -106 -55t-150 -22q-70 0 -144.5 28.5t-134 77.5t-98 114.5t-38.5 139.5q0 61 22.5 123.5t74.5 113t139 82t216 31.5 q100 0 211 -34.5t197 -122.5q-27 -2 -52.5 2t-58.5 10t-78 12t-112 6q-117 0 -197 -28.5t-129 -69.5t-70.5 -86t-21.5 -76q0 -27 18.5 -57.5t52 -56t78.5 -43t101 -17.5q25 0 49 8q-25 18 -55.5 24.5t-58 14.5t-47 26.5t-19.5 59.5q0 51 55 85t119 34q51 0 117.5 -18.5 t125 -51t98.5 -76.5t40 -96q0 -6 -4.5 -29.5t-21.5 -75.5t-53 -137t-97 -212q-35 -70 -50.5 -105t-29 -49t-33 -14h-60t-111.5 -9.5t-187 -41.5q-47 -12 -112 -43t-126 -80t-109.5 -117t-62.5 -154q-10 -57 -1 -92t1 -55q-4 -6 -51 -39t-101.5 -77t-99.5 -95t-45 -96 q0 -51 13.5 -80t39 -47.5t65.5 -31.5t95 -34h158v31q-10 0 -66.5 -8.5t-119 0t-113 43.5t-50.5 118q10 66 87 116t200 108q20 0 38 -30t54.5 -73t107.5 -93t198 -91q18 -6 61 -21.5t103.5 -32t137 -28.5t162.5 -12q117 0 241 12t224.5 45t166 87t65.5 136q0 63 -79 122 t-193.5 104t-242.5 71.5t-227 26.5h-270q-57 0 -127 -10.5t-137.5 -26.5t-124.5 -34.5t-86 -35.5l-23 19q27 51 80 103.5t127 93t167 66.5t200 26q86 0 159.5 -23.5t132 -51.5t98.5 -51.5t56 -23.5q39 0 60.5 28.5t53.5 84t88 136.5t165 185q20 -25 26.5 -44t8.5 -37.5 t6 -39t22 -49.5q6 -12 48 -58t90.5 -96t89.5 -90t45 -40t11 5t11 5q23 55 69 115.5t94 115t84 97.5t36 63z" />
<glyph unicode="B" horiz-adv-x="1890" d="M1315 -229q0 -53 -120 -88t-366 -35q-98 0 -174.5 12t-144.5 36.5t-131.5 61.5t-134.5 86q25 16 70.5 28.5t160.5 21.5q68 4 109 6t70.5 2h54h57.5q6 0 48 -4t103.5 -11.5t131 -17.5t129 -24.5t98.5 -32.5t39 -41zM1208 111q-18 -25 -22 -30t-19 -18q-98 47 -170.5 77 t-141.5 47.5t-143.5 23.5t-174.5 6q70 8 131 21.5t80 13.5q51 0 114.5 -10.5t127 -29.5t120.5 -44.5t98 -56.5zM694 1010q-106 2 -233 -4.5t-236 -51.5q49 37 74 50.5t45.5 16.5t43 4t65.5 15h241v-30zM1198 373q-37 -4 -85 3t-107.5 16t-131 12.5t-155.5 -9.5 q41 23 94 41.5t105.5 44t97.5 64.5t69 102q25 66 22 116t-4 88t13 61.5t74 33.5q12 -39 15 -109.5t1 -152.5t-6 -165t-2 -146zM907 784q0 -12 -8 -50t-26.5 -82t-49 -85t-75.5 -57q2 4 9 20.5t15 35t14 32.5l7 14v205q0 86 -12.5 137.5t-13.5 106.5t19.5 134t85.5 220 q29 -2 35 -10v-621zM1464 561l-14 -295q-35 23 -76 40.5t-112 39.5q0 170 -1 264.5t-3.5 144.5t-3.5 69.5t-1 37.5q0 47 12.5 81t59.5 34q59 0 89 -42t42 -104.5t11 -135.5t-3 -134zM1642 662l-24 -347q-29 -6 -46.5 -16t-45.5 -25q2 80 6 145.5t7 129t3 129t-4 145.5 q0 10 -6 27.5t-15.5 36t-17.5 35t-14 24.5q100 -45 128.5 -114.5t28.5 -169.5zM625 1415h-43q-92 0 -135.5 46t-66 104.5t-37.5 114t-48 75.5h43q63 -31 89 -78t44 -97t49 -95t105 -70zM1198 1004q-23 -4 -42 -6.5t-62 6.5l-19 501q16 16 35.5 55t87.5 62v-618zM1395 1319 q0 -59 1 -101t-8.5 -75t-35 -59.5t-80.5 -57.5v573q59 -23 85.5 -59.5t35 -77.5t5.5 -79.5t-3 -63.5zM1556 1382q0 -61 -2 -101t-13 -68.5t-32.5 -51t-58.5 -47.5q8 61 12 77.5t7.5 25t4.5 28t1 88.5q0 129 -35 209t-158 129q6 2 21.5 18.5t35.5 16.5q29 0 66 -15.5 t70.5 -53.5t57 -100.5t23.5 -154.5zM1849 293v481q0 74 -55 119t-125 71.5t-134.5 40t-84.5 21.5q106 61 164.5 101t85 76t31 78t4.5 110q0 104 -23.5 184t-61.5 135t-86 83t-96 28q-25 0 -80 -27t-123.5 -67.5t-142 -88t-135 -88.5t-101.5 -68.5t-42 -27.5q0 2 10 40 t22.5 82t21.5 82t9 40v57h-41q6 -100 -15.5 -167.5t-94.5 -67.5q-37 0 -59.5 47t-56.5 103t-93.5 103.5t-169.5 47.5q-49 0 -108.5 -18.5t-109.5 -53.5t-84 -83t-34 -110q0 -80 72.5 -161.5t193.5 -126.5q-6 0 -41 30.5t-72.5 74.5t-68.5 95.5t-31 94.5q0 39 16.5 71.5 t39 55t44 35t31.5 12.5q29 0 45.5 -21.5t26.5 -49.5t13 -51.5t3 -29.5q10 -33 34 -69.5t61.5 -67.5t91 -51.5t121.5 -20.5q131 0 159.5 -32.5t-7.5 -72.5t-120 -75t-178 -41q-66 -4 -140.5 -26.5t-137 -64.5t-103.5 -100.5t-41 -129.5q0 -84 41 -147.5t100.5 -105.5 t125 -63.5t114.5 -21.5q16 0 21.5 -1t8.5 -1t7 5t16 17q-10 4 -62 16.5t-110.5 41t-104.5 75.5t-46 119q0 51 40 89t98 63.5t124 38t119 12.5q51 0 79.5 -3t80.5 -14v-43q-51 -23 -109.5 -28.5t-109 -17t-84 -38t-33.5 -88.5q0 -45 8 -54t35 -32q23 63 53.5 92t70 37.5t86 5 t97.5 -3.5v-180q0 -27 -7 -58.5t-27.5 -59t-56.5 -46t-91 -22.5v-23q10 -10 21 -18t22 -17q-10 -4 -42 -12t-74 -20.5t-88 -29.5t-81 -40q-109 -68 -134.5 -161t-25.5 -212q-6 -14 -30.5 -17t-51.5 -38q86 10 117 -2t57.5 -40t72.5 -65.5t163 -78.5q53 -18 170 -45t272 -27 q98 0 186.5 11t155 34t104.5 55.5t38 75.5q0 66 -75 110t-174.5 70.5t-201.5 37.5t-162 11q-104 0 -200.5 -12t-172 -25.5t-123 -25.5t-55.5 -12q-12 0 -23.5 14t-11.5 35q0 39 30 81t80 76.5t115.5 57t139.5 22.5q121 0 226.5 -29.5t186.5 -64.5t134 -64.5t69 -29.5 q18 0 50 24.5t73 59.5t92.5 72t106.5 61q72 31 124 44t92 18.5t72.5 6.5t67.5 7z" />
<glyph unicode="C" horiz-adv-x="1775" d="M799 49q-8 0 -15.5 2t-15.5 2q-2 0 -48 14.5t-105.5 35t-116 42t-78.5 33.5q-27 14 -80 70.5t-105.5 130.5t-90.5 155.5t-38 151.5v170q0 55 23 126t58.5 144.5t80.5 143t90 121.5q-20 -41 -51 -102.5t-58.5 -133.5t-48 -149.5t-20.5 -149.5q0 -70 33 -192.5 t106.5 -248.5t191.5 -230.5t288 -135.5zM653 729l-3 -29q-3 -28 -11 -68t-22.5 -82t-36.5 -73q-12 8 -38 53t-50.5 113t-43 151t-18.5 162q0 31 9.5 101.5t21.5 145.5t24.5 134.5t20.5 67.5q20 27 46 31t91 26q0 -106 4 -194t7 -172t4 -172.5t-5 -194.5zM1186 1405 q2 -178 1 -323.5t-2 -286t-3 -285.5t-2 -324q-23 -2 -45.5 -5t-51.5 -3q-78 0 -151.5 22.5t-135 56.5t-106.5 72t-69 68q123 66 214 87.5t149 53t83 100.5t16 228q-6 104 -8 189.5t-2 166.5t1 166t1 189q16 -33 35.5 -53.5t36 -37t28 -34.5t11.5 -47zM821 831 q-2 -33 -5 -78.5t-14 -92t-36 -86t-72 -62.5q31 68 35 172t-1 227t-11 255t6 257q2 35 10 58.5t43 48.5h37q0 -102 4 -185t7 -163t3 -164.5t-6 -186.5zM1389 1454q-129 37 -192.5 78t-63.5 131q0 27 25.5 40t39.5 17q20 -70 24.5 -105.5t16.5 -58t44 -43t106 -59.5z M1735 809q0 70 -14.5 145.5t-49.5 139.5h-29q-8 0 -22 -10.5t-14 -16.5q0 -12 24.5 -77.5t24.5 -209.5q0 -147 -54.5 -254.5t-124 -176t-135 -102.5t-88.5 -36l-14 1194q20 8 90 2t146.5 10.5t136 75.5t59.5 203q0 35 -8 72.5t-21.5 65.5t-30 39t-32.5 -5q2 -12 13.5 -61.5 t14.5 -101.5t-14.5 -94t-72.5 -42q-33 0 -57.5 33.5t-41 83t-24.5 103.5t-8 95h-31q-145 -61 -270 -132t-228.5 -129t-184.5 -97t-138 -39q-8 0 -10.5 4t-10.5 6v23q29 53 54.5 86.5t49 60.5t48 52.5t51.5 58.5q-80 -16 -168 -92t-163 -162t-125 -156t-54 -74 q-39 -55 -69.5 -122.5t-52 -137t-34 -137.5t-12.5 -123q0 -184 53 -314t137 -219t185.5 -141.5t196 -79t170 -35t106.5 -8.5q215 0 374.5 77t265 197t157 268.5t49.5 289.5z" />
<glyph unicode="D" horiz-adv-x="2037" d="M1176 121q0 -14 -24 -25.5t-38 -19.5q-90 84 -205.5 123t-223 52t-187.5 10t-97 -3q45 12 72 21.5t48.5 15.5t47 9t70.5 3q23 0 110 -17.5t181 -45t170 -60t76 -63.5zM625 729l-2 -13q-2 -14 -23 -14q-8 0 -21.5 9.5t-44 18.5t-84 13.5t-137.5 -8.5q20 23 40 41.5 t55 18.5q14 0 43.5 -6.5t62.5 -15.5t64 -20.5t47 -23.5zM625 969q-12 0 -15.5 -2t-15.5 -2q-6 0 -27.5 5t-51.5 10t-61.5 10t-60.5 5q-43 0 -111.5 -14t-111.5 -35q35 41 84 64.5t94 35t77 13.5l32 2q59 0 101 -8.5t67 -16.5v-67zM844 1311q-8 -57 -20.5 -109.5 t-12.5 -142.5v-193q0 -43 1 -98t-8 -109.5t-34 -98.5t-76 -66v356q16 37 13.5 83t1.5 102.5t30.5 125t104.5 150.5zM1589 485q0 -76 -23.5 -118.5t-62.5 -59t-90 -9.5t-106 32v422q0 35 41 51t76.5 19t41.5 3q29 0 57.5 -7t65.5 -17v-316zM1753 1317q-2 -111 -1 -190.5 t-7 -188.5q-14 -152 -10 -253t4 -165.5t-15.5 -97.5t-70.5 -49q0 133 3 242.5t4 214t2 213t-1 241.5q0 72 -9.5 125t-39 89t-87 53.5t-155.5 17.5q-57 0 -101 -8.5t-95.5 -16.5t-118 -16t-168.5 -8q-119 0 -190.5 19.5t-111.5 43t-56.5 46t-22.5 28.5q66 -35 103.5 -51.5 t69.5 -22.5t65.5 -6h89.5q125 0 206.5 9t152.5 19.5t144.5 19.5t182.5 9q86 0 136 -27.5t73.5 -71.5t26.5 -101.5t-3 -116.5zM1589 866q-68 -4 -132 7.5t-150 -23.5q-10 23 -12.5 40t0.5 42.5t7.5 65.5t4.5 110q74 -12 103.5 -16.5t48 -1t43 10.5t87.5 15q6 -47 6 -75.5 t-1 -53t-3 -51.5t-2 -70zM1589 1196q-59 -37 -103 -43t-77 1t-57.5 17.5t-44.5 8.5v323q25 4 45 7t47 3q104 0 147 -30.5t43 -100.5v-186zM1147 1448h-53q-170 -51 -257 -98t-125 -84t-44 -61.5t-15 -30.5q-12 -6 -38.5 0t-88.5 0q-92 -10 -177 -38t-151.5 -72 t-105.5 -103.5t-39 -129.5q0 -94 37 -156.5t86 -99t98.5 -51t75.5 -14.5q49 0 112.5 8t127.5 47v35q-33 -6 -57.5 -16.5t-50 -19.5t-55.5 -15t-77 -6q-37 0 -75.5 18.5t-72.5 50t-55.5 72.5t-21.5 84q0 39 22.5 70.5t59.5 54t83 35t95 12.5q16 0 49 -5t67 -14.5t64.5 -21.5 t42.5 -27q-10 0 -72.5 9.5t-132 7.5t-126 -26.5t-56.5 -94.5q0 -49 18.5 -83t73.5 -62q10 55 28.5 67t84.5 12q68 0 131.5 -25.5t63.5 -84.5q0 -20 -13.5 -50t-24 -58.5t-12.5 -49t19 -20.5q33 0 101.5 18.5t141 51t135 76.5t85.5 93q16 37 20 72t2 64.5t-6 50t-4 26.5v228 q0 104 11 169.5t26.5 103.5t29 55.5t15.5 25.5zM1997 1446q-6 16 -14.5 77.5t-56.5 129t-156.5 121t-319.5 53.5q-113 0 -214 -10.5t-198.5 -23.5t-197 -24.5t-205.5 -11.5q-76 0 -104.5 5t-41 14.5t-21.5 20.5t-46 22q-2 -4 -6 -27t-4 -25q0 -123 123.5 -214t379.5 -91 q43 0 95.5 7.5t98.5 14.5t77 14l31 7q12 0 15 -9t7 -11v-1055q0 -27 -5 -44t-13 -38q-180 29 -299 43.5t-154 14.5q-209 0 -349 -54.5t-224 -131.5t-119 -158.5t-35 -135.5q0 -115 77 -199.5t198.5 -140t273 -82t301.5 -26.5q195 0 349.5 38t262 102.5t164.5 150.5t57 180 q0 109 -30.5 153.5t-42.5 44.5q-8 0 -4 -22.5t11 -52t15 -59t8 -44.5q0 -111 -79.5 -188.5t-199.5 -127.5t-261.5 -73.5t-261.5 -23.5q-160 0 -301.5 26.5t-246 77.5t-165 128t-60.5 177q0 61 53.5 107.5t125 77t147.5 47t119 16.5q143 0 245.5 -36t172 -78t109.5 -77.5 t61 -35.5q25 0 51.5 26.5t67 66.5t104 84t164.5 81q63 23 113.5 42t98.5 32.5t102 21.5t126 8z" />
<glyph unicode="E" horiz-adv-x="1890" d="M844 90q-10 0 -21.5 -3t-15.5 -3q-2 0 -53.5 10t-127 38t-163.5 79t-163 132t-124 197.5t-49 276.5q0 84 24.5 157t53 130t53.5 98t27 60q-2 -35 -16.5 -77t-30 -88t-27.5 -94.5t-12 -95.5q0 -154 48 -287t133 -239.5t204 -181t260 -109.5zM1233 201q-20 -2 -35.5 -5 t-38.5 -3q-76 0 -146.5 23.5t-133 56t-114.5 69.5t-89 64q25 20 80 27t119.5 22.5t125 50.5t95.5 108q41 90 40 140.5t-5.5 85t12 65.5t90.5 82v-786zM748 743q6 -63 4 -99t-14.5 -61.5t-35 -51t-59.5 -68.5q-37 33 -66.5 100.5t-49 137t-30 123t-10.5 57.5q-8 92 -4 165.5 t4 77.5q6 90 31 154.5t53 153.5q49 -20 73 -13.5t61 29.5q14 -35 19 -101.5t15 -172.5q6 -63 7.5 -114.5t1.5 -101t-1 -101t1 -114.5zM897 817q-10 -84 -20.5 -134t-21.5 -80t-26.5 -45t-35.5 -32v914q0 20 16 30.5t35 26.5h47zM1559 907q0 -10 -7.5 -19t-25.5 -32 q-23 47 -42.5 78t-42 52.5t-51 37.5t-65.5 35h55q4 0 33 -14.5t60.5 -37t58.5 -49t27 -51.5zM1243 1147q0 -16 -21.5 -41t-82.5 -64q0 170 -3 265.5t-5.5 146.5t-5.5 71.5t-3 41.5q0 8 3 21.5t22 29.5q8 -49 23.5 -74.5t32 -41t28.5 -26t12 -28.5v-301zM1485 1473 q-45 -10 -64 -11q-25 0 -74 19.5t-86.5 50.5t-46 66.5t47.5 68.5q20 -35 37.5 -67.5t40 -58t56.5 -44t89 -24.5zM1849 692q0 10 -6 40t-12 38q-14 -4 -45 -10q0 -195 -120 -342.5t-359 -204.5v774q61 -23 89.5 -61.5t44 -79.5t29 -77t43.5 -52l336 407q-8 10 -17 21.5 t-34 11.5q-16 0 -22.5 -5t-13.5 -12t-19 -17.5t-37 -22.5q-47 39 -98.5 63.5t-122.5 24.5q-39 0 -91.5 -12.5t-86.5 -10.5q0 72 -1 124t11 128q41 -4 113.5 -6t144.5 22.5t125 87t53 185.5q0 37 -6 62.5t-49 58.5q-10 -33 -2 -78t8 -87t-22.5 -71.5t-92.5 -29.5 q-31 0 -50 15t-31.5 36.5t-18.5 43t-6 32.5q0 45 17.5 73.5t12.5 79.5h-57q-371 -172 -594 -263t-254 -91q-4 0 -7 4t-11 6v23q16 27 41.5 68.5t87.5 115.5v43h-35q-223 -182 -351 -340t-193.5 -275.5t-82 -189.5t-16.5 -84q0 -190 59.5 -328.5t151.5 -234.5t202.5 -155.5 t215 -92.5t188.5 -44t121 -11q186 0 345 56t275.5 152.5t183 223.5t66.5 268z" />
<glyph unicode="F" horiz-adv-x="2011" d="M733 113h-438q72 51 111.5 65.5t93.5 14.5q109 0 165 -33t68 -47zM1794 -100q0 -94 -63.5 -175t-171 -139.5t-249 -92.5t-298.5 -34q-68 0 -153 11.5t-164 26t-140 28.5t-82 22q-35 12 -86 42t-97 69t-78 85t-32 91q0 4 8.5 37t44 71t110.5 68.5t210 30.5q6 0 55 -2 t111.5 -7t122 -13.5t86.5 -18.5q-18 -53 -5 -118.5t44.5 -122t77 -94.5t92.5 -38q12 0 16 4t14 4v33q-16 4 -51 21.5t-69.5 47.5t-61.5 73t-27 96q0 23 14.5 45t31.5 33q172 0 300 51t181 151q184 -39 246.5 -109.5t62.5 -176.5zM1411 170q-70 -63 -127 -81.5t-102 -33.5 q-41 0 -49.5 -1t-10.5 -1t-12 2t-59 8q84 59 119.5 82t54 29t32 5t48.5 14h106v-23zM1473 731q-4 -96 0 -167.5t-7 -168.5q-8 -80 -18 -110.5t-29.5 -38.5t-55.5 -8t-99 -15q-82 -20 -133.5 -44.5t-81 -46t-44 -35t-20.5 -13.5q-8 0 -51 20.5t-90 57.5q133 76 199.5 131 t94 100t30.5 89t8.5 97.5t27 124t86.5 168.5l152 9q20 -27 27.5 -45.5t7.5 -34t-3 -31.5t-1 -39zM870 967q0 -10 -9 -16.5t-17 -12.5h-47t-131 8q10 20 15 26.5t24 20.5h159q4 0 5 -11t1 -15zM1075 1448q-10 -53 -21.5 -102.5t-11.5 -92.5q0 -115 2.5 -207t4.5 -181t3 -182 t-1 -206q-2 -125 -144 -201q16 27 44 84.5t30 106.5q6 111 1 191.5t-13 191.5q-6 88 -12.5 162.5t2 144.5t35 140.5t81.5 150.5zM1505 987q-12 -27 -19 -38t-16.5 -15t-23.5 -3t-41 1q-33 0 -49.5 2t-27.5 3t-22.5 1t-33.5 -2q2 8 5 21.5t9 35.5q82 0 149.5 -3t69.5 -3z M1473 1325l-7 -195q-27 -4 -44 -5t-36 -1q-47 0 -70.5 5.5t-33.5 13.5t-10 20.5v26.5q0 25 3 83t12 122.5t28.5 123t52.5 80.5q0 -49 16.5 -78.5t37 -56t37 -57.5t14.5 -82zM1767 1382q-8 -2 -24.5 -5t-38.5 -9q-39 0 -84 22.5t-85 57.5t-66.5 75t-26.5 74q0 37 20.5 46.5 t50.5 23.5q33 -72 37 -103.5t17.5 -53t54.5 -46.5t145 -82zM1970 1491q0 27 -12 37t-31 24q-14 -25 -18 -47t-41 -22q-80 0 -108.5 48t-31 106.5t9 107.5t11.5 51q-90 -12 -213 -56t-239.5 -100.5t-211 -117t-127.5 -105.5q-47 -66 -53 -117t-6 -88.5t-10 -60.5t-64 -27 q-43 -2 -90 -12t-86 -32.5t-64.5 -63.5t-25.5 -105q0 -2 13.5 -10t17.5 -12h293q2 -4 4 -29.5t4 -60.5t2 -73v-67v-123.5t-9.5 -139t-35 -113.5t-76.5 -47q-14 0 -35.5 19t-58.5 44t-95.5 44t-146.5 19q-84 0 -156.5 -29.5t-126 -78.5t-83 -113.5t-29.5 -134.5 q0 -156 94 -270.5t245.5 -190t341 -112.5t378.5 -37q197 0 341 52t240.5 133t143.5 179.5t47 188.5q0 94 -60.5 146t-131 83t-130 48.5t-59.5 43.5q0 6 4 31t7 54.5t7 55t4 33.5v422q0 18 18.5 57.5t40 79t39 71.5t17.5 36t-17.5 0t-40 1t-40 25.5t-17.5 73.5q0 39 4.5 73 t18.5 77q70 -20 94.5 -33.5t59.5 -13.5q59 0 110 18.5t89 46t59.5 58t21.5 55.5z" />
<glyph unicode="G" horiz-adv-x="1994" d="M582 143q-47 20 -126 61.5t-154 112t-128 177t-53 260.5q0 104 25.5 195t57.5 160t61.5 113t39.5 54q-8 -8 -25.5 -58.5t-36 -114t-30.5 -127t-12 -99.5q0 -121 23.5 -217.5t69.5 -181.5t118 -165t170 -170zM1473 395q0 -111 -10.5 -163t-35 -75.5t-66.5 -31.5t-108 -31 q-14 31 -16 91.5t-2 123.5q0 37 3 69t15.5 54.5t40 35.5t76.5 13q68 0 85.5 -22.5t17.5 -63.5zM1165 991l-2 -923h-131q-152 41 -263.5 111.5t-185 178t-109.5 258t-36 353.5q0 135 11.5 209.5t39 114.5t72.5 58.5t115 39.5l20 -635q0 -92 -17 -152.5t-36.5 -97.5t-37 -54.5 t-17.5 -21.5q0 -33 72.5 -27.5t159.5 39t160 92t73 134.5v178q0 41 1 55t12 23.5t33.5 20.5t65.5 46zM836 659q0 -20 -31 -69t-90 -92q16 33 23 66.5t7 86.5q0 90 -3 163t-4 142.5t-2 141t1 159.5q0 45 -1 77t4 53.5t22.5 34t56.5 22.5q2 -113 6 -207t8.5 -184t5.5 -184.5 t-3 -209.5zM1477 522q-117 8 -164 4t-74 -4q0 66 5 97.5t8 49t1 29t-14 35.5h238q2 -57 2 -91v-55.5t-1 -35t-1 -29.5zM1692 659q0 -8 -1 -62t-15.5 -121.5t-46.5 -131t-93 -90.5l20 723l25 6q47 -57 69.5 -97t32 -74t9.5 -69v-84zM1501 1004q0 -100 -21.5 -169t-113.5 -69 q-61 0 -87 46t-26 97q0 74 39 121t85 62.5t85 -6t39 -82.5zM1518 1440q-4 -4 -42 -53.5t-100.5 -115t-145.5 -137t-177 -120.5v528q14 14 20 23q6 0 49 -32t106.5 -62.5t140.5 -46t149 15.5zM1495 1493q-27 -2 -44 -5t-30 -3q-20 0 -63 13t-86 34.5t-75 46.5t-32 49 q0 12 26 30.5t44 29.5q18 -59 40.5 -93t53.5 -53.5t72 -29t94 -19.5zM1954 653q0 104 -38 179t-97.5 126.5t-130 85t-136 55t-116 36t-68.5 28.5q123 139 194.5 241.5t108.5 176.5t48.5 124t13.5 89q0 23 -7.5 35t-52.5 6v-66.5t-11 -61.5t-38 -46.5t-78 -18.5 q-84 8 -107.5 63.5t-25.5 145.5q-23 -6 -77 -40.5t-127.5 -84t-162 -104.5t-177.5 -101t-174 -77t-154 -31q-8 0 -11.5 3t-11.5 5v23q70 129 119 194.5t49 67.5q0 29 -41 2t-92 -72t-97 -90t-55 -53q-55 -59 -113.5 -124.5t-86.5 -111.5q-47 -74 -78 -149.5t-49.5 -140 t-25.5 -113.5t-7 -72q-2 -160 56.5 -302t180 -248.5t310 -169t446.5 -62.5q166 0 331 37t296 116.5t212 203.5t81 296z" />
<glyph unicode="H" horiz-adv-x="2607" d="M1821 -371q0 -51 -48.5 -84.5t-127 -53t-182 -28t-216.5 -8.5q-305 0 -522 86t-358 209q23 12 85 28.5t133.5 31t135 24.5t88.5 10q53 0 97 1t86 1h87t101 -2q68 -2 177 -16t211.5 -41t177.5 -67t75 -91zM1628 121q0 -14 -26.5 -41t-36.5 -31q-98 76 -240.5 115 t-274.5 54t-227.5 16.5t-99.5 1.5q61 8 108.5 12t122.5 4q94 0 173 -9.5t173 -25.5q147 -27 237.5 -56.5t90.5 -39.5zM1079 786q-72 0 -125 7.5t-127 -7.5q29 14 69 26.5t97 12.5q25 0 35 1t15.5 0t11.5 -5t24 -12v-23zM1061 1026q-4 0 -56.5 8t-129 7t-163.5 -18t-157 -69 q12 8 41 31t74 46.5t106.5 42t136.5 18.5q8 0 32 -5.5t50.5 -11.5t46.5 -10l19 -4v-35zM1901 539q0 -47 -17.5 -78t-40 -55.5t-45 -47t-33.5 -51.5q-33 2 -37 2t-24 6v242q0 33 23.5 45t76.5 12q70 0 83.5 -9t13.5 -66zM1300 1569q-10 -78 -18 -120t-13 -65.5t-8.5 -43 t-4.5 -53.5t-1 -93v-168q0 -143 -2 -232t-13 -140.5t-34.5 -75t-68.5 -35.5q6 23 17 65.5t18.5 116.5t5.5 186.5t-23 276.5q-8 72 -2 124t26.5 95t51 81t69.5 81zM1901 672q-23 2 -39.5 4t-37 3t-46 0t-66.5 -7q-4 25 -2 47t2 49q94 0 140 3t49 3v-102zM838 1405 q-92 27 -130 49.5t-51.5 47t-15.5 53t-20 67.5v68q66 -12 91 -46t39.5 -76t29 -86t57.5 -77zM2259 123q0 -10 -17.5 -36t-27.5 -38q-10 8 -51 55.5t-85 102.5t-79 105t-35 69v186q0 104 12.5 184t12.5 142.5t-25 109t-96 80.5q14 10 25.5 19.5t31.5 38.5q90 -53 121 -109.5 t31 -130.5t-15.5 -173t-15.5 -239q0 -70 34 -131t73.5 -109t72.5 -81t33 -45zM1919 866q0 -20 -37 -30.5t-59 -10.5q-78 0 -100.5 26t-22.5 54q0 20 32.5 42t88.5 87q98 -47 98 -168zM1868 1489q0 -47 -10.5 -70.5t-31 -38t-49 -27t-65.5 -36.5q-8 29 -10 65.5t-2 114.5 q0 14 2 51t4 80t6 81t10 52q39 -12 68 -41.5t45 -67.5t24.5 -81t8.5 -82zM2028 1569q0 -53 -27 -78t-70 -51q2 25 -2 66.5t-14 87.5t-28.5 89t-47.5 72q66 -14 127.5 -57t61.5 -129zM2566 459l-24 16h-31q-53 -82 -83 -120t-65 -48q-47 61 -64.5 90t-17.5 39v164l19 387 q10 27 35.5 55.5t50 56t39 53.5t2.5 46q-61 -47 -80.5 -81t-46.5 -34t-61.5 34t-64.5 77t-50.5 82t-20.5 49h-57l-356 -313v223q145 84 270 163t229.5 143.5t185.5 110.5t136 62q0 14 -3 21.5t-5 11.5h-54q-18 -16 -48.5 -35.5t-60.5 -36t-53.5 -29t-27.5 -12.5 q-45 43 -85 81t-89 66.5t-118 45t-173 16.5q-147 0 -273 -57t-222.5 -146.5t-156 -198t-73.5 -210.5h-70q-74 14 -183 -4.5t-209.5 -63.5t-173.5 -113.5t-73 -154.5q0 -49 31 -108.5t80 -109.5t112.5 -84t131.5 -34q37 0 51 1t25.5 2t30 4t61.5 7q-2 18 -32 23.5t-72 7.5 t-92 6t-92 19.5t-69.5 47.5t-27.5 91q0 55 50 98t118.5 72t140.5 43t113 14q51 0 86.5 -6t72.5 -28v-37q-39 0 -109.5 3t-140 -11.5t-120 -54.5t-50.5 -124q0 -25 26 -52.5t73 -37.5q29 43 61.5 74t108.5 31q72 0 119 -17.5t47 -40.5q0 -76 -45 -124t-105 -109l23 -17h63 q184 61 279.5 104.5t135.5 98.5t43 137t3 220q0 76 2 137t4 119.5t4 120t2 139.5q0 45 6.5 88t19.5 75.5t37.5 53t61.5 20.5q10 0 16.5 -4t14.5 -6l-41 -1409q-12 0 -22.5 -1t-22.5 -1q-45 0 -89 13t-102.5 29.5t-140.5 30t-203 13.5q-197 0 -350 -52.5t-259.5 -127 t-163 -160.5t-56.5 -154q0 -45 19.5 -80.5t13.5 -48.5q0 -4 -32 -24.5t-70 -50t-68.5 -66.5t-30.5 -76t22.5 -66.5t60.5 -46t87 -26.5t100 -8q23 0 36 -2t23.5 -1t21.5 6t30 19q-10 2 -64.5 0t-116 4.5t-110.5 26.5t-49 66q0 18 25.5 48.5t60.5 60.5t69.5 50.5t55.5 20.5 q96 0 208.5 -53.5t233.5 -119t250 -118.5t258 -53q125 0 246 11t217 40t154.5 77t58.5 122q0 55 -52 95t-119 66.5t-130.5 42t-85.5 19.5q-74 14 -220.5 48t-367.5 34q-131 0 -236.5 -16.5t-186.5 -36t-137 -38t-89 -24.5q-14 23 -17.5 29t-3.5 28q0 53 46.5 103.5t125 89.5 t182 62.5t216.5 23.5q160 0 294 -30t231 -64.5t153.5 -64.5t60.5 -30q31 0 64.5 48.5t72.5 112t84 125t97 87.5q10 -23 55 -84t97 -127.5t99.5 -118t59.5 -51.5q45 0 66.5 44t50.5 93q37 59 59 97.5t46 72t53.5 74.5t78.5 109zM1145 1665q0 51 -3 71.5t-48 41.5 q0 -119 -7.5 -190.5t-80.5 -108.5q-20 31 -29.5 52t-9.5 23q0 92 -38 145.5t-83 82t-84 37t-41 8.5q-109 -6 -180.5 -25.5t-115.5 -54.5t-67.5 -81t-35.5 -103q0 -78 46 -135.5t105 -94.5t114.5 -54t71.5 -17q10 0 15.5 3t19.5 3v24q-125 23 -210 82.5t-85 188.5 q0 41 32 71.5t67 30.5q27 0 40 -11.5t18 -28.5t6 -38.5t5 -44.5q12 -76 69.5 -129t201.5 -53q152 0 229.5 81t77.5 224z" />
<glyph unicode="I" horiz-adv-x="1798" d="M653 88q-160 10 -236.5 4t-117.5 -22.5t-71.5 -42t-100.5 -54.5q20 88 104 137.5t181 49.5q18 0 78.5 -12.5t162.5 -59.5zM862 711q-25 -2 -63.5 0t-77.5 2t-69.5 -7.5t-39.5 -25.5q12 31 46 46t73 20.5t76 5.5h55v-41zM854 977q-66 -2 -110 -1t-85 -2t-91 -12.5 t-128 -33.5q86 51 139.5 68.5t93.5 20.5t77.5 1t93.5 8zM1040 1300q-6 -16 -23.5 -54t-17.5 -60q-2 -109 1.5 -196t6.5 -171t6 -171t-1 -195q-2 -63 -10.5 -100.5t-20.5 -61t-28.5 -37.5t-34.5 -31v860q0 10 4 35t17 55.5t36.5 63t64.5 63.5zM1335 217q0 -49 -36.5 -81 t-90 -50t-112 -26.5t-103.5 -8.5q-39 0 -62.5 5t-37.5 11.5t-24.5 12.5t-24.5 8h28v41q49 -27 73 -22.5t-19 30.5q88 16 150.5 55t101.5 87.5t57 100.5t18 95v204t-1 178t-3 177t-6 201q-2 35 -2 58.5t6 42t24.5 33.5t53.5 36q2 -174 6 -315.5t7 -277.5t3 -278.5t-6 -316.5z M1460 346q0 -27 -5 -67.5t-56 -100.5q-2 186 -4 339t-4 298.5t-2 298t4 340.5q0 33 24.5 70t42.5 53v-1231zM1032 1454h-61q-90 55 -130 101.5t-57.5 84t-25.5 67.5t-35 52h45q47 -33 70.5 -62.5t46 -63.5t53.5 -77t94 -102zM834 623h-35h35zM1757 1802h-35 q-92 -41 -148 -69.5t-94 -59.5t-68 -71.5t-66 -104.5q-10 -18 -60.5 -33.5t-118 -39t-139.5 -61.5t-127 -101q-2 -4 -8 -18.5t-14.5 -33t-17.5 -34t-17 -21.5q-16 -8 -39 -7t-52.5 1t-67.5 -4t-85 -21q-164 -61 -251 -152t-87 -224q0 -72 28.5 -127.5t78 -97.5t114 -72.5 t138.5 -55.5h84q-10 8 -71 26.5t-128.5 52.5t-121.5 84t-54 122q0 53 34.5 98t92 80t131.5 54.5t151 19.5q78 0 105.5 -6t27.5 -49q0 -8 -5 -10.5t-5 -12.5q-63 -6 -129.5 -14.5t-121 -24.5t-89.5 -46t-35 -79q0 -31 18.5 -60.5t46.5 -52t58.5 -37t55.5 -14.5q29 0 25.5 7.5 t-19 17.5t-33.5 22.5t-18 20.5q0 20 31.5 33.5t70.5 21.5t73.5 12.5t39.5 4.5q4 0 25.5 -21.5t21.5 -62.5v-342q-66 -39 -83.5 -72t-31.5 -53q-33 16 -64.5 57t-72.5 82t-99.5 72.5t-146.5 31.5t-152.5 -31.5t-107.5 -82.5t-63.5 -113.5t-20.5 -122.5q0 -96 55.5 -192.5 t153.5 -174t232 -127t294 -49.5q184 0 345 24t281 69t189.5 110.5t69.5 151.5q0 66 -56.5 111.5t-111.5 45.5q-25 0 -26 -9t-11 -25q57 -25 109.5 -48.5t52.5 -84.5q0 -72 -77 -128.5t-190.5 -94.5t-243.5 -58.5t-235 -20.5q-227 0 -368.5 51.5t-218 115t-103 118.5 t-26.5 64q0 37 38.5 72.5t91 62t105.5 43t80 16.5q29 0 95.5 -9t145.5 -20.5t156.5 -20.5t130.5 -9q147 0 270.5 39t213.5 110.5t142 173t56 226.5q4 143 5.5 262t-1 231.5t-5.5 231t-7 262.5q-2 86 -2 117.5t8.5 47t26.5 33t51 76.5zM1272 1679q0 45 -10.5 70t-18.5 53h-31 q-4 -29 5.5 -74t12.5 -88t-8.5 -73.5t-54.5 -30.5q-57 0 -77.5 48t-49 105.5t-89 105.5t-197.5 48q-98 0 -174 -25.5t-127.5 -64.5t-78 -87t-26.5 -93q0 -33 22.5 -85t70.5 -100.5t120 -83t170 -34.5q35 0 53.5 -1t31.5 2t26.5 11t40.5 29q-31 12 -72 4t-92 -7t-112.5 24.5 t-133.5 97.5q-27 27 -50.5 75.5t-23.5 67.5q0 25 14.5 55.5t38 57t53.5 45t62 18.5q72 0 102.5 -52t62.5 -114.5t85 -115t168 -52.5q133 0 210 69.5t77 194.5z" />
<glyph unicode="J" horiz-adv-x="1798" d="M653 88q-160 10 -236.5 4t-117.5 -22.5t-71.5 -42t-100.5 -54.5q20 88 104 137.5t181 49.5q18 0 78.5 -12.5t162.5 -59.5zM862 711q-25 -2 -63.5 0t-77.5 2t-69.5 -7.5t-39.5 -25.5q12 31 46 46t73 20.5t76 5.5h55v-41zM854 977q-66 -2 -110 -1t-85 -2t-91 -12.5 t-128 -33.5q86 51 139.5 68.5t93.5 20.5t77.5 1t93.5 8zM1040 1300q-6 -16 -23.5 -54t-17.5 -60q-2 -109 1.5 -196t6.5 -171t6 -171t-1 -195q-2 -63 -10.5 -100.5t-20.5 -61t-28.5 -37.5t-34.5 -31v860q0 10 4 35t17 55.5t36.5 63t64.5 63.5zM1335 217q0 -49 -36.5 -81 t-90 -50t-112 -26.5t-103.5 -8.5q-39 0 -62.5 5t-37.5 11.5t-24.5 12.5t-24.5 8h28v41q49 -27 73 -22.5t-19 30.5q88 16 150.5 55t101.5 87.5t57 100.5t18 95v204t-1 178t-3 177t-6 201q-2 35 -2 58.5t6 42t24.5 33.5t53.5 36q2 -174 6 -315.5t7 -277.5t3 -278.5t-6 -316.5z M1460 346q0 -27 -5 -67.5t-56 -100.5q-2 186 -4 339t-4 298.5t-2 298t4 340.5q0 33 24.5 70t42.5 53v-1231zM1032 1454h-61q-90 55 -130 101.5t-57.5 84t-25.5 67.5t-35 52h45q47 -33 70.5 -62.5t46 -63.5t53.5 -77t94 -102zM834 623h-35h35zM1757 1802h-35 q-92 -41 -148 -69.5t-94 -59.5t-68 -71.5t-66 -104.5q-10 -18 -60.5 -33.5t-118 -39t-139.5 -61.5t-127 -101q-2 -4 -8 -18.5t-14.5 -33t-17.5 -34t-17 -21.5q-16 -8 -39 -7t-52.5 1t-67.5 -4t-85 -21q-164 -61 -251 -152t-87 -224q0 -72 28.5 -127.5t78 -97.5t114 -72.5 t138.5 -55.5h84q-10 8 -71 26.5t-128.5 52.5t-121.5 84t-54 122q0 53 34.5 98t92 80t131.5 54.5t151 19.5q78 0 105.5 -6t27.5 -49q0 -8 -5 -10.5t-5 -12.5q-63 -6 -129.5 -14.5t-121 -24.5t-89.5 -46t-35 -79q0 -31 18.5 -60.5t46.5 -52t58.5 -37t55.5 -14.5q29 0 25.5 7.5 t-19 17.5t-33.5 22.5t-18 20.5q0 20 31.5 33.5t70.5 21.5t73.5 12.5t39.5 4.5q4 0 25.5 -21.5t21.5 -62.5v-342q-66 -39 -83.5 -72t-31.5 -53q-33 16 -64.5 57t-72.5 82t-99.5 72.5t-146.5 31.5t-152.5 -31.5t-107.5 -82.5t-63.5 -113.5t-20.5 -122.5q0 -96 55.5 -192.5 t153.5 -174t232 -127t294 -49.5q184 0 345 24t281 69t189.5 110.5t69.5 151.5q0 66 -56.5 111.5t-111.5 45.5q-25 0 -26 -9t-11 -25q57 -25 109.5 -48.5t52.5 -84.5q0 -72 -77 -128.5t-190.5 -94.5t-243.5 -58.5t-235 -20.5q-227 0 -368.5 51.5t-218 115t-103 118.5 t-26.5 64q0 37 38.5 72.5t91 62t105.5 43t80 16.5q29 0 95.5 -9t145.5 -20.5t156.5 -20.5t130.5 -9q147 0 270.5 39t213.5 110.5t142 173t56 226.5q4 143 5.5 262t-1 231.5t-5.5 231t-7 262.5q-2 86 -2 117.5t8.5 47t26.5 33t51 76.5zM1272 1679q0 45 -10.5 70t-18.5 53h-31 q-4 -29 5.5 -74t12.5 -88t-8.5 -73.5t-54.5 -30.5q-57 0 -77.5 48t-49 105.5t-89 105.5t-197.5 48q-98 0 -174 -25.5t-127.5 -64.5t-78 -87t-26.5 -93q0 -33 22.5 -85t70.5 -100.5t120 -83t170 -34.5q35 0 53.5 -1t31.5 2t26.5 11t40.5 29q-31 12 -72 4t-92 -7t-112.5 24.5 t-133.5 97.5q-27 27 -50.5 75.5t-23.5 67.5q0 25 14.5 55.5t38 57t53.5 45t62 18.5q72 0 102.5 -52t62.5 -114.5t85 -115t168 -52.5q133 0 210 69.5t77 194.5z" />
<glyph unicode="K" horiz-adv-x="2377" d="M1323 86q0 -16 -13.5 -25.5t-27.5 -21.5q-41 23 -109.5 51.5t-143.5 55t-142.5 44t-106.5 17.5h-278q61 16 133 24.5t147 8.5q8 0 51.5 -6.5t103.5 -16.5t128 -25.5t125 -32t95 -36t38 -37.5zM874 709q-2 -8 -45 -10.5t-96 -1.5t-102 3t-64 2q2 2 25.5 8.5t52.5 13.5 t54.5 13t27.5 6q6 0 29.5 -5t50.5 -12t37 -10zM874 952q-31 6 -108.5 10.5t-159.5 1.5t-144.5 -14.5t-62.5 -36.5q0 20 52.5 39t118 31t123 19.5t67.5 7.5q35 0 60.5 -6.5t53.5 -18.5v-33zM1022 1391q-6 -115 -4 -199t-6 -199q-8 -88 -7 -166.5t-2.5 -140t-16.5 -103.5 t-50 -61v162v143.5t2 142t8 160.5q6 80 19.5 140t56.5 121zM1692 666q0 -68 -13.5 -116t-37 -88t-58.5 -75t-80 -74v566l43 10q61 -33 92 -54.5t42.5 -43t11.5 -50v-75.5zM2032 115q0 -20 -13.5 -32.5t-27.5 -29.5q-109 84 -160 156t-67.5 136.5t-9.5 124.5t15.5 119.5 t6.5 121t-37 131.5q59 -37 80.5 -84t24.5 -100.5t-5 -112t-8 -117.5q0 -72 30.5 -126t69.5 -92t70 -61.5t31 -33.5zM715 1333q-14 -2 -25.5 -5t-23.5 -3q-61 0 -95 23.5t-53.5 60.5t-31 80t-27 84t-42 72.5t-77.5 44.5q10 6 26.5 16t28.5 10q68 0 90.5 -50t41 -114.5 t54.5 -128t134 -90.5zM1452 1229v-174.5t-13.5 -101.5t-46 -60.5t-100.5 -50.5q-31 72 -24.5 168t14.5 178q8 92 12 148.5t7.5 91t7.5 58t14 48.5q45 -20 70.5 -55t39 -77t16.5 -87t3 -86zM1894 1348q-6 -18 -48 -69.5t-99 -111t-119.5 -114t-109.5 -74.5q0 4 4 54t6 112.5 t1 122t-11 80.5h376zM1769 1405q-10 0 -32.5 2t-40.5 2q-29 0 -96.5 23.5t-116.5 57.5t-50 68.5t103 57.5q4 -47 30.5 -84t62.5 -63.5t73.5 -43t66.5 -20.5zM2337 436q0 29 -22.5 15.5t-52.5 -42t-59.5 -59.5t-43.5 -37q-55 35 -73 72t-22 82t-6 98t-26 119 q-20 59 -64.5 103t-101 78t-123 59.5t-133.5 46.5q27 25 105.5 86t162.5 154.5t148.5 216t64.5 270.5q0 20 -2 52t-39 32q-29 0 -33 -48t-8 -105.5t-19.5 -104.5t-64.5 -47q-80 0 -112.5 44t-39 97t1 99t3.5 52q-193 -53 -354.5 -117.5t-279.5 -133t-184.5 -135 t-66.5 -123.5q0 -47 3 -82t-22 -48q-2 -2 -29.5 2.5t-73.5 6.5t-108.5 -3.5t-136.5 -27.5q-117 -35 -186.5 -85t-106 -101.5t-48 -94.5t-11.5 -63q0 -70 35 -126t92 -96t132 -61.5t153 -21.5q20 0 41.5 1t56.5 5v35q-18 4 -86 7t-142.5 19.5t-135 50t-60.5 95.5 q0 61 54.5 108t130 79t155.5 48.5t133 16.5q61 0 109.5 -28t48.5 -36q0 -6 -4 -9t-4 -9q-74 0 -158 -7.5t-153.5 -28t-115.5 -58t-46 -99.5q0 -43 31.5 -68.5t95.5 -50.5h63v27q-33 16 -37 18.5t-26 22.5q27 16 77 38.5t113 22.5q18 0 44 -4t49.5 -14t38.5 -26.5t15 -41.5 q0 -45 -18 -68.5t-39.5 -34.5t-40 -15t-18.5 -15q0 -10 4 -11t6 -9h76q115 33 225.5 65.5t165.5 85.5q18 18 26.5 64.5t23.5 94.5t50 84t107 36q6 0 10 -4t8 -4q-2 -106 -1 -184t-7 -181q-4 -78 -4 -129t-35 -76q-43 25 -110.5 46.5t-141.5 36t-146.5 22.5t-123.5 8 q-147 0 -298 -41t-273.5 -107.5t-200.5 -150.5t-78 -168q0 -141 109.5 -235.5t272.5 -152.5t350.5 -83t344.5 -25q154 0 299.5 28t258 76t181 111.5t68.5 133.5q0 72 -48 126t-108.5 91t-116 56t-71.5 19q-47 0 -38 -28.5t48 -28.5q27 0 75 -16.5t93 -47t79 -72.5t34 -93 q0 -84 -75 -138.5t-183.5 -86t-228 -44t-211.5 -12.5q-301 0 -510 42t-338 103.5t-186.5 131t-57.5 125.5q0 70 50 119t128 79.5t172 44t182 13.5q143 0 257 -31t198 -67t140.5 -65.5t88.5 -29.5q33 0 53.5 38t34.5 54q125 154 183.5 209t83 49t33 -57t35 -109.5t88 -105.5 t190.5 -47q12 0 38.5 28.5t55.5 64.5t51.5 69.5t24.5 46.5q23 43 51.5 82t54 70.5t44 53t18.5 29.5zM977 1567q0 59 -17.5 110.5t-85.5 75.5q2 -12 15.5 -67.5t16.5 -117t-18.5 -110.5t-88.5 -49q-43 0 -54.5 58.5t-32 128t-72.5 128t-177 58.5q-45 0 -102.5 -23.5 t-107.5 -63.5t-84 -94.5t-34 -113.5q0 -66 20.5 -124t67.5 -102t121 -70t182 -26q57 0 125 23v22q-78 8 -159.5 17.5t-148.5 33t-110 67.5t-43 120q0 88 40 137t83 49q35 0 53.5 -26.5t32 -66.5t27.5 -88t42 -88t75 -66.5t125 -26.5q53 0 107 23.5t98.5 63.5t74 93.5 t29.5 114.5z" />
<glyph unicode="L" horiz-adv-x="2164" d="M1733 -367q0 -68 -85 -116.5t-205 -80.5t-249 -47.5t-221 -15.5q-133 0 -279.5 28t-268.5 80t-202 128t-80 172q0 80 35 126t90.5 70.5t124 35t133.5 16.5l940 -68q-6 -27 -8 -42t-6 -38h-91.5t-158.5 -2t-189.5 -12t-182 -31.5t-137 -59.5t-54.5 -95q0 -66 78 -103 t198 -37q117 0 206 40t157 87t118 87t87 40q45 0 90 -14t81 -38t57.5 -52.5t21.5 -57.5zM1366 -201q-23 -25 -77 -59.5t-121.5 -66t-139.5 -54t-129 -22.5q-43 0 -78 13t-35 32q0 31 47.5 61.5t115 54t144 38t136.5 14.5q33 0 68.5 -5.5t68.5 -5.5zM1724 76 q-90 -39 -174 -43t-143 0l-1016 51q33 8 55.5 13t48 9.5t63.5 6.5t99 2q113 0 227.5 -12.5t242.5 -23.5t274.5 -15t322.5 12zM829 987q-45 -20 -102 -10t-149 10q-90 0 -164 -19.5t-117 -43.5q10 6 41 22.5t69.5 31.5t81.5 27.5t80 12.5h260v-31zM1020 1511 q-8 -37 -19.5 -60.5t-11.5 -59.5v-764q0 -33 -13 -73t-28.5 -65.5t-29 -26.5t-13.5 40v760q0 29 5 50t17.5 46.5t35 60.5t57.5 92zM516 1368q-6 0 -8 -4t-10 -4q-49 0 -78 38t-51.5 90t-43 108.5t-51.5 93.5h84q45 -35 56.5 -76t17.5 -84t20.5 -85t63.5 -77zM1825 1446 q0 -31 -7.5 -46.5t-18.5 -24.5t-25.5 -18t-28.5 -32q6 59 10 93t3 62.5t-13 60.5t-39 83q51 -41 85 -81t34 -97zM829 752q-35 4 -57 7t-43.5 4t-46.5 -2t-61 -9q76 0 126.5 -5t81.5 5zM2124 598q0 18 -12.5 47t-38.5 29q-20 0 -17.5 -14.5t5.5 -44t-4 -75.5t-50 -110 q-49 -72 -112.5 -108.5t-196.5 -36.5q-47 0 -82 8v41q14 25 22.5 61.5t17.5 81.5t24.5 94.5t43.5 100.5q57 98 132 177t176 167q0 8 -7.5 11t-7.5 9h-28q-63 -37 -121 -92t-102 -110.5t-74.5 -103.5t-40.5 -73q-33 -74 -47.5 -139t-25.5 -115.5t-28.5 -80t-56.5 -29.5 q-27 0 -45 14.5t-18 32.5v1366h53q119 -66 163 -131.5t44 -134.5q0 -66 -31 -115t-68 -84t-67.5 -56.5t-30.5 -31.5q0 -14 5 -20.5t5 -8.5h43q133 104 235.5 168t174.5 105t113.5 65.5t54.5 48.5q-100 49 -174 99.5t-140.5 92.5t-134 67.5t-153.5 25.5q-113 0 -234 -42 t-220 -116.5t-163.5 -179t-64.5 -227.5q0 -49 -35 -62.5t-93.5 -16.5t-133 -6t-156.5 -30q-63 -23 -121.5 -52.5t-102.5 -69.5t-70 -91t-26 -117q0 -76 31 -134t83 -98t121 -60.5t146 -20.5q25 0 64 4t74.5 12.5t60.5 21.5t25 30q0 16 -9.5 16t-33 -6t-64.5 -14.5t-106 -8.5 q-121 0 -203 50.5t-82 109.5q0 47 35 93t92 82t131 57.5t154 21.5q102 0 164.5 -24.5t62.5 -38.5t-19.5 -15.5t-55.5 1.5t-85 3t-108 -10q-14 -2 -50 -15.5t-73 -35t-64.5 -50t-27.5 -63.5q0 -39 48 -80t113 -41q18 0 27.5 4.5t26.5 6.5v22q-33 8 -46.5 8h-21.5t-16.5 6.5 t-30.5 28.5q14 8 72.5 33t136.5 25q61 0 97 -6.5t52.5 -19.5t20.5 -32.5t4 -46.5q0 -78 -19.5 -114.5t-44 -53t-44 -22.5t-19.5 -19q0 -16 29.5 -25.5t44.5 -9.5q49 0 125.5 20.5t148.5 59.5t126 96.5t56 129.5q4 123 3 224t-4 196.5t-5 195.5t-2 223q0 49 14.5 88t35 68 t40 43t29.5 14t14 -5t13 -5v-1405h-103q-221 47 -440 35t-393 -76.5t-283 -178.5t-109 -269q0 -117 76 -208t200 -154.5t279.5 -97.5t315.5 -34q137 0 287.5 13.5t275.5 48t207 95t82 156.5q0 76 -43 115t-93.5 59.5t-93.5 31.5t-43 30q0 68 48.5 93.5t118 44t148.5 46 t140 96.5q51 57 83 125t48.5 131.5t21.5 115.5t5 79zM887 1538q0 115 -39 179.5t-62 64.5q-6 0 -13 -4t-15 -4v-58q10 -16 23.5 -45t23.5 -57.5t17 -51t7 -24.5q0 -12 -11 -32.5t-28.5 -40t-37 -34t-31.5 -14.5q-55 0 -63.5 31t-24.5 82q-14 39 -22.5 86t-33 87t-74.5 66.5 t-147 26.5q-43 0 -97 -20.5t-102 -54t-82 -75.5t-34 -87q0 -63 19.5 -129t68.5 -120.5t135 -89t219 -34.5q14 0 42 -2t58.5 1t61.5 14t49 38q-35 14 -69.5 6t-78.5 -16t-103.5 -7t-145.5 33q-55 20 -94 56.5t-62.5 77t-35 82.5t-11.5 79q0 18 12.5 39t31 39.5t38 29.5 t33.5 11q55 0 72.5 -54t38 -121t68.5 -121t165 -54q82 0 144.5 22.5t104.5 56.5t63.5 71.5t21.5 70.5z" />
<glyph unicode="M" horiz-adv-x="3158" d="M821 96q-35 10 -78 18.5t-86 8.5q-4 0 -37.5 -5t-80.5 -21.5t-101.5 -47.5t-99.5 -82q37 80 104.5 145.5t169.5 65.5q6 0 30 -4t54.5 -13t64 -25.5t60.5 -39.5zM1575 -121q0 -49 -32 -99t-60 -95q-25 27 -35 47t-10 49q0 27 26.5 77t67.5 87q41 -18 42 -25.5t1 -40.5z M1020 694h-98.5t-100.5 -24q51 41 78 55t72 14q14 0 27.5 -5t21.5 -7v-33zM1008 995q-98 -4 -144.5 -4t-76 -5t-61.5 -18.5t-99 -43.5q61 39 105 58t120 52h156v-39zM1153 438q-2 -55 -10 -84.5t-21.5 -46t-29 -26t-33.5 -23.5q6 27 15 42t9 38q2 123 -1 222t-6 194.5 t-5 195t2 221.5q2 33 19.5 80t54.5 90q2 -133 4 -240.5t4 -211t2 -212t-4 -239.5zM674 1204q-35 -14 -47.5 -17t-44.5 -3q-23 0 -51.5 14t-67.5 31q37 20 57.5 22t42.5 2q23 0 35 -1t22.5 -2t21.5 -3t32 -4v-39zM1511 469q0 -53 -14 -126t-49 -137.5t-93.5 -109.5 t-146.5 -45q-78 0 -141 37t-123 90q164 0 262.5 43t151.5 117t69.5 171t14.5 203.5t-12.5 217t-10.5 211.5v289q0 8 14.5 38.5t32 55t31.5 28.5t14 -41v-1042zM821 1391h-35q-86 35 -112.5 83t-38.5 97t-32.5 93t-96.5 73q20 4 36.5 8t26.5 4q57 0 82 -26.5t42.5 -75 t42 -113.5t85.5 -143zM1743 971q0 -10 -4 -16.5t-8 -16.5q-45 0 -80 8q2 2 16 17.5t31.5 26.5t31 11.5t13.5 -30.5zM2130 166q0 -2 -17.5 -24.5t-23.5 -26.5q-31 25 -79 60.5t-94 79.5t-79 91t-33 92v934q0 55 -19.5 90t-48 63.5t-63.5 58.5t-65 73q10 10 23.5 20.5 t23.5 10.5q41 0 82 -23t72.5 -72t51 -126.5t17.5 -188.5q-2 -119 1 -215t7 -189.5t7 -189.5t-1 -215q-2 -76 35 -121t81 -75.5t83 -53t39 -53.5zM1743 1225q0 -20 -4 -34.5t-8 -35.5h-70q-6 -20 -28.5 -84.5t-65.5 -124.5l-15 645q100 -27 145.5 -118.5t45.5 -247.5z M2238 1018q-10 -35 -28 -64h-76q-4 12 -10 18.5t-6 16.5q0 14 19.5 18.5t37.5 10.5h63zM2406 608q-6 -47 -47 -95t-92 -118q-47 0 -86 50.5t-47 144.5q-8 90 -6 157.5t-10 141.5q76 12 111.5 17t50 9.5t14.5 13.5t5 30.5t22.5 61.5t66.5 107v35q-57 10 -111.5 5t-142.5 -5 q0 4 -8 37t-8 55q0 70 17 103t43 55.5t55.5 46t56.5 76.5h30q37 -37 53.5 -78t22.5 -67q4 -115 7 -209.5t5 -183.5t2 -183t-4 -207zM2750 164q0 -31 -10 -42t-22 -26q-6 4 -44 37t-81 78t-79 95t-38 89q-6 137 -5 249t4 217.5t3 217t-8 246.5q-4 84 -24.5 148.5 t-102.5 117.5q10 18 24.5 34.5t28.5 39.5q8 -4 35 -20.5t56.5 -53.5t53 -97t23.5 -153v-831q0 -109 28.5 -163t63.5 -82.5t64.5 -46t29.5 -54.5zM1176 1671q0 33 -5.5 58.5t-23.5 56.5q-18 -4 -20.5 -28.5t2 -49.5t11.5 -42t7 -9q-2 -39 -22.5 -58.5t-20.5 -44.5 q0 -43 -33 -57t-59 -14q-37 0 -55.5 25.5t-32 65.5t-28.5 85t-46 85t-83 65.5t-140 25.5q-41 0 -107.5 -21.5t-130 -62.5t-110 -100.5t-46.5 -134.5q0 -63 12.5 -107.5t28 -74t27.5 -48t12 -31.5q0 -27 -43 -54t-94 -68t-93 -100.5t-42 -149.5q0 -123 60.5 -200t143.5 -121 t169 -59.5t137 -15.5q72 0 133 31q-29 16 -58.5 9t-73.5 -10t-107.5 10.5t-159.5 70.5q-68 41 -129.5 119t-61.5 194q0 18 25.5 68.5t64.5 103t85 92t89 39.5q16 0 39 -13t49.5 -27.5t57.5 -27.5t65 -13q4 0 30 3t55.5 12t53 24.5t23.5 39.5q0 41 -34.5 58.5t-82 22.5 t-99.5 0t-85 -9q-47 -6 -77.5 30t-48 81t-24.5 85l-6 40q0 41 16.5 74.5t41 58t53.5 39t53 14.5q51 0 79 -27.5t45.5 -68.5t32.5 -89t42 -89t72 -69t120 -28q76 0 139.5 29t109.5 75t72 106t26 126zM3117 410q0 12 -6 23t-35 11q-12 0 -35.5 -20.5t-49 -44t-48.5 -44 t-33 -20.5q-27 0 -49 17.5t-39.5 40t-29 43t-11.5 28.5q0 29 -5 129.5t-10 241.5t-7 308t2 331q0 45 18.5 82t40 65.5t38.5 50t17 40.5q0 4 -4 7t-4 7q-74 -51 -110.5 -60.5t-55 6t-29 47.5t-28.5 63.5t-56 56t-112 24.5q-18 0 -53 -45t-79 -106.5t-96.5 -125t-103.5 -104.5 q-47 47 -81.5 110.5t-70.5 122t-82 99.5t-116 41q4 0 -47 -35t-115.5 -76t-121 -77.5t-62.5 -38.5q-14 -8 -47 -19.5t-101 -52.5q-59 -35 -111 -69.5t-90 -79t-58.5 -101.5t-20.5 -137q-92 0 -182 -11.5t-162 -45t-117 -92t-45 -154.5q0 -43 6 -76t35 -82h33q6 25 15 68 t41 84t97.5 70.5t184.5 29.5q27 0 47 -5t47 -7q2 -23 3 -39.5t-3 -40.5q-96 0 -157.5 -26.5t-97.5 -63.5t-49.5 -76t-13.5 -64q0 -8 3.5 -33.5t12.5 -49t25.5 -38t42.5 -3.5q0 37 17.5 65.5t42 48t54.5 29.5t54 10q18 0 36 -6t40 -16v-238q0 -45 -31.5 -97t-117.5 -52 q-16 0 -39 18t-55.5 42t-76.5 42t-102 18q-162 0 -265 -87t-103 -261q0 -127 54 -220t119.5 -153.5t123 -89t61.5 -28.5q45 -2 157.5 -38t291.5 -38q111 0 224 28.5t212 100.5q33 -18 78 -51t104 -63.5t133 -54.5t164 -24q98 0 182 26t144.5 72t94.5 110.5t34 142.5 q0 66 -20.5 110.5t-48.5 72.5t-53.5 41t-37.5 13q-6 0 -9 -4t-10 -4v-22q35 -37 74 -76t39 -125q0 -53 -17.5 -104.5t-61.5 -90.5t-118.5 -62.5t-187.5 -23.5q-96 0 -177 20.5t-140.5 49.5t-93 55.5t-33.5 38.5q0 4 17 20.5t38.5 48t39 78t17.5 107.5q0 41 -16 84t-70 43 q-29 0 -57.5 -14.5t-52 -39t-39 -57t-15.5 -69.5q0 -90 54 -193q2 -12 -36 -33.5t-97.5 -44t-134 -39t-148.5 -16.5q-180 0 -306 39t-206 96.5t-116 120t-36 107.5q0 49 32 88t81 66.5t106.5 42t106.5 14.5q29 0 90.5 -13.5t129 -28t125.5 -27.5t83 -13q109 0 186.5 27.5 t127 66.5t73 78t23.5 63q0 72 22.5 112t22.5 79q0 137 -2 225t-3 141t-1 80t6 39q37 -8 71.5 -7t63.5 -1t46 -13.5t17 -41.5q0 -55 -1 -101.5t-2 -89.5t-3 -89t-6 -101t-34.5 -148.5t-112.5 -204.5l30 -26h25q39 61 60.5 99t33.5 60.5t20.5 32.5t18.5 17l309 -267 q27 0 67 64.5t80 142.5t76.5 142.5t61.5 64.5q10 0 11 -16.5t7.5 -44t25.5 -66.5t67 -82q119 -111 166 -166t69 -55q8 0 46 43t130 152q98 117 152.5 163t54.5 52z" />
<glyph unicode="N" horiz-adv-x="2387" d="M1546 -350q0 -59 -49 -96t-133 -56.5t-193.5 -27t-228.5 -7.5q-104 0 -176 13.5t-124 31t-92 36t-83 28.5q35 29 105.5 69t153.5 74.5t168 59t148 24.5h263q39 0 82 -11t78.5 -30.5t58 -47t22.5 -60.5zM719 74q-43 16 -74 24t-58.5 12.5t-55 4.5h-64.5q-70 0 -109 -5.5 t-69.5 -18.5t-64.5 -34.5t-95 -54.5q47 61 86 97t76 52.5t72.5 20.5t76.5 4q55 0 91 -6t65 -18.5t56.5 -31.5t66.5 -46zM887 625l-23 -7q-24 -6 -52 -12t-51.5 -9t-23.5 1q0 10 20.5 16.5t47 8.5t51.5 2h31zM907 889q-6 -4 -7 -8t-3 -7q-4 0 -42 4.5t-96.5 1.5t-130 -18.5 t-141.5 -54.5q92 72 172 93.5t136 21.5q35 0 56 -9.5t56 -23.5zM1065 1262v-217.5t-1 -192.5t-3 -191.5t-8 -216.5q-2 -35 -21.5 -72.5t-60.5 -56.5v734q0 10 12 61.5t82 151.5zM1421 1479q-2 -145 -1 -264t1 -232t-2 -231.5t-8 -264.5q-4 -78 -22.5 -157.5t-59.5 -144 t-110.5 -105.5t-176.5 -41q-63 0 -102 5t-64.5 18.5t-46 35t-47.5 56.5q100 12 195.5 36.5t169.5 60.5t121 84t49 109q6 129 5 236.5t-3 211t-2 211t8 238.5q2 29 30.5 69t65.5 69zM758 1341q-4 0 -10.5 -3t-10.5 -3q-84 0 -133 42t-76.5 96.5t-43 105.5t-31.5 70 q61 2 90.5 -28t55.5 -76t59.5 -100.5t99.5 -103.5zM1706 817h-223q0 39 -3 90t3 127q63 -14 117.5 -16t105.5 24q0 -51 1 -84.5t1 -57v-42t-2 -41.5zM2017 102q0 -16 -10 -26t-29 -37q-104 86 -148 151.5t-55.5 118.5t-3 96.5t8.5 86.5q2 119 3 217t1 192v191.5v216.5 q-12 80 -14.5 109.5t-18.5 48t-56 42t-128 90.5q4 2 24.5 12.5t24.5 10.5q8 0 50 -19.5t88 -56.5t82 -90t32 -121q-8 -145 -11.5 -264t-3.5 -231.5v-230t-4 -263.5q10 -61 37 -97t56.5 -59.5t52 -41t22.5 -46.5zM1716 1149q-4 -23 -20.5 -37t-38 -21.5t-45 -10.5t-37.5 -3 q-45 0 -58.5 10.5t-33.5 18.5l20 446q31 -8 68 -34.5t68.5 -56t53 -59.5t23.5 -44q8 -74 11.5 -101.5t3.5 -39t-4.5 -21.5t-10.5 -47zM2347 389l-35 23h-28q-2 0 -12.5 -13.5t-26 -31t-33 -36t-33.5 -30.5q-47 33 -64.5 62.5t-25.5 105.5q0 121 2 219t3 192.5t4 192.5t7 219 q2 61 17.5 110.5t37 95.5t48 92t51.5 102q-8 2 -14.5 6t-16.5 8q-41 -39 -59.5 -67.5t-28.5 -49t-18 -35t-31 -26.5q-47 49 -79 75.5t-63.5 50t-69.5 54.5t-99 86l-285 -160q-8 16 -7 35t1 39.5t-3 43t-22 42.5q-23 -12 -27.5 -34.5t-3.5 -49.5t1 -55.5t-13 -55.5 q-10 -20 -37.5 -41.5t-62.5 -43t-69.5 -41t-59.5 -35.5q-86 -57 -140.5 -102.5t-87 -89.5t-45 -91t-12.5 -106q-106 0 -209.5 -19.5t-184.5 -63.5t-130 -116t-49 -176q0 -96 38 -137t56 -41q10 0 25 6q-27 55 -20 111.5t49 101.5t118 73.5t184 28.5h35t23.5 -1t26 -6 t38.5 -17v-25q-63 -25 -123.5 -42t-108.5 -42t-77 -63.5t-29 -104.5q0 -14 9.5 -53t54.5 -68h43q0 16 -2 42t10 49.5t45 41t100 17.5q43 0 60.5 -7.5t17.5 -48.5q0 -18 -1 -63t-15 -93t-47 -85t-96 -37q-16 0 -44 20.5t-68 46t-93.5 46t-120.5 20.5q-86 0 -156.5 -29.5 t-120 -79t-77 -112t-27.5 -129.5q0 -117 52 -195t113.5 -129t114 -78.5t52.5 -42.5q0 -4 -12.5 -19t-27 -34.5t-27.5 -37t-17 -23.5v-23q31 18 49 40t30.5 39t21.5 28.5t22 11.5q45 0 75.5 -22.5t85 -49t149.5 -49t267 -22.5q74 0 181.5 6t206 30.5t169 73.5t70.5 137 q0 74 -48 119t-120 69.5t-155 34t-154 9.5q-104 0 -187.5 -17.5t-183.5 -50.5q-127 -41 -193.5 -76.5t-99.5 -62.5t-44 -42t-30 -15q-25 0 -65.5 24.5t-79.5 62.5t-66.5 84t-27.5 87q0 90 86 140t217 50q78 0 136 -14t111.5 -30.5t110 -31t129.5 -14.5q96 0 184.5 17.5 t158 57.5t114.5 102.5t55 152.5q12 98 7 187t-1.5 158t29 108.5t98.5 39.5q55 0 82 -13t37 -34.5t9 -48t-1 -53.5v-163t-8 -167q-2 -31 -24.5 -68.5t-53 -76.5t-64.5 -76t-61 -68v-22q27 -8 53.5 13.5t53.5 55t57.5 70.5t67.5 62q33 -25 63.5 -61t62.5 -71.5t63.5 -66.5 t64.5 -43zM1104 1599q0 49 -4 103.5t-66 83.5q-10 -18 -3 -72.5t7 -113t-17 -103.5t-77 -45q-45 0 -72.5 52t-63.5 115.5t-92.5 116t-156.5 52.5q-86 0 -159.5 -31t-126 -82t-82 -114.5t-29.5 -130.5q0 -49 28.5 -101.5t82 -95.5t126 -71.5t162.5 -28.5q18 0 54 3t70 11 t58.5 20.5t24.5 30.5t-13.5 18.5t-39 -7t-61.5 -16.5t-83 -9q-145 0 -236 70.5t-91 189.5q0 20 5 51t17.5 58.5t32.5 47t49 19.5t41 -19.5t21.5 -50t22.5 -69.5t42 -76q31 -41 102.5 -84t180.5 -43q80 0 144.5 29.5t109.5 76t68.5 103.5t23.5 112z" />
<glyph unicode="O" horiz-adv-x="2068" d="M676 86q-147 27 -254 101.5t-175.5 165.5t-102 183.5t-33.5 153.5q0 158 58 308.5t136 272.5t156 206t117 106q-14 -31 -74 -103.5t-125.5 -171t-117.5 -216t-52 -238.5q0 -252 115.5 -434t351.5 -334zM686 877q0 -20 -3 -87t-13.5 -141t-33 -137t-58.5 -80 q-16 53 -37 104.5t-39.5 108.5t-31.5 124t-13 149q0 4 13 68.5t30.5 141t34 141t20.5 70.5q8 6 37 10.5t49 14.5l45 -6v-283q-20 -57 -14 -98t14 -100zM1651 602q0 -98 -41 -184t-99.5 -153.5t-124 -116t-114.5 -70.5h-43v487q0 4 11 20.5t35.5 35t64.5 34t100 15.5 q20 0 56 -4t69.5 -11.5t59.5 -21t26 -31.5zM1174 1491l-9 -1413q-10 0 -18 -2t-19 -2q-23 0 -103.5 22.5t-168.5 60.5t-156.5 88t-68.5 105q0 18 70.5 35.5t154.5 49.5t154.5 84t74.5 140q4 129 6.5 237t2.5 209t-1 208.5t-1 236.5q33 -8 57.5 -15t24.5 -44zM827 831 q0 -2 1 -47t-5 -102t-26.5 -112.5t-63.5 -80.5q4 117 7 211.5t5.5 185.5t3.5 186t1 212q0 55 5 82t64 47zM1651 709q-35 8 -57.5 15t-43 10t-44 5t-56.5 2q-66 0 -112 -15t-109 -32v252q53 -8 91 -15t87 -7t102.5 10t79.5 27q20 -35 29.5 -56.5t13.5 -39t7 -34t12 -40.5v-82 zM1806 848q0 -86 -27.5 -161t-54.5 -171q6 78 9.5 133.5t-0.5 132.5q-4 76 -50.5 198t-125 247t-182 231.5t-220.5 149.5q8 10 14.5 18t10.5 14h30q182 -88 298 -201.5t182.5 -226t91 -211t24.5 -153.5zM1571 1049q0 -12 -23.5 -24.5t-54.5 -21t-58.5 -13.5t-37.5 -5 q-12 0 -40 6t-55.5 17.5t-49 28t-23.5 34.5q-4 59 -3 106.5t4 93.5t6 94t3 105q25 -12 79 -62t110.5 -113.5t99.5 -130t43 -115.5zM2028 860q0 84 -8.5 149.5t-27 125t-46 116t-64.5 121.5q-57 96 -149.5 179t-182.5 144.5t-161.5 96.5t-88.5 35q-20 0 -96 -70.5 t-227 -191.5q-49 -41 -109.5 -70t-116 -49.5t-96.5 -29.5t-49 -9q-12 0 -18 6t-10 8q37 43 53 67.5t23.5 42t14.5 32t25 36.5q29 35 54.5 55.5t45 34t32 23.5t12.5 25q0 27 -10.5 35t-38 -3.5t-75.5 -41t-126 -78.5q-53 -35 -109.5 -90.5t-105.5 -112.5t-86 -106.5 t-56 -71.5q-31 -39 -64.5 -103.5t-61 -140.5t-46 -157t-18.5 -150q0 -190 93 -330.5t234.5 -233t308.5 -137.5t316 -45q63 0 144.5 16.5t161 43t153.5 59.5t123 68q135 90 223 189t138.5 193.5t71 178.5t20.5 141z" />
<glyph unicode="P" horiz-adv-x="2039" d="M1540 121q-12 -18 -17 -26.5t-9.5 -14.5t-11.5 -12.5t-25 -18.5q-162 92 -327 127t-302 40t-230.5 -5t-109.5 -10q2 0 50 10t108.5 20.5t117 19.5t70.5 9q6 0 84 -5t185.5 -21.5t223 -43t193.5 -69.5zM836 737q-43 -20 -74 -19t-71 4t-97 1t-150 -29q66 51 158 59.5 t191 8.5q10 0 18.5 -7.5t24.5 -17.5zM1362 799l-16 -404h-566q43 14 113 28.5t142.5 41.5t135 71t89.5 117q14 41 7 77t11 79q31 -8 44 -9t40 -1zM803 991q-43 -12 -83 -10t-93.5 4t-126 -4t-181.5 -35q70 35 106 48.5t58.5 16.5t40 4t47.5 11h209q12 -10 15.5 -18.5 t7.5 -16.5zM1004 1391v-193.5v-171.5t-2.5 -171t-8.5 -193q-2 -53 -23.5 -95.5t-82.5 -68.5v665q0 43 29 111t88 117zM553 1311q-88 53 -132 92t-59.5 69.5t-14.5 55t3 50.5t-6 55.5t-43 68.5h39q59 -31 78.5 -57.5t31 -67.5t30 -103.5t73.5 -162.5zM1370 1577l-8 -711 q-41 8 -60.5 13.5t-27.5 12.5t-11 22.5t-10 41.5q2 70 1 125.5t-1 108.5t1 108.5t10 122.5q14 111 36.5 139.5t38.5 38.5q4 -10 12.5 -14t18.5 -8zM1571 1253q0 -90 -1 -158.5t-13.5 -115.5t-40 -74.5t-78.5 -38.5l18 668q43 -35 66.5 -52.5t34 -41t12.5 -64.5t2 -123z M1739 1040q0 -18 -11.5 -44.5t-31 -52t-45 -47.5t-52.5 -30q18 16 36 93t18 262q0 141 -12.5 197.5t-39 82t-70.5 47t-110 92.5q12 8 29.5 20.5t36.5 12.5q8 0 49 -24.5t86 -57t81 -67.5t36 -54v-430zM1999 1235q0 135 -8.5 211t-35 126t-75.5 89t-131 98q-39 27 -65.5 47.5 t-38.5 20.5q-4 0 -73 -35t-153 -80t-161.5 -87t-98.5 -56q-127 -82 -226 -166t-120 -199q-8 -45 -36.5 -52t-83 -5t-133.5 -1t-185 -40q-125 -43 -210 -129t-85 -217q0 -51 31.5 -110.5t89 -110t135.5 -84t172 -33.5q90 0 147.5 12t83.5 60q-2 10 -19.5 6t-44 -12.5 t-59 -18.5t-65.5 -16q-98 0 -169 25.5t-116 61t-65.5 72.5t-20.5 62q0 31 23.5 72.5t67.5 81.5t106.5 68t140.5 28h256q16 0 25.5 -7.5t25.5 -11.5v-51q-59 -6 -145 -5t-166 -13.5t-137.5 -53.5t-57.5 -123q0 -47 31 -76.5t129 -66.5h64v25q-27 18 -51.5 28.5t-24.5 28.5 q0 23 35 37t86 21.5t106.5 10.5t98.5 3q47 0 47 -45t-3 -73t-16.5 -48.5t-42 -41t-78.5 -50.5l21 -17q47 0 45 -1t14 -7q-18 -8 -77.5 -23.5t-139.5 -41t-168 -63.5t-160.5 -90t-120.5 -122t-48 -160q0 -123 83.5 -216t217 -154.5t300.5 -92t332 -30.5q135 0 255 19.5 t208 56t139.5 88t51.5 114.5q0 53 -49.5 104.5t-130 90.5t-182 62.5t-206.5 23.5q-104 0 -224 -25.5t-222 -62.5t-170 -77t-68 -69q0 -10 5.5 -15t7.5 -11h43q53 31 131 66.5t170 64.5t194.5 48t206.5 19q98 0 176 -31.5t132.5 -70.5t84 -75t29.5 -42q0 -68 -81 -108.5 t-186.5 -62t-207.5 -29t-143 -7.5q-178 0 -327 32t-257.5 86.5t-167.5 125t-59 148.5t54 132t139 89t189.5 51t202.5 16q162 0 298 -28.5t237.5 -64.5t162 -64.5t70.5 -28.5q12 0 47 57.5t78 136t85 162.5t67.5 136.5t27.5 56.5q0 16 -17 18t-32 6q-55 -98 -85.5 -166.5 t-59.5 -68.5q-2 0 -36 6t-74 22.5t-72.5 44t-30.5 70.5l10 344q29 14 80 18.5t112.5 11.5t128 24.5t121.5 58.5q88 63 116 160.5t28 177.5zM918 1548q0 33 -13.5 60.5t-50.5 48.5q0 -4 1 -48t-5 -94.5t-26.5 -91.5t-67.5 -41q-35 0 -47.5 22.5t-16.5 57.5t-7 81t-19 91 q-23 59 -96.5 118.5t-186.5 59.5q-76 0 -138.5 -23.5t-107.5 -62t-70.5 -90t-25.5 -108.5q0 -76 30.5 -140.5t83 -111.5t122 -73.5t143.5 -26.5q70 0 110.5 8t40.5 28t-23.5 13.5t-67.5 -12t-106.5 4t-137.5 60.5q-41 29 -68 72t-43 85t-23.5 74.5t-7.5 38.5q0 45 40 81 t75 36q41 0 57.5 -23.5t22.5 -58.5t8 -74t14 -69q18 -47 54 -82t79 -58.5t87 -35t77 -11.5q70 0 127.5 29t97 73t62.5 96t23 97z" />
<glyph unicode="Q" horiz-adv-x="2052" d="M1159 29q-31 -2 -53.5 -4t-32.5 -2q-45 0 -81 17t-59.5 41.5t-34.5 51.5t-11 45q0 27 18.5 49.5t42 38t49 24.5t41.5 9q27 0 61 -12.5t60 -28.5v-229zM1548 -375q-6 -8 -11 -16t-9 -17q-143 27 -225 142.5t-82 306.5v25.5t2 44t5 49t7 41.5q37 -35 50 -70t16.5 -71.5 t3.5 -76.5t12 -83q18 -72 48 -112t62.5 -65.5t65 -45t55.5 -52.5zM541 1534q-4 -10 -51.5 -71.5t-102.5 -163t-100 -235.5t-45 -290q0 -129 18.5 -248.5t87.5 -261.5q-63 78 -107 138.5t-72 118t-40 121t-12 144.5q0 109 52 230t121.5 228.5t140.5 186t110 103.5zM666 565 q-4 -68 -27 -92t-59 -55h-29q-14 47 -25.5 83t-21.5 71.5t-17.5 74.5t-11.5 92q-6 55 -8 82t-4 45.5t-2 39v63.5q0 55 6 112.5t26.5 106.5t58.5 86t101 51q2 -113 5.5 -204t5.5 -178t3 -177t-1 -201zM1159 1454q6 -158 6 -287t-3 -251.5t-8 -250.5t-7 -286 q-127 14 -200 -9.5t-103.5 -70.5t-25.5 -107.5t38 -119.5q-70 43 -102.5 67.5t-55 49t-46 58.5t-72.5 97q37 20 110.5 34.5t148 43.5t130 86t55.5 164v798q0 20 27.5 50t52.5 30q18 0 29.5 -13t17.5 -29.5t7 -32t1 -21.5zM813 709q-4 -84 -9 -124t-16.5 -59.5t-28 -32 t-40.5 -42.5q0 127 -2 231t-2 204.5t3 205t11 233.5q0 27 22.5 37t51.5 20q0 -98 4 -180t7 -158.5t4 -156.5t-5 -178zM1632 567q0 -80 -28.5 -145.5t-64.5 -114.5t-70.5 -80.5t-47.5 -42.5q-14 20 -38.5 45t-53.5 46.5t-57.5 40t-50.5 28.5v188q0 31 25.5 56.5t59 44 t70.5 29t58 10.5q68 0 133 -29t65 -76zM1634 694q-51 27 -93 38t-103 11q-4 0 -24.5 -4t-49.5 -13t-63.5 -21.5t-65.5 -28.5q-8 41 -11 112.5t-3 157.5q45 -20 77.5 -27.5t34.5 -7.5q47 0 126 15.5t134 50.5q12 -33 26.5 -52.5t14.5 -52.5v-178zM1810 797q0 -162 -49 -276.5 t-127 -225.5q10 53 24.5 87t27 76t20.5 108.5t8 187.5q0 123 -41 236.5t-93 204.5t-101 150.5t-64 75.5q-35 33 -66.5 52.5t-59 35t-50 34t-37.5 48.5v31q63 0 131 -36t130.5 -91t117.5 -121.5t96 -128.5q23 -33 46.5 -89t43 -120.5t31.5 -128t12 -110.5zM1559 1067 q0 -20 -55.5 -55t-162.5 -35q-33 0 -69.5 27.5t-59.5 44.5v428q68 -18 130.5 -81t110.5 -132.5t77 -128t29 -68.5zM2011 874q0 109 -31.5 227t-124.5 263q-70 111 -154.5 191.5t-163.5 134t-137.5 79t-74.5 25.5q-10 0 -30.5 -19.5t-59.5 -54t-105.5 -84t-168.5 -108.5 q-53 -31 -115 -60.5t-117 -54t-101 -39t-69 -14.5q-27 0 -20.5 24.5t33 62.5t66.5 83t77 86t65.5 71.5t32.5 41.5l-55 8q-94 -41 -219 -132.5t-235.5 -222.5t-186.5 -294.5t-76 -350.5q0 -197 92 -342t233.5 -242.5t310.5 -145.5t320 -48q72 0 106 10.5t56 -4.5 q12 -8 10 -26.5t-4 -49t6.5 -75.5t40.5 -107q33 -59 81 -100t94.5 -65.5t81 -35t40.5 -10.5q23 0 35 13.5t30.5 42t49.5 74.5t92 114q59 66 106.5 111t82 75.5t56 51t32.5 36.5q-12 4 -21.5 10.5t-27.5 6.5q-25 0 -50.5 -28t-54.5 -60.5t-58.5 -60t-62.5 -27.5 q-27 0 -66.5 33.5t-76.5 74.5t-64.5 79t-27.5 44t41 31.5t102.5 73t131 116t126.5 158.5q25 39 48.5 94t41 113.5t27.5 112.5t10 89z" />
<glyph unicode="R" horiz-adv-x="2172" d="M696 -477q0 -8 -32.5 -39t-89 -63.5t-132 -59.5t-161.5 -27q-82 0 -143.5 38t-61.5 108q0 102 70.5 156.5t177.5 109.5q88 -78 157.5 -117t117.5 -58.5t72.5 -26.5t24.5 -21zM1495 -344q0 -2 -13.5 -22.5t-51 -45t-109.5 -45t-191 -20.5q-145 0 -220.5 13t-110.5 34.5 t-42 48.5t-18 53h-43q0 -41 19 -80q-2 0 -8.5 -3t-12.5 -3q-27 0 -67.5 13.5t-86.5 36t-93.5 53t-88.5 67.5q4 2 32 14.5t84 26t145.5 23.5t216.5 10q80 0 192.5 -11.5t217 -34t177 -54t72.5 -74.5zM1237 88q0 -8 -44 -9t-112.5 2t-152.5 8t-164 8t-146.5 4t-99.5 -5 q18 10 78.5 24.5t140.5 27t168 20.5t162 4t122 -23.5t48 -60.5zM854 702q-31 6 -71 8.5t-79.5 -0.5t-74.5 -11.5t-58 -20.5q29 31 42.5 42t24.5 14t26.5 3t50.5 13h139q2 -8 4 -19t-4 -29zM1368 817l-10 -594q-70 43 -134.5 61.5t-120.5 24.5t-106.5 8t-89.5 13 q178 49 248 121.5t80 183.5q4 57 10 88t19.5 47t37 24.5t66.5 22.5zM854 969q-25 -8 -56.5 -9.5t-74.5 -2.5t-100.5 -6t-135.5 -23q63 41 126 60.5t145 19.5q23 0 41 -2t45 -2q2 -8 5 -17.5t5 -17.5zM1032 1341q-20 -78 -29.5 -204.5t-9.5 -345.5v-267q0 -29 -25.5 -66.5 t-60.5 -54.5q2 20 10.5 33t8.5 39v436q0 86 -3 141.5t4 99.5t30.5 87t74.5 102zM1554 625q0 -78 -1 -118t-12 -67.5t-38.5 -57.5t-81.5 -85v534q10 8 18.5 16.5t20.5 8.5q27 0 60.5 -55t33.5 -176zM1913 47q0 -16 -10.5 -29.5t-18.5 -27.5q-143 61 -204.5 149t-69.5 150 q-6 53 0 108.5t11 120t1 141t-31 172.5q92 -78 110.5 -168t-3.5 -237q-14 -102 16.5 -169t75.5 -110t84 -65.5t39 -34.5zM834 1364q-14 -2 -20.5 -4t-18.5 -2q-66 0 -101 42t-60.5 99t-52 117.5t-75.5 97.5q72 -16 107.5 -52t62 -84t59.5 -103.5t99 -110.5zM1380 889 q-47 -20 -63.5 -26.5t-63.5 -22.5v124t1 110t3.5 110.5t6.5 124.5q6 96 28.5 146t87.5 95v-661zM1591 1337q0 -6 -5 -59t-18.5 -122t-40 -137.5t-71.5 -107.5q-18 10 -26.5 15.5t-16.5 38.5l29 585q27 -18 53.5 -36.5t48 -42t34.5 -55.5t13 -79zM1722 1362q0 -18 2 -68.5 t-4 -105.5t-26.5 -104.5t-69.5 -65.5l29 358q4 43 -14.5 81t-46 67.5t-57.5 49t-50 25.5q8 10 22.5 26.5t32.5 16.5q6 0 36 -15t61.5 -48t58 -87t26.5 -130zM2132 377h-37q-10 -23 -16 -40.5t-41 -70.5q-63 12 -85 49t-25 86.5t0 104.5t-11 106q-25 86 -77 135.5t-110.5 78 t-109.5 44t-72 33.5q125 59 202 107.5t120 110t58.5 146.5t15.5 220q-12 90 -81 149.5t-182 120.5q-16 0 -49 -15.5t-68.5 -34.5t-67.5 -34.5t-46 -15.5q-4 0 -7 4t-11 4v49h-39q0 -82 -64.5 -129t-148.5 -90t-165 -98.5t-118 -153.5q-18 -51 -81.5 -75.5t-143.5 -43 t-163 -43t-140 -77.5q-25 -23 -45.5 -40.5t-20.5 -31.5q0 -35 -20.5 -80t-20.5 -78q0 -41 30 -90t82 -91t124.5 -69.5t158.5 -27.5h15.5t20.5 2t12.5 8t-9.5 18q-70 0 -134 18.5t-113.5 46t-78 62.5t-28.5 66q0 47 40 83t100.5 60.5t131 37.5t127.5 13q6 0 29 1t46.5 0 t43 -9t19.5 -26t-30 -24.5t-74 -8.5t-95 -6t-95 -19.5t-74 -47.5t-30 -89q0 -37 22.5 -68.5t82.5 -31.5q35 0 21.5 15t-27.5 30q29 31 75.5 46t98.5 15q45 0 68.5 -8t31.5 -23.5t8 -37v-50.5q0 -66 1 -90t-9 -39.5t-35.5 -35t-79.5 -74.5q-25 16 -97.5 -22t-152 -98 t-143 -129t-70.5 -116q-10 -80 4.5 -119t14.5 -43q0 -8 -40 -27.5t-88 -54t-87 -87t-39 -126.5q0 -25 16.5 -60.5t48 -69t81 -57t114.5 -23.5q129 0 208 36.5t128 79.5t76.5 80t54.5 37t119 -21.5t215 -21.5q90 0 170 12.5t140.5 35t96 54t35.5 70.5q0 74 -88 122 t-203.5 77.5t-228.5 42t-162 12.5q-106 0 -190 -11.5t-146.5 -24.5t-106.5 -23.5t-71 -10.5v58q33 45 68 78.5t79 56t103 34t143 11.5q125 0 233.5 -27.5t260.5 -89.5q0 2 32.5 53.5t79 115t98.5 122.5t91 82q14 -20 21.5 -59t30 -88.5t73.5 -105.5t151 -112q12 -6 32 -21 t40 -15q12 0 43 43t69 108.5t75.5 143t60.5 145.5zM1069 1653q0 20 3 28.5t4 17.5t-3 23.5t-16 49.5l-25 -13q-10 -39 -8 -89t-2 -94t-23.5 -73.5t-72.5 -29.5q-25 0 -38.5 22.5t-20.5 55t-14 70.5t-19 67q-23 53 -100 95t-179 42q-74 0 -136.5 -19.5t-108.5 -52.5 t-71.5 -76t-25.5 -92q0 -63 17.5 -126.5t59.5 -115t112.5 -83t177.5 -31.5q20 0 27 8t16 14q-66 14 -127.5 30.5t-110.5 43.5t-80 70t-31 110q0 51 17.5 87t39 59.5t42 34t26.5 10.5q74 0 108 -61.5t64.5 -136.5t74.5 -136.5t140 -61.5q53 0 104.5 28t91.5 75t63.5 111.5 t23.5 138.5z" />
<glyph unicode="S" horiz-adv-x="2002" d="M799 209q0 -4 -25.5 -40t-60.5 -81t-69 -89t-50 -62q-23 -27 -61.5 -61t-81.5 -63.5t-85 -50t-73 -20.5q-55 0 -92 15.5t-57.5 40t-29 55t-8.5 61.5q0 76 36 139.5t98.5 109.5t147.5 71.5t185 25.5q8 0 44 -3t76 -9t73 -16.5t33 -22.5zM854 342q-2 -10 -5 -22.5t-1 -34.5 q-18 0 -43 5t-68 11t-109.5 10t-170.5 4q59 16 109 29.5t134 13.5h53.5t32 -2t27.5 -5t41 -9zM1194 164q0 -16 -22.5 -31.5t-41.5 -34.5q-18 8 -33.5 24.5t-39 37t-56 41t-83.5 35.5q18 27 18 37t6 36h29q29 -10 66.5 -27.5t73.5 -37t59.5 -41t23.5 -39.5zM1096 762 q-16 -29 -16.5 -31t-4.5 -14h-49q-92 20 -143.5 28.5t-79 13.5t-40.5 9t-31.5 14.5t-51.5 32t-98 62.5q33 0 86 -11.5t119.5 -29t144.5 -37t164 -37.5zM1522 504q0 -2 -4.5 -14.5t-22.5 -35t-54 -54t-98 -72.5q-59 41 -90.5 63.5t-58.5 35.5t-61.5 23.5t-98.5 28.5 q0 4 12.5 27.5t29 52.5t34.5 51.5t31 22.5q25 0 87 -10.5t127.5 -27.5t116 -40.5t50.5 -50.5zM1581 575q-25 25 -73 43.5t-108.5 34t-126 25.5t-124.5 18q25 25 92.5 30t141 -10.5t133 -50.5t65.5 -90zM1206 934h-41q-23 8 -76 16t-119.5 21.5t-138 31t-132 44t-99.5 61.5 t-39 80q0 10 4 18t6 19q49 -61 100.5 -105.5t122 -74t169 -47t243.5 -23.5q4 -23 0 -41zM1288 1087q-18 -37 -30.5 -50t-32.5 -13q-43 0 -109.5 13.5t-145.5 40t-160 65.5t-153 90q139 -57 232.5 -84t161 -36t121 -11.5t116.5 -14.5zM1753 739q0 -29 -14.5 -53t-26.5 -39 q0 78 -40 123t-103.5 71.5t-139 42t-149.5 34.5q6 12 9 26t36 14q63 0 138 -15t139.5 -43t107.5 -69t43 -92zM1776 887q-41 39 -98.5 61.5t-119 35.5t-122 19.5t-109.5 12.5q14 20 26.5 38.5t39.5 18.5q66 0 129 -20.5t115.5 -50t89.5 -61t49 -54.5zM1384 1565 q0 -8 -24.5 -28.5t-50.5 -37.5q-14 45 -48 85t-74 71t-81 48t-72 17h58q4 0 50 -15t100 -37.5t98 -50t44 -52.5zM1962 1698q0 2 -4 10t-4 12h-33q-98 -57 -184 -136t-156 -148.5t-119 -118.5t-69 -49t-35 2t-38.5 6t-64.5 11t-114 20q-63 10 -151.5 26.5t-168.5 43 t-135 67.5t-55 102q0 25 9 51.5t34.5 49t72 37t119.5 14.5q156 0 230.5 -48t108.5 -108.5t45.5 -116t37.5 -69.5q27 31 43.5 53.5t34.5 46t44 51t67 68.5q51 51 99 83t85 52.5t59.5 33.5t22.5 28q0 6 -6 10t-6 12q-100 -25 -171 -14.5t-137.5 32t-141.5 43t-185 21.5 q-74 0 -157 -18.5t-158.5 -56.5t-136 -97t-91.5 -139q-16 -41 -17 -84t5 -79t13 -60.5t7 -28.5q-8 -25 -29.5 -46.5t-43 -48t-38 -63.5t-16.5 -92q0 -49 22.5 -102.5t67.5 -104.5t113 -93t156 -67q6 0 30.5 -4t60.5 -10t75.5 -15.5t74.5 -23.5q-31 -100 -65.5 -123.5 t-95 -23.5t-158 -3.5t-252.5 -62.5q-86 -33 -162 -91t-133 -128t-92 -140.5t-35 -129.5q0 -35 8 -77t32.5 -78t65.5 -60.5t107 -24.5q78 0 158 39t159.5 104.5t156.5 151.5t151 182q49 -12 77.5 -33.5t53 -47t51 -52.5t69.5 -51q12 10 49.5 49l87.5 91t107.5 108.5 t112.5 99.5q127 98 212 175t136 140.5t73.5 115.5t22.5 99q0 92 -64.5 163t-145.5 120t-152.5 77t-81.5 36q238 223 356.5 321.5t118.5 108.5z" />
<glyph unicode="T" horiz-adv-x="1722" d="M702 100q-137 27 -236 88.5t-161.5 138t-92.5 159.5t-30 153q0 31 3 72t23.5 102t67 148.5t132.5 207.5q-10 -14 -28 -40.5t-33 -56.5t-25.5 -58.5t-10.5 -48.5q0 -10 -8 -25.5t-16 -43.5t-16.5 -70t-8.5 -103q0 -229 119.5 -388t320.5 -235zM1102 1503 q-156 -74 -232.5 -126t-107.5 -109.5t-30 -130t1 -185.5v-350q0 -33 -20.5 -73t-63.5 -72q-37 33 -81 130t-44 292q0 180 81 329.5t286 253.5q0 23 -6 29t-23 6q-14 0 -51 -14.5t-80 -36t-88 -46t-80 -44.5q20 12 32.5 45t12.5 55q0 4 -4 20.5t-9 35t-10 35t-5 20.5h-70 q0 -18 7 -39t7 -33q-2 -41 -29.5 -70.5t-65.5 -49t-78 -29t-66 -9.5q-8 0 -34 6.5t-53.5 23.5t-50 46t-22.5 72q0 76 59.5 112.5t139.5 44.5zM901 766q0 -18 -4 -50t-14.5 -69t-31 -72.5t-52.5 -60.5q4 14 11 24.5t7 24.5v395v98.5t6 88.5t23.5 85t54.5 87v-551zM1292 393 q0 -109 -47 -151.5t-141 -42.5q-51 0 -113.5 16t-121 44t-107.5 64.5t-78 77.5q53 2 113.5 14.5t116 35t100.5 56.5t69 81q31 61 33 157.5t-4 203t-8 209t18 175.5q10 41 45 83t60 87h65v-1110zM1430 1610q-57 -16 -81 -24.5t-40.5 -12.5t-37 -4h-71.5q-98 0 -223 23.5 t-257 50t-260 46t-233 9.5q51 23 92 39t107 16q80 0 135 -10t106.5 -26.5t110 -35t142.5 -35t207 -26.5t303 -10zM1681 735q0 133 -26.5 195.5t-46.5 62.5q-14 0 -23.5 -7t-21.5 -11q43 -84 42 -184.5t-35 -195.5t-94.5 -173t-132.5 -117v1020q0 53 3.5 99t7.5 85 q6 10 54 31t102.5 60.5t99.5 103t45 158.5q0 18 3 28.5t2 16.5t-9.5 11t-32.5 15q-8 -68 -83 -94.5t-151 -26.5q-111 0 -220 20.5t-210.5 44.5t-194.5 44.5t-173 20.5q-154 0 -259.5 -48.5t-169 -118t-90 -146.5t-26.5 -132q0 -92 72.5 -156.5t181.5 -64.5q82 0 131 20.5 t61 20.5q2 0 4.5 -4t14.5 -4q-129 -92 -206 -196.5t-118 -200t-54 -172t-13 -115.5q0 -162 79.5 -275.5t199.5 -186.5t261.5 -106.5t262.5 -33.5q176 0 317 61t240.5 161.5t152.5 228.5t53 261z" />
<glyph unicode="U" horiz-adv-x="2244" d="M647 788q-23 -4 -41 -5t-39.5 0t-52.5 2t-78 -3q25 2 46.5 7.5t46 9.5t53 2.5t65.5 -13.5zM647 1004q-92 29 -187 19.5t-159 -24.5q80 45 147.5 54.5t96.5 9.5q14 0 48 -3t54 -3v-53zM1130 145q0 -18 -17 -33.5t-36 -25.5q-172 131 -259 216t-87 99v842q0 31 11.5 47.5 t26.5 23.5t29.5 8t18.5 3l-22 -795q18 -78 73.5 -135t113.5 -101t103 -79t45 -70zM1468 788q0 -96 -10 -157.5t-31.5 -105.5t-53.5 -80.5t-75 -84.5q-125 66 -174 123.5t-49 153.5q0 49 6 90t25.5 71.5t56.5 47t99 16.5q25 0 60.5 -3t68 -12t55 -22.5t22.5 -36.5zM1468 897 l-366 -2q-16 47 -22.5 61.5t-6.5 22.5t4 21.5t10 56.5q57 -12 112.5 -14.5t105 1t91.5 9.5t72 8v-164zM647 1440q-8 0 -20.5 -5t-18.5 -5q-57 0 -83.5 40.5t-42 98t-30 120t-49.5 105.5q78 -16 110 -61t47 -99.5t29.5 -107.5t57.5 -86zM1886 111q0 -8 -14 -28t-25 -32 q-8 10 -48 58.5t-92 114t-105.5 137t-90.5 128.5l52 746q-6 72 -19.5 116t-31 70.5t-37 42t-37.5 29.5q20 25 40.5 52.5t24.5 37.5q18 -10 44 -36.5t49.5 -59.5t41 -65.5t17.5 -57.5q0 -129 -4 -234.5t-8.5 -207t-9.5 -207t-9 -234.5q8 -53 50 -109.5t89 -107.5t85 -92 t38 -61zM2204 510q0 6 -4.5 10t-4.5 10h-51q-45 -57 -75.5 -124.5t-30.5 -94.5h-31q-78 72 -104.5 131.5t-34.5 145.5q-6 61 -8 112.5t-2 99.5t1 99t-1 115q2 10 6 73.5t9 139.5t10 140.5t7 76.5q4 31 24.5 60.5t44 57t44 55.5t22.5 54h-43q-20 -20 -48.5 -60t-73.5 -85 q-4 2 -43 48t-86.5 98t-91.5 96t-60 44q-6 0 -40 -53t-85 -128t-113.5 -156.5t-123.5 -141.5q41 -20 65.5 -6t41.5 40t34.5 50.5t44.5 26.5q35 0 54.5 -31t28.5 -67.5t11 -68.5t2 -34q0 -43 -10 -70.5t-40 -45t-82 -24.5t-134 -7h-48t-52.5 6t-41 23.5t-16.5 52.5 q0 150 26.5 287t51.5 294q0 10 -15.5 12.5t-17.5 6.5q-25 -31 -39 -69t-35.5 -80t-56.5 -89t-98 -96q-80 -63 -145.5 -86t-67.5 -25q-8 -6 -9 -20.5t0 -30.5t0 -34.5t-12 -37.5q-14 -25 -46.5 -25.5t-82 -1.5t-115 -11.5t-147.5 -51.5q-92 -47 -158.5 -118.5t-66.5 -176.5 q0 -61 28.5 -119.5t81 -103.5t127 -71.5t166.5 -26.5q31 0 55.5 3t63.5 5v27q-6 0 -72.5 -2t-145.5 16t-143.5 67.5t-64.5 153.5q0 51 40 91t98.5 66.5t124 40t118.5 13.5q45 0 97.5 -18.5t52.5 -38.5q0 -27 -62.5 -26t-138.5 -5t-138.5 -32.5t-62.5 -108.5q0 -18 16.5 -42 t43 -45.5t64.5 -36t81 -14.5q12 0 17.5 5.5t19.5 13.5q-35 16 -74 22.5t-39 36.5q0 12 15.5 23.5t36 20t41 12.5t30.5 4q20 0 46 -2t48.5 -11.5t39 -29t16.5 -54.5q0 -80 -1 -145t-10 -121q-4 -23 -28.5 -59.5t-54 -72.5t-57.5 -65.5t-38 -37.5q16 -10 30.5 -16.5 t25.5 -10.5q63 63 97 105.5t64 80.5q27 -6 84.5 -55t120 -106.5t115.5 -103.5t69 -46q10 0 23.5 12.5t27 27.5t24.5 31.5t16 22.5q2 2 41.5 53.5t88 111t88.5 109.5t44 50q109 -80 168 -159t98 -140.5t70.5 -100t83.5 -38.5q18 0 48.5 37.5t61.5 84t53.5 86t24.5 44.5 q70 117 114 193.5t44 78.5zM934 1634q0 31 -15.5 73t-34 75t-33.5 45t-15 -15l8 -16t19 -40.5t19.5 -56.5t8.5 -63q0 -14 -19.5 -48t-54.5 -62q-27 27 -38 83t-34.5 113.5t-76 100.5t-162.5 43q-92 0 -165 -24.5t-125 -66.5t-79.5 -96.5t-27.5 -115.5q0 -39 9 -89.5 t46 -94.5t113.5 -73.5t211.5 -29.5q27 0 45.5 5t28.5 9q-27 12 -90 18.5t-130 27t-118 64.5t-51 134q0 98 48 157.5t97 59.5q43 0 60.5 -27.5t27 -68.5t17.5 -88t29.5 -88t63.5 -69t122 -28q133 0 214 75t81 177z" />
<glyph unicode="V" horiz-adv-x="2060" d="M705 797q-49 0 -76 1t-51.5 -2t-54 -13.5t-83.5 -34.5q33 23 50.5 36t32 21t32.5 11t53 3q23 0 45.5 -4t51.5 -18zM705 1055q-141 0 -278.5 -27t-227.5 -117q51 47 87 82t74.5 57.5t87 34t123.5 11.5q31 0 47.5 -3t28.5 -5.5t24.5 -1.5t33.5 10v-41zM1253 109 q-18 -43 -35.5 -55.5t-68.5 -18.5q-8 12 -66.5 63.5t-126 114.5t-122 120.5t-54.5 82.5v772q0 49 2 98t58 78h30v-778q12 -111 70.5 -199t125.5 -149.5t123 -94t64 -34.5zM1673 729q0 -115 -23.5 -185.5t-54 -111.5t-60.5 -61.5t-40 -34.5q0 -4 -6 -29.5t-47 -25.5 q-37 0 -49.5 21.5t-12.5 47.5v424q0 2 7.5 16.5t26 30t49 28.5t77.5 13q61 0 90 -7t38 -23.5t7 -42t-2 -60.5zM715 1468h-62q-68 25 -96.5 50.5t-43.5 57.5t-31.5 74t-59.5 97h31q41 -27 67.5 -58.5t52 -67.5t57.5 -75t85 -78zM1673 895h-289q6 37 6.5 59.5t-2 38t-4.5 27.5 t0 29h289v-154zM1778 1446q-20 -33 -29.5 -40t-22.5 -17q-10 10 -44.5 39.5t-74.5 61.5t-73 57.5t-39 27.5q29 20 59.5 48t57 54.5l47 47t27.5 26.5q4 -2 20 -14.5t16 -22.5q0 -12 -17 -31.5t-38.5 -40t-39 -37t-17.5 -22.5q0 -14 54.5 -53t113.5 -84zM2019 1563 q0 10 -40 41.5t-73.5 56.5t-39.5 29q-49 43 -78 70.5t-46.5 45t-25.5 23.5t-16 6q-31 -8 -109 -77.5t-186 -178.5q0 -35 43 -58.5t95 -56t95 -85t43 -146.5q0 -39 -2 -66.5t-17 -46t-50 -28t-99 -9.5q-76 0 -110.5 18.5t-34.5 43.5v602q0 10 4 16t6 12.5t-4 13.5t-28 19 q-2 -6 -7.5 -11t-11.5 -13q-2 -203 -2 -368v-323.5t-1 -324.5t-7 -369q0 -14 -25 -49q-66 43 -116 100.5t-50 77.5q-12 297 -2.5 577.5t25.5 573.5q0 2 9 24.5t13.5 50.5t-2 50.5t-39.5 22.5q-12 0 -28.5 -42t-25.5 -78t-11 -42q0 -41 -26.5 -82t-66.5 -77t-84 -62.5 t-79 -38.5q-59 -23 -75.5 -45.5t-13.5 -41t14 -34.5t8 -27.5t-32.5 -17.5t-109.5 -6q-117 0 -218 -25.5t-177 -76t-120 -123t-44 -164.5q0 -49 35 -103.5t96 -99.5t147.5 -74.5t190.5 -29.5q37 0 65.5 1t65.5 1v41q-20 0 -99 -1t-166 13t-154.5 49t-67.5 104q0 61 54 109.5 t129 81.5t154.5 49t129.5 16q33 0 57 -5t51 -5v-33q-35 -8 -106.5 -11t-142 -17.5t-124 -49t-53.5 -106.5q0 -39 21.5 -65.5t50 -43t58.5 -25.5t48 -15q-14 68 28 95.5t138 27.5q10 0 19.5 -4.5t62.5 -4.5v-137q-10 -20 -10 -39.5t-1 -45t-7 -61.5t-27 -89 q-25 -61 -55.5 -105.5t-57 -73t-44 -44t-17.5 -21.5q0 -4 8 -9t8 -16h45q49 49 77 86t43.5 63.5t27.5 48t31 40.5q33 -14 90 -70.5t120.5 -119t122 -111.5t93.5 -49q16 0 100 54t209 163q66 55 107.5 97t66 74t37 55.5t22.5 43.5q16 37 21.5 118t5.5 167t-3 157.5t-3 90.5 v219q0 63 44 119.5t96 101.5t96 76t44 41zM989 1765q0 39 -7 57.5t-46 -3.5q6 -51 6 -79t-4 -43.5t-8 -22.5t-4 -17q0 -39 -31 -56.5t-55 -25.5q-31 35 -55.5 83t-60.5 91t-91 72.5t-152 29.5q-49 0 -112.5 -23.5t-119.5 -65.5t-95 -102.5t-39 -133.5q0 -59 32.5 -106.5 t88 -81t127 -52t147.5 -18.5q33 0 54.5 3t47.5 5q4 16 4 22.5t-4 26.5q-82 0 -160.5 6t-141 29.5t-101.5 69t-39 120.5q0 43 21.5 75t48 53.5t50 31.5t29.5 10q45 0 64.5 -48t46.5 -105.5t76 -105.5t153 -48q61 0 121 31t107 80t74.5 112t27.5 129z" />
<glyph unicode="W" horiz-adv-x="2764" d="M688 717q-68 2 -93.5 3t-41.5 -1t-37.5 -8t-81.5 -21q29 25 51.5 34t34.5 24h160q0 -17 8 -31zM688 967h-137t-67.5 -2t-60.5 -7.5t-116 -15.5q6 2 34 13.5t66.5 23.5t83 21.5t80.5 9.5q27 0 49.5 -6.5t67.5 -12.5v-24zM1155 145q-33 -39 -51.5 -53t-36.5 -26 q-98 102 -160.5 158.5t-97.5 87t-47 47t-12 38.5v795q0 29 10 43t26.5 21.5t36 10.5t37.5 9v-860q0 -8 23.5 -35t63.5 -63.5t94.5 -81t113.5 -91.5zM606 1405q-61 31 -89 62.5t-37 62.5t-8 60.5t-4 56t-24.5 49t-70.5 41.5q12 4 20 8t21 4q76 0 110.5 -45t48 -104.5 t17.5 -115.5t16 -79zM1477 905q-35 2 -58.5 -2t-45 -7t-43 -2t-52.5 11q4 16 7 25.5t5 25.5q49 0 71.5 1t37 2.5t30 1.5t48.5 -5v-51zM1997 115q-27 -20 -38 -34.5t-38 -29.5q-102 111 -171 168t-111 89t-63.5 51.5t-28.5 53t-5 94t4 175.5q2 106 3 194.5t2 171t1 171v194.5 q0 43 -20.5 56.5t-41 21.5t-30.5 22.5t13 59.5q6 -2 36.5 -23.5t65.5 -51.5t64.5 -60.5t29.5 -51.5q6 -113 8 -206t1 -182t-5 -182t-12 -206q-4 -57 -10 -91t-4 -58.5t17 -48t54 -59.5t107 -92t172 -146zM2036 942l-11 -33q-63 -6 -122 0q0 18 16 26.5t37.5 10.5t44.5 0 t35 -4zM2445 1393q0 -8 -11 -19.5t-26 -34.5q-57 59 -101 94t-103 52q27 16 57.5 45t58 58.5t48 57t28.5 42.5q43 -25 37 -49.5t-31.5 -47t-53.5 -42t-28 -36.5q0 -8 20.5 -22t43 -30.5t42 -34t19.5 -33.5zM2724 1526q-121 80 -183.5 131t-93 83t-40 47t-23.5 21 q-2 -4 -20.5 -47t-54.5 -95t-88 -96t-122 -50v-43q76 -31 130.5 -68t89 -71.5t50 -61.5t15.5 -35v-674q0 -31 -30 -76t-67.5 -89t-73.5 -78.5t-48 -40.5q-29 23 -76 59.5t-92 76.5t-78 80t-33 68v236q0 23 20.5 33t49.5 13t62.5 0t62.5 -7q23 78 41 136t53 134 q-8 4 -20.5 10t-24.5 6q-45 0 -110.5 -14t-133.5 14v285q0 57 28 114.5t60.5 102.5t59 74t26.5 33q0 6 -5 8t-5 6h-33q-31 -27 -49 -51.5t-34.5 -48t-36 -47t-50.5 -48.5l-295 261q-27 -12 -48 -39t-38.5 -59.5t-32 -63.5t-26.5 -49q-37 -59 -70.5 -97.5t-58.5 -62 t-39 -35.5t-14 -20q0 -37 22.5 -33t52 25.5t57 49t40.5 35.5q88 -76 94 -106q4 -35 2 -77t-5 -80t-7 -64.5t-4 -28.5q-55 0 -99.5 -4t-99.5 -4q-23 -135 -49.5 -185.5t-26.5 -58.5q0 -14 7.5 -17t7.5 -5q102 12 157.5 8t79 -33t25.5 -88t-2 -158q0 -23 -25 -63.5 t-56.5 -83.5t-62 -78t-43.5 -41q-80 53 -129 103.5t-49 64.5v936q0 76 9 139.5t21.5 109.5t22 72.5t9.5 30.5q0 20 -20.5 32.5t-41.5 12.5q-37 0 -45 -26.5t-11 -70.5t-15.5 -101.5t-59.5 -118.5q-49 -63 -96 -98t-86 -54.5t-65.5 -27t-33.5 -15.5v-98q0 -43 -15 -50t-58 -6 t-120 -4.5t-200 -46.5q-29 -8 -74 -34.5t-88 -68.5t-73.5 -96.5t-30.5 -117.5q0 -49 29.5 -104.5t83 -102.5t125 -77.5t155.5 -30.5q10 0 31.5 1t42 7t30 17t-5.5 32q-92 -23 -164.5 -7.5t-122.5 46.5t-77 68.5t-27 64.5q0 59 42 104t104.5 74t136.5 43.5t135 14.5 q23 0 69 -8.5t72 -18.5v-37q-174 0 -283.5 -36t-109.5 -128q0 -53 47 -94t117 -41q18 0 28.5 8t20.5 21q-53 6 -56 21.5t18.5 30.5t56 26.5t59.5 11.5q41 0 61.5 -8.5t40.5 -18.5v-217q0 -37 -20.5 -85t-48 -94t-59 -85t-52.5 -60v-32q23 -8 31 -10.5t31 -6.5 q49 70 84.5 137.5t72.5 88.5q31 -27 73 -69t88 -87t93 -84t86 -61q86 68 152.5 137t114 125.5t75 94.5t35.5 44l465 -424q141 113 265 247t265 304v432q0 20 1.5 30.5t-1.5 33.5q-20 158 14 249t86 143t104.5 77.5t68.5 50.5zM993 1716q0 33 -3 59.5t-36 26.5q-10 0 -12 -4 t-8 -4q0 -43 5 -80t0 -72.5t-26.5 -72.5t-74.5 -84h-35q-6 12 -19.5 68.5t-43 119t-83 112.5t-141.5 50q-113 0 -186.5 -53t-139.5 -125q0 -35 -15 -69t-15 -48q0 -47 14 -88t53 -79t104.5 -74.5t170.5 -73.5h59v30q-55 27 -116.5 46.5t-113.5 47t-87 72.5t-35 123 q0 4 7 27.5t21.5 49.5t37 46.5t53.5 20.5q47 0 61 -27t17.5 -67t4.5 -86t20.5 -86t64.5 -66.5t139 -26.5q92 0 158.5 42t109.5 102.5t65.5 127t24.5 115.5z" />
<glyph unicode="X" horiz-adv-x="2060" d="M825 166q0 -12 -9 -27.5t-21 -48.5q-45 12 -125 39t-181 27q-6 0 -37.5 -4.5t-72.5 -10.5t-83 -15t-71 -20q12 10 38 30t65 38.5t91 32.5t118 14q6 0 51 -4t97 -11t96 -17.5t44 -22.5zM1047 879q-102 0 -171 -4.5t-137 4.5q20 31 32.5 39t25 9t25 0t32.5 9h178 q6 -18 8.5 -29.5t6.5 -27.5zM1663 121q0 -10 -18 -45q-125 70 -207 150.5t-135.5 170.5t-86 186.5t-57.5 196.5q-16 72 -46 181.5t-73 220t-102 199.5t-135 118q10 20 16 26.5t25 26.5q139 -66 215 -197.5t123 -289.5t80.5 -318.5t87.5 -281.5q35 -80 88 -136.5t103 -96 t86 -66.5t36 -45zM1718 918q-12 -45 -32.5 -49.5t-69.5 -4.5q-43 0 -63.5 6.5t-75.5 -4.5v52q8 -4 38.5 -7.5t69.5 -4.5t76 1.5t57 10.5zM1886 1413q-57 -57 -117.5 -69.5t-87.5 -12.5q-6 0 -31.5 8.5t-53 20.5t-49 24.5t-21.5 20.5t11 17.5t26 54.5q35 -10 57 -30t54 -33 t80 -17t132 16zM2019 1604q0 51 -23.5 93t-68.5 23q27 -57 26 -90t-16.5 -50t-38 -22.5t-38.5 -5.5q-47 0 -77 22.5t-47.5 56.5t-24.5 73t-11 74h-35q-37 -33 -82 -119t-89 -179.5t-80 -172t-52 -97.5q-25 29 -33 52.5t-16 51t-24.5 64.5t-58.5 94.5t-118 139.5t-205 198 q-104 -147 -177 -242t-118 -151.5t-65.5 -79t-20.5 -24.5q0 -29 45 -29q16 0 43 26.5t53.5 58.5t49 58.5t33.5 26.5q43 0 88 -51t81.5 -116.5t60.5 -127t24 -80.5q0 -14 -37 -20t-75 -9t-59.5 -3t7.5 0q-4 0 -24.5 6t-43 7t-40 -8.5t-17.5 -41.5q0 -41 -24.5 -80t-69.5 -99 l10 -10q23 -2 29 -4t8 -3t7 -2t27 -1q80 0 153 10t129 8t89 -27.5t33 -99.5q0 -6 -20.5 -43.5t-49 -86t-56.5 -94.5t-40 -70q-25 -47 -46.5 -53.5t-56 3t-92 20.5t-155.5 3q-195 -18 -304.5 -78.5t-163.5 -131.5t-67.5 -135.5t-13.5 -88.5q0 -147 105.5 -259t272.5 -185.5 t372.5 -111.5t408.5 -38q139 0 262 21.5t215 61.5t146.5 95t54.5 123q0 61 -46 112.5t-120 86t-168 54t-190 19.5q-170 0 -291 -35.5t-199 -81t-113.5 -85t-35.5 -46.5q0 -2 7 -12t7 -47h31q59 45 104 90t106.5 81t151.5 58.5t240 22.5t241 -28.5t140 -65.5t64.5 -71 t15.5 -44q0 -70 -75 -115t-170 -71.5t-186.5 -37.5t-121.5 -13q-29 -2 -92.5 -2.5t-132 -0.5t-125 1.5t-66.5 1.5q-92 2 -219 40.5t-243 101t-196.5 145.5t-80.5 177q0 45 29.5 84t80.5 69t117 47t139 17q55 0 99.5 -10t84.5 -24.5t80.5 -34t90.5 -37.5q35 39 71.5 121 t74.5 171t77 167t80 108q18 -25 25 -46t12.5 -42.5t14.5 -47t34 -58.5q31 -43 89 -108.5t124.5 -128t130 -106.5t102.5 -44q18 0 28.5 13t24 45t36 87t63.5 139q23 47 52.5 100.5t56 97.5t44 74.5t15.5 30.5q0 10 -5.5 17.5t-13.5 17.5h-28q-70 -123 -102 -182t-66 -59 q-51 0 -91 34.5t-74 94t-62.5 136.5t-53.5 163q0 20 29.5 20t69.5 -3t81 -3t66 20q8 8 26.5 38t38 64t34.5 61.5t18 31.5v23q-35 8 -112 5t-156 -3t-138 8t-59 39q0 8 12 40.5t28.5 71.5t34 75t27.5 48q70 -20 106.5 -37.5t84.5 -17.5q76 0 137 27.5t105 74.5t67.5 106 t23.5 120z" />
<glyph unicode="Y" horiz-adv-x="2127" d="M1716 -395q-96 -31 -157 -31q-90 0 -207 24.5t-228.5 55.5t-204 55.5t-133.5 24.5q-31 0 -57.5 -14.5t-44.5 -28t-29.5 -18.5t-11.5 16q0 6 16.5 22.5t44 32.5t65.5 28.5t83 12.5q68 0 163 -22.5t184 -50t160 -50t89 -22.5q4 0 16.5 -5.5t42 -12.5t79.5 -12t130 -5z M729 707q-74 12 -108.5 15t-52 2t-30 -4t-44.5 -3q35 0 59.5 16.5t71.5 16.5q35 0 62.5 -9t41.5 -34zM729 967q-121 14 -197.5 7t-127 -23.5t-84 -35t-68.5 -28.5q4 0 41 20.5t90 45t116.5 45t121.5 20.5q27 0 53 -3t55 -18v-30zM1180 143q0 -16 -16.5 -24t-24.5 -43 q-8 4 -65.5 53t-122 109.5t-117 116t-52.5 69.5v641v80t8.5 56.5t31 41t67.5 33.5q0 -121 -3 -220.5t-5 -193.5t-2 -193.5t8 -219.5q0 -16 46 -58.5t100 -89.5t100.5 -92.5t46.5 -65.5zM1495 537q0 -4 -16.5 -23.5t-41 -50.5t-55 -69t-57.5 -75q-86 66 -141.5 127.5 t-55.5 153.5q0 109 46.5 148.5t160.5 39.5q10 0 36 -3t53.5 -11t49 -20.5t21.5 -30.5v-186zM1509 825q-61 23 -115.5 26t-100.5 -3t-85 -14.5t-69 -8.5v199q55 -16 106 -23.5t80 -7.5q45 0 66.5 4t35 9.5t26.5 12.5t42 13q6 -61 10 -115.5t4 -91.5zM713 1413l-43 -8 q-94 0 -128 32.5t-42 78t-8 93.5t-27 81h29q43 -31 51 -58.5t17 -58.5t37 -69t114 -91zM1831 141q-86 80 -135 124t-76 81t-34 81t-7 124v199t-2 176t-6 176t-12 196q-2 27 -16.5 49.5t-33 41t-36 33t-27.5 24.5q20 18 29.5 27.5t13.5 14.5t7 11t13 21q20 -14 49 -35 t54.5 -47.5t45 -55t19.5 -57.5q4 -117 3 -212t-3 -186t-5 -186.5t-3 -212.5q0 -45 18.5 -100t44 -110.5t53.5 -102.5t46 -74zM2087 1604q0 6 -14 20h-29q-37 -47 -71 -86t-79 -61q-57 59 -127.5 128.5t-164.5 163.5q-20 -53 -65.5 -119.5t-98 -130t-105.5 -115.5t-90 -79 v-27q37 -2 62.5 12.5t44 32t32 33t25.5 15.5q31 0 50.5 -24t31.5 -55.5t16 -63t4 -50.5q0 -82 -42 -114.5t-160 -32.5q-25 0 -57.5 3t-62.5 12t-49.5 24.5t-19.5 39.5q0 156 10.5 258.5t15.5 167t-1 99.5t-39 57q-2 -12 2 -38.5t-5 -66.5t-42 -92.5t-109 -117.5 q-51 -43 -89 -66.5t-63.5 -36t-40 -16.5t-20.5 -10q-8 -10 -2 -28.5t6 -38t-16 -34t-72 -14.5q-176 0 -293.5 -49t-188.5 -115.5t-100.5 -137.5t-29.5 -114q0 -68 31.5 -121t84 -90t120 -56t137.5 -19h55t34.5 2t28 6t37.5 14v33q-51 -6 -122.5 -14.5t-138 1t-114 44 t-47.5 114.5q0 43 51.5 90t124 86t152.5 65t139 26q8 0 28 -1.5t40 -5.5t34.5 -12t14.5 -25v-7t-2 -13q-84 6 -156.5 -3t-127 -31.5t-86 -58.5t-31.5 -81q0 -39 43 -76t104 -37q14 0 28.5 6.5t31.5 12.5q-29 8 -51.5 9t-53.5 15q0 2 17.5 11.5t43 20.5t56.5 20.5t61 9.5 q68 0 95.5 -18.5t27.5 -90.5q0 -133 -19.5 -212t-44 -123t-47 -67.5t-30.5 -45.5q6 -4 19.5 -8.5t23.5 -8.5q45 59 86 120t84 83q61 -47 115.5 -102.5t98.5 -102.5t74.5 -78.5t45.5 -31.5q18 0 63 59t100.5 135t112.5 145.5t96 90.5q88 -104 161 -185t125 -146t81 -118 t29 -102q0 -55 -43 -93t-136 -38q-51 0 -142 30.5t-198.5 67.5t-222 68.5t-213.5 31.5q-152 0 -239.5 -35.5t-133 -78.5t-58.5 -80t-13 -39q0 -104 70.5 -181t183 -128.5t253 -76t277.5 -24.5q129 0 238.5 26t191.5 62.5t133.5 76.5t65.5 71q-16 -4 -74.5 -32t-135.5 -61.5 t-160 -60t-150 -26.5h-232q-35 0 -111.5 17t-155.5 51t-138.5 81t-59.5 109q0 35 46.5 55t85.5 20q31 0 111.5 -23.5t180 -53t199.5 -53t168 -23.5q96 0 181 20.5t150.5 60.5t103.5 100.5t38 141.5q0 80 -23.5 138.5t-23.5 105.5v1190q0 70 25.5 124t57.5 94t58.5 66 t26.5 38zM1008 1661q0 27 -13.5 65.5t-13.5 42.5h-45q0 -49 2 -96t-4 -85t-25.5 -60.5t-60.5 -22.5q-31 0 -44 13.5t-16.5 33t-2.5 42t-3 38.5q-20 72 -96 112t-170 40q-74 0 -138.5 -22.5t-110.5 -59.5t-72.5 -86t-26.5 -103q0 -76 47 -128t113.5 -82.5t141.5 -41t130 -1.5 v22q-43 8 -107.5 16.5t-125 31t-102.5 65.5t-42 123q0 72 40 114.5t77 42.5q41 0 59.5 -19.5t24.5 -46t4 -55t2 -45.5q12 -61 62.5 -105t154.5 -44q109 0 179.5 37t110.5 87t55.5 100t15.5 77z" />
<glyph unicode="Z" horiz-adv-x="1531" d="M1343 145q-29 -41 -69.5 -66.5t-86.5 -38.5t-92 -18.5t-83 -5.5q-90 0 -158 42t-128 95.5t-116.5 103.5t-120.5 67h43q70 -29 141.5 -69t139.5 -76t127 -61.5t107 -25.5q90 0 154 10t142 43zM647 940q-27 -27 -65 -49h-242q10 10 23.5 25.5t21.5 23.5h262zM1217 940 q-16 -37 -20.5 -36t-31.5 -13h-336q25 31 76 45t109.5 17t115 -1t87.5 -12zM913 1411q-119 18 -198.5 59t-147 76t-135 49.5t-166.5 -20.5q-10 -2 -18 -10q49 41 97 55t101 14q90 0 151.5 -23.5t112 -58t97.5 -72.5t106 -69zM1491 328q0 76 -25.5 143.5t-81 119.5t-143.5 83 t-211 31q-156 0 -255 -49.5t-128 -127.5q4 -4 11.5 -6t11.5 -4q86 88 198.5 126t210.5 38q23 0 76 -13.5t107.5 -42t95.5 -73.5t41 -109q0 -47 -21.5 -81.5t-55.5 -57t-75 -34t-80 -11.5q-111 0 -186.5 25.5t-148 55.5t-157.5 55.5t-214 25.5q-68 0 -122 -14.5t-124 -42.5 q2 25 26.5 55.5t60.5 63t78 66.5t81 66q6 6 51 42t100.5 78t103.5 75t58 33h252q27 0 62.5 1t67.5 3t56 3l23 1q6 0 27.5 26.5t46 58.5t44 59.5t19.5 29.5q0 10 -2 20.5t-4 14.5q-76 0 -125 -2t-86 -3t-70.5 0t-76.5 5q18 27 87.5 99.5t145.5 162.5t137.5 182t61.5 156 q0 12 -7.5 33.5t-21.5 44t-32.5 39t-43.5 16.5q-35 0 -54 -31.5t-19 -48.5q0 -6 9 -27.5t21.5 -46t21.5 -48t9 -31.5q0 -31 -24.5 -53.5t-57.5 -36t-67.5 -19.5t-55.5 -6q-63 0 -108 54t-101.5 120t-142.5 120t-231 54q-96 0 -172 -32.5t-130.5 -79t-83 -96.5t-28.5 -83 q0 -63 44 -115.5t113.5 -89t153.5 -57t164 -20.5t134 13t54 34q0 4 -5 7t-5 7h-29q-106 -41 -201 -33t-167 42t-113 79t-41 78q0 41 53.5 71.5t114.5 30.5q76 0 131.5 -29.5t113.5 -64.5t132 -64.5t184 -29.5q72 0 116 11t124 40l14 -8q-72 -106 -171 -184t-232 -160 q-10 -2 -31.5 -1t-79.5 1q-102 0 -161.5 5t-92 6t-48 -5t-32 -27.5t-42 -63.5t-80.5 -110q43 -23 82.5 -23.5t77.5 3.5t74 5t73 -17q-104 -102 -174 -176t-117 -128.5t-74.5 -94.5t-48.5 -77q0 -33 -13.5 -68.5t-30.5 -72.5t-30.5 -74t-13.5 -73q0 -41 21.5 -78t78.5 -37 q66 0 66 65q0 16 -10.5 34t-22.5 37.5t-22.5 43t-10.5 49.5q0 57 60.5 90t138.5 33q104 0 179 -53t144.5 -116.5t146.5 -116t183 -52.5q147 0 243.5 41t153 98.5t79 119t22.5 100.5z" />
<glyph unicode="a" horiz-adv-x="1167" d="M440 92q-6 -14 -12 -22.5t-10 -18.5q-78 31 -119 60.5t-58.5 63.5t-20.5 72t-3 85q0 37 9.5 82t21.5 73.5t22.5 28.5t10.5 -51v-197q0 -6 6 -23.5t23.5 -43t49 -54t80.5 -55.5zM649 309q0 -39 -104 -106q-35 43 -50.5 58t-20.5 29.5t-4 38t1 81.5q0 51 -1 74.5t2 40 t14.5 35t37.5 56.5q37 -20 81 -54t44 -60v-193zM944 100q-8 -14 -16 -24t-13 -25q-90 47 -133 88t-58 87t-13 100.5t2 126.5v186q0 53 6 104.5t3 98.5t-24.5 90t-76.5 80q31 31 60.5 16.5t52 -45.5t36.5 -64.5t14 -44.5v-284q0 -74 -5 -145.5t5.5 -136t45 -118t114.5 -90.5z M649 754q0 -29 1 -57.5t-11 -71.5q-66 55 -94.5 83.5t-43 53t-24.5 53.5t-37 84v39q66 8 86.5 20.5t26.5 12.5q37 0 66.5 -52t29.5 -165zM1126 246q0 20 -8 24t-19.5 -2t-24.5 -17t-25 -22q-41 18 -58.5 40t-23.5 50.5t-6 63.5t-7 82q4 100 2 172t7 172q8 76 27.5 124 t41 76.5t37.5 43t16 24.5q0 8 -5 9t-13 14h-29q-14 -27 -23 -38t-52 -50q-90 88 -148.5 126t-93.5 38q-10 0 -44 -27t-74 -59.5t-78 -59t-58 -26.5q-2 0 -8 29.5t-23.5 64.5t-48.5 64.5t-84 29.5q-20 0 -41.5 -11.5t-37 -27.5t-26 -32.5t-10.5 -28.5q0 -31 26 -55.5 t57.5 -46t60 -42t35.5 -43.5q14 -49 33.5 -106.5t70.5 -116.5q-49 -27 -105.5 -43t-102.5 -42t-76.5 -74t-30.5 -140v-186q0 -23 -18.5 -50.5t-40 -55.5t-39 -52.5t-17.5 -42.5t20.5 -3t46 42.5t50 54.5t30.5 33q80 -70 138.5 -111t81.5 -41q18 0 31.5 14.5t36 42t59 68.5 t104.5 92q29 -20 72 -55t84 -67.5t75.5 -56t47.5 -23.5q18 0 54 37.5t69.5 85t59 88.5t25.5 49z" />
<glyph unicode="b" horiz-adv-x="1185" d="M694 201h-26q-51 41 -84 67.5t-51.5 54t-25.5 61.5t-7 87v47t2 85t6 91t8 68q2 27 24.5 52.5t37.5 45.5q18 -6 54 -33.5t62 -40.5v-585zM578 29q-10 0 -14.5 -2t-18.5 -13q-131 100 -195.5 143.5t-89 75t-22.5 77.5t2 155v838q0 39 -9.5 61t-21.5 36.5t-22.5 24 t-12.5 21.5q0 10 13.5 15t21.5 14q61 -31 83.5 -149t10.5 -296q-6 -80 -8 -144.5t-2 -126v-127v-145.5q10 -94 10 -146v-54q8 -16 49 -53t88 -77t88.5 -76t49.5 -52zM807 223q0 -23 -8 -33t-41 -24l14 608q4 29 -10 47.5t-37 32.5t-49.5 29.5t-48.5 40.5q12 8 19 17t22 17 q2 -2 24.5 -20t48 -39.5t46 -42t20.5 -27.5v-606zM1145 1030q-27 25 -48.5 22t-41 -19.5t-39 -41t-43.5 -45.5q-43 27 -73 53.5t-56.5 52t-56 50t-74.5 47.5q-20 -20 -32.5 -38.5t-30 -44.5t-46.5 -61.5t-84 -89.5q-10 12 -5 9.5t-13 7.5q0 70 -1 127t-4 112.5t-4 113.5 t-1 128q0 12 16 41t34.5 59.5t35 55t16.5 28.5q0 10 -15.5 13.5t-23.5 7.5q-16 -27 -22.5 -40t-11.5 -22.5t-14 -21.5t-34 -37q-43 37 -71.5 76t-67.5 39q-12 0 -36 -13.5t-46.5 -31l-40.5 -31.5t-21 -16q-76 -45 -112.5 -62.5t-36.5 -38.5q0 -12 21.5 -10t46 -2t45 -26.5 t20.5 -84.5v-178q0 -20 12.5 -35.5t12.5 -35.5q0 -84 1 -152t1 -131.5t-2 -131t-9 -151.5q-4 -59 -4 -98t1 -63.5t2 -39t1 -24.5q-8 -31 -23 -62.5t-31.5 -57t-30 -43t-13.5 -19.5q0 -39 16.5 -35t39 26.5t46 51t37.5 41.5l287 -199q51 18 87 38.5t69 42t68.5 44t84.5 43.5 q25 10 42.5 13t36 7.5t42 9.5t58.5 17v623q0 43 3 66.5t17 44t42 47t77 75.5z" />
<glyph unicode="c" horiz-adv-x="907" d="M473 119q-18 -14 -20 -27q-43 12 -91.5 42t-89.5 77t-67.5 112.5t-26.5 147.5v508h49q0 -78 -1 -139.5t-2 -119.5t0 -119.5t7 -137.5q6 -74 17.5 -111t37 -65.5t70.5 -63t117 -104.5zM700 922q-12 0 -17 -4.5t-15 -4.5t-42 10.5t-67 33t-61.5 56.5t-26.5 83q0 4 10.5 15 t20.5 19q12 -70 41.5 -108.5t62.5 -59t59.5 -27.5t34.5 -13zM866 1061q0 39 -18.5 72.5t-42 59.5t-45 41t-29.5 17q0 -10 9.5 -32.5t11.5 -45t-8.5 -40t-47.5 -17.5q-57 0 -86.5 37t-54.5 80h-35q-76 -63 -133 -101t-103 -57.5t-86 -26t-81 -6.5v-155.5v-136t2 -135 t8 -152.5q6 -78 1 -115t-17.5 -62.5t-31 -53t-38.5 -82.5q20 -8 39.5 0t37 22t33 28.5t27.5 20.5q111 -119 170.5 -162t85.5 -53l373 385q-14 8 -24.5 13.5t-28.5 9.5q-23 -27 -48.5 -54.5t-49 -51t-41 -39t-21.5 -15.5q-41 0 -74 31.5t-56.5 69.5t-34.5 71t-11 37 q-6 80 -5 145.5t4 128t7 128t4 145.5q14 -23 35.5 -50.5t49.5 -52t64.5 -41t84.5 -16.5q35 0 70.5 16.5t66 46t49 67.5t18.5 81z" />
<glyph unicode="d" horiz-adv-x="1222" d="M455 1075q0 -16 -28 -40.5t-61.5 -51.5t-62.5 -52.5t-29 -43.5v-582q0 -20 28 -44.5t60.5 -48.5t61.5 -45.5t29 -33.5q0 -10 -11.5 -20.5t-23.5 -22.5q-78 57 -126 95t-93 65v467q0 125 15 176t43 76.5t66.5 50t84.5 98.5q12 -6 29.5 -14.5t17.5 -28.5zM659 379 q0 -14 -86 -111q-41 33 -60 59.5t-26.5 57.5t-6.5 70t1 94q2 82 -2 143.5t13 145.5q6 33 30.5 52t50.5 46q31 -23 58.5 -64t27.5 -57v-436zM920 106q-31 -31 -39 -43q-82 63 -118 94t-45 58t-3 62.5t6 109.5v1065q0 23 -27.5 61.5t-62.5 63.5q16 14 23.5 23.5t15.5 17.5 q55 -20 91 -70.5t34 -130.5q-4 -137 -7.5 -250.5t-4.5 -222t-2 -223.5t1 -252q0 -74 -3 -113t6.5 -70.5t39 -69.5t95.5 -110zM1182 305q-20 27 -33.5 28t-27 -11.5t-30 -32t-42.5 -31.5q-45 45 -62.5 104.5t-23.5 131.5q4 125 8 228t7 201.5t5 202t2 228.5v70.5t12.5 59 t43 64.5t89.5 86v35q-18 0 -28 2t-25 4q-4 -8 -33.5 -47t-80.5 -59q-117 102 -161 150t-61 48q2 0 -22.5 -20.5t-57 -48t-61.5 -53t-37 -33.5q-82 -76 -130 -109t-48 -49q0 -8 4 -14t6 -15h33q51 41 93 77t61 36q14 0 29.5 -15.5t28.5 -34t21.5 -34.5t8.5 -20 q27 -201 13.5 -329t-24.5 -155q-55 55 -91 95t-61.5 70t-46 47.5t-42.5 27.5q-18 -16 -52 -46t-34 -34q0 -23 -29 -42t-63.5 -43t-64.5 -54.5t-30 -75.5q0 -10 -1 -37t-3 -59.5t-4 -66.5t-2 -60q0 -59 -1 -102.5t3 -100.5q0 -10 7.5 -36.5t3 -66.5t-27 -90.5t-79.5 -105.5 v-57h33q12 16 20 26.5t16.5 19.5t20.5 16t37 18q117 -86 168 -141.5t86 -55.5q18 0 41.5 26.5t51.5 63.5t61.5 76t72.5 63q16 -25 49 -62.5t71 -75.5t74 -68.5t56 -41.5z" />
<glyph unicode="e" horiz-adv-x="942" d="M518 76q-8 -8 -12 -11.5t-8 -13.5q-86 68 -138.5 98.5t-80 70.5t-35.5 113t-8 226q0 25 -4.5 120t16.5 243q2 25 37 43q27 0 33 -21.5t3.5 -64.5t-6.5 -111t4 -160q2 -27 1 -71.5t-1 -96t1.5 -101.5t9.5 -87q4 -20 20.5 -33.5t42 -30t58 -42t67.5 -70.5zM666 717l-20 -15 q-21 -16 -48 -37.5t-55.5 -44t-44.5 -38.5q-18 23 -22.5 52.5t-1.5 73.5t8 106.5t5 154.5q33 -27 76.5 -92.5t102.5 -159.5zM748 793q-16 -16 -35 -25q-20 27 -49 68t-56.5 84t-50 80.5t-31.5 54.5l11 18q45 -20 87 -83.5t124 -196.5zM901 381q-8 4 -18.5 15.5t-28.5 11.5 q-14 0 -46 -32t-66.5 -69t-66.5 -68.5t-44 -31.5q-29 0 -59.5 26.5t-55 65.5t-40 84t-15.5 82q0 8 32.5 32.5t80 59.5t103.5 75t103 79t79 71.5t32 53.5q0 129 -51.5 195.5t-126 89t-160.5 10t-154 -40.5q-76 -41 -116.5 -56.5t-62 -19.5t-30 -6t-18.5 -15v-491 q0 -6 -5 -11.5t-5 -13.5q0 -6 3 -36.5t6 -68.5t4 -73t-3 -47q-4 -14 -24.5 -39t-44 -50.5t-43 -46t-19.5 -26.5q0 -10 24.5 -18.5t34.5 -10.5q41 45 64.5 74t48.5 45q90 -68 142.5 -108.5t81 -64t43 -34t26.5 -16.5z" />
<glyph unicode="f" horiz-adv-x="1017" d="M586 100q-12 -12 -20.5 -22t-12.5 -19q-20 12 -59 45t-78 70t-66.5 68.5t-27.5 40.5q0 121 3 219t6 192t6 192.5t5 219.5q2 84 1 138t4 87t20.5 52.5t50.5 31.5q-4 -137 -7 -249.5t-6.5 -220t-3.5 -220.5t7 -250q2 -66 -3.5 -102.5t5 -69.5t48.5 -77t128 -126zM258 950 h-123q6 8 8 10.5t11 16.5q20 -4 53 -10.5t51 -16.5zM731 961q-35 -20 -70.5 -18.5t-74.5 7.5q31 20 64.5 19.5t80.5 -8.5zM879 1528q0 -25 -20.5 -49.5t-45.5 -51.5h-33q20 47 11 89.5t-60 70.5q14 6 23.5 12.5t25.5 6.5q33 0 66 -20.5t33 -57.5zM977 1528q0 53 -47 96 t-121 43q-133 0 -262 -86t-266 -203q-20 -90 -12.5 -149.5t5.5 -122.5q-92 0 -160.5 -35t-72.5 -153q0 -20 21.5 -24.5t35.5 -4.5q53 0 88 1t88 -1v-322q0 -82 -1 -134t-3 -84t-5 -47t-7 -26q0 -6 -25.5 -38.5t-55.5 -69.5t-54.5 -67.5t-22.5 -32.5q0 -4 7.5 -7.5t7.5 -9.5 h30q49 45 78 87t70 65q29 -23 63.5 -56.5t70.5 -67.5t70.5 -63.5t65.5 -44.5l334 432q-18 12 -33 27q-55 -43 -99 -104.5t-97 -92.5q-47 39 -67.5 61.5t-26 43t-3.5 45.5t0 70q0 2 -12 1t-12 9q0 8 8 12t8 12v392h209q10 63 36 100t46 100q-43 14 -91 11t-90 -5t-71 6.5 t-31 45.5q-8 94 -9 161.5t9 159.5q6 53 31 69.5t64 16.5q41 0 62.5 -26.5t21.5 -38.5q0 -33 -32 -54.5t-32 -25.5t5 -6t5 -15h158q23 16 45.5 27.5t38.5 26t27.5 37t11.5 59.5z" />
<glyph unicode="g" horiz-adv-x="1136" d="M510 -500q-27 16 -41 33.5t-31.5 37t-47.5 42t-87 49.5q37 25 58.5 44.5t37 37.5t27.5 38.5t31 47.5q14 -12 28.5 -21.5t14.5 -23.5q0 -12 -12.5 -24.5t-29 -24.5t-28.5 -24.5t-12 -24.5q0 -18 10 -33.5t23.5 -27t25.5 -17.5t15 -10q16 -31 9 -51.5t9 -47.5zM446 80 q-6 -12 -36.5 5t-66.5 45t-64.5 58.5t-28.5 47.5v561q0 86 13 108.5t40 36.5q2 -68 1 -124t-1 -109.5t2 -108.5t8 -125q6 -66 5 -107.5t-4 -68.5t-5 -40t4 -23t23.5 -24.5t39 -34t41 -43t29.5 -54.5zM856 -113q-25 35 -47.5 57.5t-37.5 45t-23.5 54.5t-6.5 85q6 117 8.5 211 t4.5 185t3 186.5t3 212.5q-20 25 -52 48t-63 41.5t-53.5 31t-22.5 18.5q0 4 6.5 8t10.5 14q37 -16 75.5 -37.5t70.5 -47t53.5 -55.5t21.5 -60v-797q0 -53 13 -101.5t36 -99.5zM678 330q0 -12 -11.5 -24.5t-25.5 -26t-27.5 -24.5t-17.5 -19q-59 20 -74.5 43.5t-14.5 52 t6 61.5t-13 74v530h20q8 0 34 -15t53.5 -34.5t49 -40t21.5 -30.5v-547zM1096 1106q0 4 -9.5 10t-19.5 19q-51 -70 -69.5 -90.5t-39.5 -20.5q-8 0 -56 29.5t-105.5 66.5t-107.5 69t-64 36q-45 -68 -116 -112t-139.5 -71.5t-121.5 -41t-62 -19.5v-684q0 -74 -22.5 -116 t-49 -69.5t-50 -45t-23.5 -41.5q0 -31 22.5 -21t52 37t59.5 58.5t46 43.5q53 -43 85 -72.5t51.5 -48t31.5 -27.5t25 -9q31 0 58.5 21.5t57 54t63.5 70.5t77 69q10 -35 8 -56.5t-6 -42t-5 -43t11 -59.5q14 -43 49 -85t69.5 -86t62.5 -92t28 -102q0 -70 -51.5 -116.5 t-149.5 -46.5q-59 0 -89 28.5t-30 57.5q0 33 21.5 50t48.5 28.5t48.5 21.5t21.5 29q0 4 -37 42t-83 81t-89 79.5t-52 38.5q-20 -31 -37.5 -65.5t-43 -70.5t-66.5 -67.5t-113 -54.5v-41q90 -4 135.5 -41t84 -78.5t90 -76.5t155.5 -35q72 0 146.5 33.5t134 89t97.5 127 t38 147.5q0 57 -13.5 115.5t-25.5 91.5t-14 37v942q0 23 13 40t27.5 32.5t28 28t13.5 24.5z" />
<glyph unicode="h" horiz-adv-x="1234" d="M367 98q-10 -6 -35 7.5t-55.5 34t-62.5 42t-54 31.5q53 63 76.5 97t30.5 59.5t5 56.5t-2 90q0 143 4.5 262t8.5 230.5t5 228.5t-3 260q0 16 -12.5 26.5t-26 18.5t-25.5 18.5t-12 28.5q0 6 17.5 19.5t35.5 42.5q4 -4 19.5 -18.5t32 -32t29.5 -35t13 -25.5q2 -127 3 -229.5 t0 -200.5t-4 -200.5t-9 -229.5q-6 -98 -6 -164.5t1 -108.5t0 -62.5t-7 -29.5q-6 -8 -20.5 -19t-31 -25.5t-28.5 -29t-12 -28.5t44 -36t81 -79zM971 117q0 -27 -20.5 -21t-50.5 25.5t-59.5 44t-47.5 37.5q2 94 6 170t8 148.5t5 148t-5 170.5q-4 49 -40 83.5t-79 82.5 q12 8 21.5 13t21.5 13q90 -53 124 -115.5t39 -120t-5 -101.5t-10 -58v-401q0 -18 14 -34t31.5 -29t32 -27.5t14.5 -28.5zM1194 256q0 10 -15.5 17.5t-29.5 11.5q-20 -37 -41 -35t-37 30.5t-26.5 83t-10.5 121.5v168q0 68 7.5 116t13.5 84t6 60.5t-14 44.5q-14 23 -57.5 40.5 t-76.5 64.5t-55 92t-51 62q-41 -29 -68.5 -60t-54.5 -59.5t-57.5 -56t-73.5 -50.5q0 8 -9 47t-12 103q0 55 -1 101t0 90t4.5 90t7.5 100q2 16 24.5 44.5t49 59.5t49 56.5t22.5 37.5q0 4 -4 8.5t-4 8.5h-33q-16 -29 -48 -56.5t-64 -54.5q-43 33 -64.5 54.5l-39 39t-41 35 t-75.5 39.5q-33 -55 -76.5 -101t-83.5 -85t-67 -68t-27 -47q0 -12 16.5 -21.5t39.5 -11.5q12 23 25.5 41.5t37.5 38.5q10 -10 26.5 -28.5t16.5 -28.5q2 -135 2 -247t-3 -217.5t-7 -216t-6 -245.5q-2 -109 -3 -156t-14.5 -70.5t-47 -43t-103.5 -74.5q115 -61 171 -104 t81.5 -72t36 -41t35.5 -12q8 0 12 1t14 1q2 43 28.5 73.5t61.5 56t75 50t71 55.5q-55 51 -77 96t-26 84t2 75t6 69q0 45 -3 114.5t5.5 136t32 114.5t76.5 48q14 0 29.5 -14t29 -32.5t21.5 -36t8 -21.5v-602q0 -31 -20.5 -60.5t-45 -54t-45 -42t-20.5 -23.5t7 -10.5t9 -10.5 h31q31 27 48.5 46.5t54.5 47.5q31 -23 62.5 -46t60 -44.5t51 -35t37.5 -13.5q12 0 50 37t78.5 83t72.5 85t32 45z" />
<glyph unicode="i" horiz-adv-x="743" d="M446 119q0 -10 -16 -23.5t-22 -21.5q-57 70 -88 93t-44.5 50t-14.5 83t-1 192v247q0 2 4 31t8 62.5t5.5 63.5t-3.5 38q-12 16 -32.5 22.5t-20.5 28.5q0 31 17.5 32t38 -13.5t38 -36t19.5 -33.5q6 -66 4 -119t-6 -105.5t-8.5 -106.5t0.5 -120q6 -119 2 -170t-2 -55 q10 -20 30.5 -37.5t41 -33t35.5 -32t15 -36.5zM440 1677q0 -12 -11 -23.5t-24.5 -21.5t-26.5 -21.5t-20 -23.5q-8 -14 0.5 -34.5t17.5 -40t11 -33t-18 -13.5q-12 0 -29.5 13.5t-34 30t-30 31.5t-21.5 22q8 8 39 40.5t63.5 60.5t58 38t25.5 -25zM702 262q0 14 -14 29h-39 q-23 -20 -33 -33.5t-26 -13.5q-37 0 -54.5 37.5t-22.5 90t-4 106.5t1 89q0 72 2 139.5t4 121t3 87t1 35.5q6 12 21.5 26.5t31 31t26.5 36t9 41.5h-41q-12 -8 -31.5 -30.5t-37.5 -22.5q-6 0 -34 21.5t-58.5 48t-55.5 46.5l-26 21q-16 -10 -88 -75.5t-183 -173.5 q0 -10 4 -17.5t6 -17.5h29q18 14 33.5 27.5t30.5 13.5q27 0 40 -31t13 -33v-459q0 -98 -25.5 -159.5t-57.5 -96t-58.5 -48t-26.5 -17.5q0 -6 6 -12.5t6 -12.5h53q27 33 53.5 57.5t61.5 47.5q84 -76 123 -117t78 -41q8 0 53 36t96.5 81t91 87t39.5 54zM608 1591q0 2 -26.5 33 t-58 64.5t-60.5 62.5t-35 29q-10 0 -54 -33t-93.5 -73t-88 -73.5t-38.5 -35.5q0 -18 12 -28.5t34.5 -27t54.5 -46t69 -87.5q35 12 84 44t93 67t75.5 64.5t31.5 39.5z" />
<glyph unicode="j" horiz-adv-x="823" d="M270 -244q0 -23 -13 -34t-28.5 -20t-29 -19.5t-13.5 -26.5q0 -10 10.5 -18.5t22.5 -16.5t22.5 -16t10.5 -21q0 -20 -5 -32.5t-5 -28.5q-51 39 -84 63.5t-33 57.5q0 31 41 57t104 55zM438 768q-2 -100 -3 -183t-3 -163t-3 -163t-1 -183q-20 37 -30.5 57.5t-15.5 32.5 t-6 19.5t-1 19.5v594q0 49 -6.5 78.5t-13.5 47t-14 24.5t-7 14q0 4 13 14t28 31q63 -29 66 -85.5t-3 -154.5zM551 1442q0 -29 -27 -29q-23 0 -47 33t-102 84l51 51t58.5 54.5t47 27.5t19.5 -27q0 -16 -13.5 -27.5t-29.5 -20.5t-29.5 -20.5t-13.5 -29.5q0 -6 13.5 -19.5 t29.5 -26.5t29.5 -27.5t13.5 -22.5zM782 1100q0 35 -19.5 27.5t-45 -32t-52 -54t-38.5 -42.5q-59 57 -94 103.5t-113 89.5q-27 -29 -107 -126t-198 -247q0 -10 13 -18t26 -8q20 0 49.5 36.5t77.5 73.5q23 -25 28.5 -38t5.5 -17q8 -96 11.5 -174t2.5 -151.5t-3 -151.5 t-4 -174q-2 -102 42 -167t96 -120t96 -115.5t44 -156.5q0 -86 -55.5 -144.5t-132.5 -58.5q-29 0 -70 25.5t-41 60.5q0 33 24.5 51t54.5 30.5t55.5 24t25.5 31.5q0 12 -13.5 20.5t-39 27t-63.5 52t-85 95.5h-43q-18 -37 -47 -60.5t-57.5 -43t-50 -40t-21.5 -53.5 q0 -35 34 -81t86 -88t114.5 -70.5t117.5 -28.5q80 0 145.5 34.5t113.5 92t74 128t24 144.5q0 12 -17.5 64.5t-40 110.5t-40 105.5t-17.5 49.5q-4 113 -4 204t2 178t6 178t8 202q2 35 23.5 67.5t46 62t45 53.5t20.5 38zM739 1542q0 6 -30.5 37t-70.5 65.5t-77 62.5t-47 28 q-2 0 -36 -30t-73.5 -65.5t-71.5 -66.5t-32 -35q-2 -6 26.5 -40t67.5 -71.5t75 -67.5t50 -30q12 0 48 32t74 72t67.5 73.5t29.5 35.5z" />
<glyph unicode="k" horiz-adv-x="1329" d="M1034 74q0 -35 -34.5 -20.5t-75.5 43t-73 55t-26 14.5q-12 12 -0.5 51t16.5 92t-8.5 116.5t-72.5 125.5q68 -33 102.5 -93.5t36.5 -156.5q2 -80 23.5 -117t47 -53t45 -24t19.5 -33zM420 78q0 -10 -16.5 -29.5t-18.5 -19.5q-47 45 -95 95t-120 75q37 27 74 65.5t37 85.5 v135.5t-1 211t-2.5 242.5t-2.5 231.5t-1 174v72.5q-6 35 -26.5 56.5t-34.5 36t-14 27.5t34 34q6 -2 23.5 -15.5t35 -31t32 -37t14.5 -37.5v-1149q-14 -33 -27.5 -46t-25 -18.5t-19.5 -8.5t-8 -15q0 -20 24.5 -33.5t55.5 -27t56.5 -29.5t25.5 -45zM784 702q-35 -12 -98 -41.5 t-141 -56.5v156q14 39 10 55t-6 26.5t7 27t50 57.5q16 -6 41 -27.5t51.5 -52.5t49 -69t36.5 -75zM899 752q-35 0 -71.5 33.5t-63.5 78.5t-41 91t-2 69q6 -6 30.5 -34.5t54.5 -68.5t56.5 -86t36.5 -83zM1288 315q-18 10 -26.5 14.5t-28.5 12.5q-14 -33 -32.5 -61.5 t-41.5 -28.5q-55 0 -69.5 28.5t-34 81t-68.5 125t-174 160.5q35 18 81 35.5t91 36t81 38t48 44.5l-278 424h-33q-70 -90 -121 -150.5t-129 -99.5l-21 280q0 125 17.5 198t40 113t40 56t17.5 29q0 23 -20.5 14.5t-46 -28t-50 -42t-30.5 -24.5q-45 55 -85 89t-71 50t-48 21.5 t-20 5.5q-12 0 -18 -5.5t-16.5 -20.5t-25.5 -43t-46 -75q-43 -68 -86 -109.5t-43 -56.5q0 -33 15.5 -32.5t36 14.5t43 32.5t34.5 22.5q25 -25 43 -122t14 -298q-2 -80 -2 -143v-124.5t-1 -125t-7 -141.5q0 -12 -4 -19.5t-4 -15.5q0 -45 9 -80t-1 -63q-16 -51 -38.5 -104.5 t-16.5 -103.5t56 -94t177 -75q51 61 100.5 108.5t87.5 78t61 46.5l24 15q0 18 -21.5 30.5t-47.5 39t-46.5 78.5t-20.5 149q0 18 34 42.5t65 24.5q49 0 74.5 -28.5t37 -66.5t13.5 -76t2 -54q-2 -86 -14.5 -145.5t-28 -98.5t-27.5 -57t-12 -21q0 -23 19.5 -14.5t43 27t43 39 t21.5 20.5q37 -27 58.5 -41t41 -26.5t44 -27.5t65.5 -42q31 25 76 82t88 117.5t75.5 108.5t36.5 52z" />
<glyph unicode="l" horiz-adv-x="790" d="M492 106q0 -8 -29 -36q-43 49 -80 63t-61.5 37t-33.5 77t5 183q-2 141 -3 258t-1 228.5t-3 228.5t-12 258q0 18 -13 35.5t-28.5 33t-29 25.5t-13.5 12q12 14 22.5 26.5t18.5 27.5q29 -14 73 -45t44 -66v-1167q0 -39 22.5 -65.5t49 -46t49.5 -35.5t23 -32zM750 293 q0 27 -12.5 30t-31 -8.5t-40 -31t-39.5 -35.5q-20 16 -38 29.5t-32 37t-22.5 64.5t-10.5 115q-6 147 -6 268t3 235.5t7 234.5t9 265q0 27 18 48.5t43 80.5q-33 14 -49.5 -11.5t-56.5 -60.5q-88 78 -128 115t-77 37q-27 0 -69 -45t-78 -101.5t-57.5 -107.5t-6.5 -66 q18 14 26.5 23.5t14.5 17t14 14.5t31 19q20 -20 33.5 -26.5t13.5 -38.5q0 -90 3 -224.5t7 -290t6 -319.5t0 -313q0 -25 -18.5 -45.5t-41 -39t-41 -34.5t-18.5 -31q0 -6 5.5 -10t7.5 -12h33q37 23 58 40t30 17q25 0 70.5 -16.5t103 -32.5t117 -23.5t108.5 10t80 69t31 153.5z " />
<glyph unicode="m" horiz-adv-x="1744" d="M369 66q-16 -12 -40 0t-51.5 33.5t-55 45t-54.5 33.5q18 27 58 78t40 131v338q0 59 -10 99t-22.5 67t-22.5 39t-10 16q0 8 8 15.5t14 13.5q37 -20 58.5 -59t23.5 -76q4 -63 6 -115.5t2 -103v-103.5v-117q0 -70 -8 -110.5t-18.5 -62t-18.5 -30t-8 -14.5q0 -10 12.5 -19 t28.5 -21.5t36 -30.5t32 -47zM688 408q-8 -43 -8 -70t-5 -47.5t-24.5 -40t-64.5 -47.5q-35 29 -52.5 61.5t-17.5 42.5v459q0 20 27.5 49t77.5 88q33 -27 46 -43t17 -51q6 -59 7 -107.5t0 -94.5t-3 -94t0 -105zM891 84q-14 -12 -26.5 -23.5t-26.5 -19.5q-37 33 -57.5 54.5 t-36 38t-32 28.5t-42.5 26q70 47 79 101.5t9 118.5q0 111 1 219t-14 219q-4 31 -16 48t-26.5 28.5t-24.5 17.5t-10 12q0 12 9 19.5t11 19.5q37 -10 60.5 -32.5t37 -47t17.5 -45t4 -26.5v-555q0 -18 -8 -28.5t-16.5 -19l-16.5 -16.5t-8 -20q0 -20 38 -46t95 -71zM1452 74 q-6 -6 -13 -9.5t-16 -7.5q-39 45 -70.5 71t-53 43t-33 31.5t-11.5 33.5v524q-6 27 -21 65.5t-27.5 75.5t-15.5 65.5t15 39.5q12 -6 29.5 -28t33 -47.5t27 -50t13.5 -40.5q12 -143 11 -249t-5 -176.5t-10.5 -108.5t-6.5 -48q0 -16 8.5 -27.5t27 -27t48 -40t70.5 -65.5v-24z M1704 281q0 27 -14.5 28.5t-34 -9.5t-40 -28.5t-34.5 -27.5q-37 27 -56.5 56.5t-28.5 75.5t-10 113.5t-1 169.5q0 117 20.5 191t45 120t47 71.5t28.5 45.5q-14 2 -20.5 5.5t-14.5 3.5q-51 -33 -69.5 -64t-55.5 -57q-8 10 -33.5 41t-56 62.5t-63.5 57t-60 25.5t-24.5 -1 t-8 -23.5t-54.5 -80t-160 -167.5q-8 10 -26.5 48t-48.5 83t-73 87t-100 60q-10 -18 -44 -59t-75 -85t-80 -81t-57 -47q-18 33 -27.5 61.5t-27 58t-49 61.5t-93.5 69h-39q-20 -51 -58 -95t-75 -81t-63.5 -67t-28.5 -50q0 -8 10 -15.5t12 -13.5h35q16 23 25.5 36t38.5 30 q6 -14 13 -41t13.5 -54.5t9.5 -50t3 -26.5v-352q0 -37 -19.5 -66t-43 -51.5t-44 -36.5t-20.5 -25q0 -25 23.5 -33t58 -24t72.5 -53t67 -121h53q63 82 137 135t111 74q53 -41 117.5 -93.5t138.5 -115.5q78 78 117 126t52 84t6 67.5t-19.5 75.5t-25.5 107.5t-13 166.5 q0 63 1 103t15 74t45 69.5t88 91.5q39 -12 54.5 -76t19.5 -145t2 -161.5t-2 -129.5q12 -94 -5.5 -157t-45 -102.5t-51 -60t-23.5 -31.5q0 -39 20.5 -35.5t46 25t52 48t39.5 36.5q78 -59 117.5 -92t61 -49.5t33 -21.5t29.5 -9q35 68 95.5 146t142.5 176z" />
<glyph unicode="n" horiz-adv-x="1257" d="M385 70q-8 -8 -27.5 4t-41 32.5t-44 43t-39.5 30.5q20 33 40 85t20 165v108.5t-1 97.5t-4 97t-7 107q-2 23 -13.5 46t-25 43.5t-23.5 34.5l-10 13q0 2 12 16.5t19 22.5h34q49 -61 71 -115.5t22 -157.5v-344q0 -31 -8.5 -66.5t-18.5 -66t-19.5 -52t-9.5 -28.5 q0 -12 17.5 -25.5t56.5 -51.5v-39zM981 78q-4 -4 -9 -10.5t-9 -16.5q-98 72 -138.5 112t-49.5 87t0 124t9 222q0 37 4.5 90t0 108.5t-24 102.5t-64.5 72q20 35 48 32.5t52.5 -20.5t42 -46t17.5 -46v-586v-94t10.5 -19.5t35 -18.5t75.5 -93zM1217 266q-18 43 -47 25.5 t-58 -41t-53.5 -27.5t-36.5 64q-6 76 -6 137t3 120.5t7 121t8 135.5q2 39 3 68.5t10.5 58t32 60.5t69.5 75v33h-35q-23 -16 -39 -29.5t-41 -34.5q-14 10 -42.5 27.5t-62.5 38t-70 40t-64 31.5q-82 -76 -139.5 -148.5t-123.5 -117.5q-12 27 -17 62.5t-23.5 72.5t-62.5 72 t-136 59q-25 -31 -68 -75.5t-83 -87.5t-70.5 -76t-30.5 -43q0 -27 12.5 -33t30.5 2t38.5 23.5t37.5 31.5q20 -18 31.5 -32.5t15.5 -31t5 -36.5t5 -51q8 -92 8 -157.5t2 -160.5q10 -66 -5 -112.5t-37.5 -79.5t-45 -49.5t-24.5 -20.5q96 -70 136 -111.5t55.5 -63t20.5 -29 t29 -7.5q33 10 98.5 71.5t161.5 162.5l-17 19q-17 20 -36.5 65t-37 117.5t-17.5 181.5q0 164 49 255t100 91q27 0 42.5 -37t24.5 -100.5t12 -149.5t3 -186q0 -127 -25.5 -204t-57 -121t-57.5 -62.5t-26 -26.5q0 -33 22.5 -24.5t52.5 33t56.5 53t34.5 36.5q78 -49 127 -112.5 t97 -81.5z" />
<glyph unicode="o" horiz-adv-x="1046" d="M449 66q-16 -16 -58.5 0t-91.5 48.5t-95 72.5t-69 71l12 662q16 0 31 6q6 -16 10.5 -69.5t5.5 -126.5t1 -152.5t1 -147.5t1 -114t2 -48q14 -23 50 -44t76 -45.5t76 -52t48 -60.5zM608 176q-68 63 -106.5 94t-58 48.5t-25.5 29.5t-7 39t-3 78t-13 147l15 371 q45 -29 88 -53.5t110 -75.5v-678zM721 203q-10 -2 -19.5 -3t-21.5 -5q-2 78 -4 141t-4 124.5t-3 125t1 141.5q0 39 11 68.5t-1 60.5t-61.5 70t-169.5 96q8 8 21 17.5t32 9.5q8 0 43 -20.5t73.5 -47.5t70.5 -52.5t32 -35.5v-690zM1006 1143q-20 6 -29.5 12t-22.5 6 q-12 0 -12 -9t-4 -24.5t-17.5 -36t-50.5 -42.5q-98 55 -177 99t-87 44q-14 0 -26.5 -13.5t-49 -38t-112.5 -62.5t-219 -87q-43 -16 -81 -21t-77 -20q12 -33 22.5 -51t10.5 -29v-675q109 -66 181.5 -106t129.5 -55.5t108.5 -8t116 35t150.5 73.5t213 110q-23 47 -28 86 t-4 70.5t0 58t-17 51.5q0 63 1 116.5t2 103.5t3 102.5t4 117.5q2 47 11 78t21.5 51.5t23 35t16.5 28.5z" />
<glyph unicode="p" horiz-adv-x="1179" d="M393 -510q0 -47 -26.5 -41t-63.5 32.5t-76 59.5t-63 39q41 51 60.5 93t25.5 84t4 89.5t-2 104.5q0 127 4 229.5t7 200.5t4 201.5t-5 230.5q-2 29 -14 50.5t-26.5 36.5t-27 25.5t-12.5 16.5q0 29 18.5 32t41 -9.5t42 -37t19.5 -50.5q6 -150 3 -272t-8 -238.5t-8 -238.5 t3 -271q0 -12 4 -25.5t7 -35t1 -53.5t-12 -81q-14 -63 0 -85.5t36.5 -30t43 -14.5t20.5 -42zM721 395q0 -51 -12.5 -79.5t-29.5 -47t-40 -33t-45 -34.5q-39 20 -60.5 41.5t-31.5 58.5t-11.5 93.5t-1.5 146.5v176q0 20 13.5 39.5t33 40t41 44t39.5 54.5q35 -18 52.5 -38.5 t52.5 -37.5v-424zM860 459q0 -88 -15.5 -141.5t-40 -89t-57 -62.5t-67.5 -60q-10 6 -20.5 13.5t-20.5 17.5q57 45 91 101.5t49.5 132t19.5 177t4 236.5q0 27 -29 82.5t-106 89.5l45 35q96 -80 121.5 -109.5t25.5 -50.5v-372zM1139 1096q-18 4 -35 -8.5t-32 -33t-31.5 -41 t-36.5 -32.5q-125 96 -176.5 142t-77.5 46q-68 0 -119 -3t-101.5 -5t-110 -5t-143.5 -3q-33 -10 -92 -87t-143 -200q0 -10 4 -15t8 -13h31q2 0 15.5 16t35.5 31q18 -20 35.5 -55t17.5 -56v-909v-131t-8 -46.5t-30.5 -28.5t-65.5 -79q80 -49 127 -87t75.5 -64.5t49 -43 t49.5 -22.5q35 63 74 106.5t73.5 71t63.5 45t43 29.5q-55 47 -86 67.5t-47.5 50t-20.5 87t-4 176.5q0 43 -1 67.5t-1 41t4 29.5t17 32q70 -51 109.5 -106.5t103.5 -131.5q35 18 91 64.5t110.5 98.5t93.5 99.5t39 67.5v530q0 88 11 136.5t26.5 76t31 46t23.5 49.5z" />
<glyph unicode="q" horiz-adv-x="1169" d="M455 102q-16 -16 -56.5 3.5t-81.5 53.5t-72.5 75.5t-31.5 72.5q2 76 5 138.5t6 122t5 123t4 140.5v70t35 51q2 -8 7.5 -46t9.5 -95t6 -129t-4 -150q-4 -45 -11.5 -87t-7.5 -81.5t13.5 -76.5t50.5 -72q23 -23 58.5 -41.5t64.5 -71.5zM854 -465l-3 -7t-5 -24h-35 q-45 43 -81 72t-107 66q25 43 41 60t27 36.5t18.5 54.5t9.5 109q6 131 9 238.5t4 211t2 211t3 238.5q0 29 -21.5 64.5t-53 71.5t-70.5 65.5t-74 46.5q8 4 16.5 12t20.5 8q6 0 33.5 -13.5t63.5 -41t72 -72.5t56 -111q-4 -137 -5 -249.5t-2 -221t-3 -222t-10 -253.5 q-2 -63 -13.5 -102t-22.5 -62.5t-19.5 -34t-8.5 -16.5q0 -14 26 -29.5t55.5 -33t54 -36t22.5 -36.5zM668 776q0 -82 -1 -177t-10 -189q-4 -45 -29.5 -78t-58.5 -74q-33 16 -63.5 47t-30.5 41q-8 92 -6 169t7 150.5t11.5 149.5t6.5 168q68 -29 121 -87.5t53 -119.5z M1128 1120q-20 6 -40.5 -6t-40 -31.5t-38 -40t-36.5 -32.5l-293 211q-49 -18 -93 -56.5t-122 -74.5q-74 -35 -131.5 -53.5t-97 -29t-64.5 -18.5t-35 -20q-2 -6 2 -24.5t10.5 -41t13.5 -44t9 -36.5q4 -74 4 -135t-1 -118.5t-5 -119t-10 -135.5q-2 -35 -21.5 -70.5t-41 -65 t-39 -52.5t-17.5 -29q0 -8 13.5 -17t25.5 -18q27 16 32 22.5t8 16t13 26.5t49 56q43 -14 78 -44.5t64.5 -61.5t56.5 -54.5t53 -23.5q27 0 51.5 26.5t50 62.5t52 72t55.5 54q20 -35 27.5 -85t5.5 -105.5t-8 -108.5t-11 -96q-4 -37 -26.5 -66.5t-47 -53.5t-45 -40t-20.5 -25 q0 -4 41 -32.5t76 -50t41 -25.5q41 -27 62.5 -49.5t33.5 -36.5t23.5 -22.5t31.5 -8.5q8 0 15.5 4t17.5 15.5t28.5 33t51.5 58.5q25 27 51.5 44t50 28.5t39 18.5t15.5 17q0 8 -18.5 25.5t-42 39t-43 46t-19.5 47.5v254t2 224.5t6 224t12 253.5q2 41 2 89.5t-2 101.5 q6 18 24.5 38.5t39 44t40 49t31.5 54.5z" />
<glyph unicode="r" horiz-adv-x="956" d="M516 123q-8 -10 -12 -15.5t-6 -15.5q-8 6 -46 37t-80 69t-76 75.5t-34 60.5v297q0 6 5 43t9.5 82t5.5 87t-8 58q-14 29 -31.5 43t-26.5 24.5t-5 25t33 42.5q59 -45 76.5 -96t17.5 -115v-329q0 -8 -8 -54.5t2 -104.5t50 -117.5t134 -96.5zM766 903q0 -39 -43 -45 q-10 37 -26.5 55.5t-32 34t-21.5 33.5t6 55q31 -18 74 -60t43 -73zM915 983q0 20 -26.5 59t-63.5 78t-75.5 71t-65.5 40q-90 -195 -147 -227q-70 53 -106 93t-54.5 66.5t-31.5 40t-38 13.5q-6 0 -48 -46.5t-91 -103.5t-88 -109.5t-39 -64.5q0 -20 12.5 -22.5t29.5 7t34.5 25 t27.5 29.5q53 -47 60.5 -94t3.5 -109q-4 -90 -3 -153.5t-7 -153.5q-6 -63 -24.5 -104.5t-38 -69t-36 -46t-16.5 -36.5q0 -8 3 -15.5l7 -17.5h31q29 27 37 51.5t53 51.5q80 -63 125 -107.5t72.5 -73t45 -45t40.5 -24.5q125 150 206.5 250t81.5 126q0 8 -5 11.5t-15 17.5h-29 q-35 -51 -55 -77.5t-61 -55.5q-35 27 -65 64.5t-30 68.5v459q0 2 22.5 29.5t51.5 44.5q45 -35 69.5 -64t39 -48t24.5 -29.5t27 -10.5q23 8 60.5 64.5t94.5 146.5z" />
<glyph unicode="s" horiz-adv-x="1048" d="M545 135q0 -18 -26.5 -38.5t-61.5 -43.5q-8 49 -33 78t-57.5 43t-70.5 19.5t-73 11.5q10 6 41 20.5t43 14.5q4 0 42 -6.5t81 -19.5t79 -32.5t36 -46.5zM643 285q-51 23 -69.5 36t-41 19t-64.5 8t-140 2q4 2 42 40t87 84t99 87t77 53q10 -86 13 -119.5t3 -55t-3 -51 t-3 -103.5zM254 551q-14 -2 -25.5 -4t-23.5 -4l-15 323q10 31 12.5 46.5t12.5 43.5h39q14 -47 19.5 -83.5t3 -78.5t-8.5 -98.5t-14 -144.5zM782 657l-14 -436q-14 -2 -22.5 -4t-18.5 -4q-6 16 -10 51t-5 73t-2 71.5t-3 46.5q0 31 -2.5 61.5t3 58t21.5 49t53 33.5zM739 874 q0 -8 -23.5 -42.5t-60.5 -74.5t-84 -75t-96 -41v330q106 -35 184 -65t80 -32zM676 971q-51 18 -86 31.5t-84 48.5q20 10 38.5 22t33.5 12q31 0 50 -42.5t48 -71.5zM1008 1186q0 10 -13.5 35.5t-42.5 25.5q-25 0 -32 -15t-10 -43t-8 -65t-28 -80h-22q-55 31 -74.5 58.5 t-28 51.5t-16.5 43.5t-39 33.5q-117 -90 -216 -131t-174 -60.5t-120 -31t-55 -43.5q0 -2 -7 -114t-7 -357q0 -16 20.5 -22.5t32.5 -6.5q10 0 50 13.5t84 29.5t80 29.5t38 13.5q14 0 -24 -41t-88 -90t-93 -91t-43 -44q-131 -156 -131 -258q0 -31 4 -51.5t49 -20.5 q35 0 50.5 7t15.5 44q0 23 -6.5 50.5t-6.5 52t14.5 42t55.5 17.5q90 0 139.5 -62.5t55.5 -128.5h53q68 70 154 116t164.5 75t137 41t68.5 12v543h-71q-33 -10 -88.5 -26.5t-122.5 -16.5q74 68 129 144.5t94 144t58.5 117t19.5 59.5z" />
<glyph unicode="t" horiz-adv-x="849" d="M526 121q-6 -4 -16 -11.5t-12 -11.5q-88 57 -131 94t-59.5 62t-14.5 43t2 43q2 109 3 199t3 176t5 176t9 199q4 53 5.5 84.5t6.5 50t16 29t34 22.5v-604l-23 -344q4 -39 24.5 -62.5t47.5 -44t54.5 -43t45.5 -57.5zM227 1018q-18 -27 -40.5 -30t-31 3t5 16.5t66.5 10.5z M715 1010q-35 -2 -53.5 -2t-83.5 2q-6 14 9 22t39.5 12.5t50 5.5t38.5 1q6 -23 0 -41zM809 393q0 8 -4 12.5t-6 14.5h-35q-33 -63 -65.5 -84t-39.5 -21q-6 0 -24.5 12.5t-39 32t-35.5 46t-15 57.5q0 47 1 85t2 74.5t3 75.5t4 86q2 63 -2 107.5t25 60.5q12 8 32.5 6t43 -6 t44 -6t35.5 6q6 2 19.5 53.5t56.5 110.5v45h-242v254q0 63 3 128t-44 91q-20 -33 -48.5 -107.5t-78.5 -129.5q-18 -20 -43.5 -40t-48 -36t-39 -27.5t-18.5 -17.5q-4 -12 2 -23.5t10 -23.5t4 -25.5t-16 -29.5q-8 -10 -23.5 -10.5t-34 1.5t-38 0t-37.5 -18q-6 -2 -21.5 -60.5 t-54.5 -140.5q8 -4 21.5 -9t27.5 -5q43 0 75 4t52.5 -8.5t28.5 -50t2 -119.5q-4 -55 -3 -100.5t2 -88.5t1 -89t-6 -101q-6 -51 -8.5 -75.5t-10.5 -43t-25.5 -41t-52.5 -65.5v-41h41l64 73h24q55 -37 91 -66.5t60 -53t41 -40t36 -28.5q92 88 161.5 182t145.5 213z" />
<glyph unicode="u" horiz-adv-x="1185" d="M463 133q-23 -23 -40 -20.5t-41 23t-61.5 57t-99.5 83.5q0 76 -1 136.5t-1 119t1 119t7 135.5q6 74 -5 119t-26.5 70.5t-28.5 36.5l-13 10q0 2 5 8t9 14q86 -29 105.5 -80t19.5 -120q-2 -29 -3 -146.5t-5 -302.5q0 -49 6 -77.5t24.5 -53t54.5 -53.5t93 -78zM926 147 q-25 -20 -31 -27l-12 -14q-76 82 -127 123t-51 78q0 76 1 138.5t3 122t5 121t7 136.5q2 49 -7 83t-21.5 55.5t-23 34t-10.5 18.5q0 10 9.5 17t15.5 18q49 -14 73.5 -62.5t34 -115t6.5 -144.5t-10.5 -151.5t-15.5 -136t-8 -99.5q0 -57 46 -93t116 -102zM1145 324v41h-33 q-25 -20 -36 -36t-46 -36q-63 51 -63 80v493q0 25 12 47.5t28.5 39t29 29.5t12.5 19q0 2 -12.5 18.5t-27 35t-27.5 35t-15 18.5q-51 59 -95.5 99t-62.5 40q-23 0 -60.5 -35.5t-73.5 -81t-62.5 -82t-26.5 -40.5q0 -6 11 -18.5t25.5 -37t25.5 -64.5t11 -102q0 -102 -1 -175.5 t-9 -174.5q-2 -37 -5 -60.5t-10 -40t-22.5 -29.5t-44.5 -30q-59 43 -80.5 74t-22.5 63.5t8 77t9 115.5v238q0 127 -30.5 205.5t-68.5 123t-73 59.5t-43 15q-27 0 -65.5 -32.5t-74.5 -73.5t-60.5 -77t-24.5 -42q0 -18 20.5 -30.5t44 -38t43 -75t19.5 -139.5q-2 -94 -3 -161.5 t-11 -163.5q-14 -121 -38 -174.5t-67 -92.5q0 -4 8.5 -13t14.5 -21h34q16 18 23.5 29.5t16 19.5t19.5 16t34 23q106 -94 155 -131t80 -37q18 0 46 26.5t57.5 61.5t59.5 68.5t52 46.5q78 -57 114 -91t55.5 -56.5t33.5 -35t49 -26.5q20 18 35.5 39.5t39 54.5t62.5 81t107 122z " />
<glyph unicode="v" horiz-adv-x="1073" d="M594 96q0 -10 -12.5 -18t-18.5 -17q-119 96 -177 140.5t-81.5 68t-21.5 44t4 69.5q2 68 5 123t6 108.5t3 108.5t-4 123q-2 41 -19.5 62.5t-37 34.5t-35 22.5t-15.5 25.5q0 8 8.5 18.5t18.5 24.5q141 -84 143 -194q2 -63 2 -116.5t-1 -104t-4 -102.5t-7 -116 q-4 -76 34 -120.5t84 -75.5t86 -54.5t40 -54.5zM854 934q0 -35 -19.5 -32t-45 22.5t-50 46t-32.5 37.5l43 32q63 -43 104 -106zM1032 1032l-26 26q-27 25 -63 56t-70.5 58.5t-47.5 31.5q-25 -33 -59.5 -66.5t-66 -62t-54 -48t-22.5 -23.5q0 -8 27.5 -34t61 -56.5t61.5 -60.5 t28 -46v-348q0 -41 -18.5 -108.5t-96.5 -127.5q-70 39 -113 88t-45 58v333q0 68 3.5 135.5t-15 131t-70 124t-159.5 115.5q-16 -16 -54 -52t-78 -80t-70 -92t-30 -87h33q18 16 23.5 26.5t17.5 10.5q33 0 51.5 -26.5t55.5 -53.5q-2 -80 -2.5 -145.5t-1.5 -129t-3 -129 t-6 -147.5q-2 -23 -18.5 -47.5t-35.5 -48t-34.5 -44t-15.5 -34.5q0 -25 23.5 -13.5t50 34t48 45t17.5 20.5q31 -14 77 -50t91 -75t80 -72.5t41 -44.5h26q57 70 105.5 121t85.5 106.5t60.5 124t31.5 173.5q4 39 7 84t6 84t4 65.5t1 28.5q0 72 26 116t55.5 71.5t54 46 t22.5 38.5z" />
<glyph unicode="w" horiz-adv-x="1572" d="M498 121q0 -14 -11.5 -26.5t-19.5 -22.5q-115 53 -164 108.5t-63.5 102.5t-6 83.5t10.5 53.5q6 63 10 115.5t6 102.5t0 102.5t-6 115.5q-2 27 -17.5 48.5t-33 37.5t-32.5 26.5t-15 12.5q0 10 15 20.5t30 30.5q70 -49 103.5 -87t33.5 -85q-2 -63 -23.5 -187t-21.5 -304 q0 -35 31.5 -72t70.5 -70.5t71 -62.5t32 -43zM1047 86q0 -10 -15.5 -19.5t-27.5 -19.5q-96 113 -149.5 169t-77 88t-25.5 54.5t6 69.5t18 134t10 247q0 10 -2 35.5t-9 56.5t-21.5 60.5t-38.5 48.5q23 20 35 41q74 -47 94 -139.5t16 -197t-19.5 -209t-15.5 -175.5 q0 -23 35 -63t76 -80t76 -69.5t35 -31.5zM1354 899q0 -43 -23.5 -35t-53.5 34t-53.5 54.5t-23.5 26.5q0 27 23.5 21.5t53.5 -24t53.5 -42t23.5 -35.5zM1532 993l-26 29q-27 29 -61 65.5t-68 70.5t-50 44l-231 -231q76 -61 113.5 -88t54 -54.5t17.5 -72.5t1 -144 q0 -23 5 -71.5t-3 -107t-40 -117t-105 -101.5q-74 63 -100.5 98t-26.5 58v524q0 39 -27 83t-57.5 88t-57 87t-26.5 84q-10 -6 -21.5 -15.5t-33 -31t-61.5 -59t-107 -103.5q20 -20 39.5 -36.5t35 -42t24.5 -65.5t9 -110q0 -137 -8 -232.5t-25.5 -157.5t-44 -95t-61.5 -47 q-31 33 -51.5 49t-31.5 33.5t-15.5 43t-4.5 76.5q0 117 19.5 216.5t15.5 190.5t-52 178t-183 181q-49 -41 -94.5 -90t-78 -92t-53 -72.5t-20.5 -31.5q0 -8 6 -10.5t6 -10.5h35q33 10 54.5 -2t34.5 -36.5t18.5 -57.5t3.5 -66q-2 -96 0 -164.5t-9 -164.5q-6 -74 -30.5 -127.5 t-50 -89t-47 -55t-21.5 -27.5q0 -10 6 -9.5t6 -7.5h35q18 27 47 56.5t55 58.5q45 -39 87 -77t78 -67.5t61.5 -48t38.5 -18.5q25 0 55.5 35t64 81t69.5 89t67 59q76 -59 123 -108.5t77.5 -87t54 -63t56.5 -38.5q96 100 160.5 185.5t103.5 173.5t55.5 186t16.5 223 q4 61 32.5 102.5t60.5 70t56.5 48t24.5 37.5z" />
<glyph unicode="x" horiz-adv-x="1105" d="M262 127q0 -18 -18 -43q-39 47 -75 88t-36 43q0 37 20.5 32t44 -27.5t44 -52.5t20.5 -40zM803 147q-4 -8 -10.5 -20t-24.5 -29q-92 72 -150.5 154t-97.5 167t-66.5 169t-61.5 157.5t-82 135t-128 100.5q12 18 19 37q88 -41 147.5 -115t102.5 -162t77.5 -182t72.5 -177 t85 -146.5t117 -88.5zM879 889q0 -16 -7.5 -22.5t-17.5 -16.5q-25 43 -43 62.5t-29.5 31.5t-16.5 27.5t-5 54.5q4 0 22.5 -18.5t40 -42t39 -46t17.5 -30.5zM1065 391q-8 12 -10 20.5t-2 10.5h-41q-25 -29 -52.5 -66t-41.5 -49q-61 25 -110.5 97.5t-85.5 149.5t-55.5 137.5 t-19.5 62.5q2 6 12.5 36.5t25.5 71.5t20 49q55 -43 92 -87t57 -60q16 10 43 47t51.5 78t42 78t17.5 45q0 14 -25 53t-58.5 81t-65.5 74.5t-48 32.5q-27 0 -52.5 -51t-52 -116.5t-55 -127t-61.5 -84.5q-10 14 -42 74t-75 124.5t-91 115.5t-93 51q-10 0 -23.5 -15.5t-27 -35 t-23.5 -36.5t-14 -19q-12 -18 -45 -65.5t-59.5 -96.5t-35 -88t26.5 -39q20 0 29.5 29.5t23.5 50.5q68 -39 120 -115t88 -152.5t54.5 -134t18.5 -59.5q0 -35 -26.5 -83t-47.5 -65q-61 57 -88 103.5t-53 46.5q-16 -10 -57 -73.5t-109 -170.5q0 -12 30.5 -48t69.5 -75t74 -70.5 t43 -33.5q49 55 75.5 106.5t46 97.5t38 88t49.5 79q23 -27 51.5 -77t68.5 -103.5t93 -102.5t123 -74z" />
<glyph unicode="y" horiz-adv-x="1232" d="M1020 -272q-88 27 -164 23.5t-153.5 -17t-163.5 -29.5t-193 -16q-47 0 -70.5 3t-39 9t-31 14.5t-43.5 18.5q27 -2 42 -5t25.5 -5.5t22.5 -3.5t37 -1q82 0 165 11.5t158.5 26t139 25.5t104.5 11q80 0 106.5 -9t57.5 -56zM383 133q0 -33 -19.5 -42t-48.5 -1v477q0 8 5.5 36 t9.5 62.5t7 69.5t1 60q-8 68 -19.5 95.5t-21.5 40.5t-16.5 23.5t-6.5 40.5q29 -10 69 -43.5t40 -93.5v-725zM768 625q0 -156 -5 -247t-23.5 -141.5t-55.5 -70t-104 -33.5q-23 123 -11 262q20 219 23.5 330t5.5 119q14 20 34.5 34.5t41.5 53.5q33 -14 59.5 -33.5t34.5 -24.5 v-249zM893 672q0 -43 -1 -104.5t-7 -123t-21.5 -116t-44.5 -84.5q0 53 3 96t5 85t4.5 86t2.5 97q0 23 6 79t2 116.5t-26.5 110t-78.5 55.5q4 23 6 30t5 13q74 -25 106.5 -74t41.5 -101.5t3 -98.5t-6 -66zM1192 1141h-45q-16 -18 -24.5 -32.5t-18.5 -28t-23.5 -27 t-38.5 -27.5q-80 61 -117.5 91t-37.5 48q0 25 23.5 39.5t23.5 40.5q0 16 -16.5 21.5t-30.5 13.5q-33 -41 -68 -89t-71.5 -93t-76.5 -84t-81 -60q-70 74 -108 113t-54 59.5t-15 28.5t8 18.5t16 29t9 59.5h-45q-18 -20 -36.5 -44t-49 -63t-82 -97.5t-139.5 -146.5v-30 q16 -2 21.5 -5.5t25.5 -9.5q18 16 33.5 31.5t30.5 26.5q23 -16 42 -33t19 -41v-678q0 -66 -16.5 -98.5t-42 -49t-55 -24.5t-54 -24.5t-41 -47t-16.5 -94.5q0 -57 32.5 -95t80 -61.5t104.5 -34t107 -10.5q176 2 303 32t184 32q49 0 97 -12.5t48 -57.5q0 -31 -39.5 -60.5 t-95 -51t-114 -34.5t-95.5 -13q-76 0 -131 14t-98 32.5t-80 38t-78 29.5v-22q29 -41 83 -69t114.5 -43t115 -21.5t83.5 -6.5q47 0 124.5 16.5t152.5 52.5t129 92.5t54 135.5q0 57 -27.5 100.5t-68.5 72t-90 43t-92 14.5q-31 0 -87.5 -14.5t-132 -31t-164.5 -30.5t-186 -14 q-68 0 -100.5 25.5t-32.5 39.5q0 35 27 46.5t90.5 20.5t170 28.5t265.5 72.5q178 57 277.5 141t111.5 222q10 92 10.5 157.5t0.5 155.5q0 86 -8.5 135t-2.5 64q4 12 19.5 31.5t34 42t34 49t21.5 53.5z" />
<glyph unicode="z" horiz-adv-x="1026" d="M723 166q0 -27 -15.5 -40t-27.5 -40q-20 18 -30.5 32.5t-30 35t-56.5 52.5t-110 85q12 2 56 -9.5t91 -30t85 -42t38 -43.5zM670 911q-43 -8 -64.5 -14t-37 -9t-33 -5t-52.5 -2q-8 0 -41.5 6t-70.5 16t-64.5 22.5t-27.5 24.5q0 4 12 18.5t33 57.5q55 -51 102 -75.5t88 -34 t79 -7.5t77 2zM985 457q0 16 -13.5 19t-25.5 9q-53 -63 -68.5 -99t-41.5 -36q-18 0 -93 32t-198 32q-98 0 -170 -22.5t-109 -39.5q16 33 91 92.5t188 147.5q16 4 65 0t101.5 -2t93.5 17.5t41 58.5q0 10 -12.5 10t-36 -3t-57 -4t-78.5 9q8 18 57 73.5t104.5 123t99.5 134 t44 109.5q0 4 -2 22.5t-10.5 39t-25 36t-42.5 15.5q-31 0 -50.5 -27.5t-19.5 -42.5l9 -25q8 -26 3.5 -55.5t-30 -54.5t-92.5 -25q-63 0 -116.5 28t-97.5 66t-76 80t-52 70h-31q-25 -90 -58.5 -153.5t-64.5 -108.5t-52.5 -74.5t-21.5 -54.5q0 -18 13.5 -24.5t35.5 -14.5 q20 23 25.5 40t9.5 34q53 -8 110.5 -23.5t125.5 -34.5q94 0 151.5 17.5t67.5 17.5q4 0 6 -6t12 -6q-98 -117 -162.5 -148.5t-113.5 -34.5t-92 -5t-95 -60v-28q27 2 62 4t88 -9q-8 -10 -61.5 -58t-115 -115.5t-112.5 -148.5t-51 -159q0 -59 35 -102t119 -43q72 0 111.5 39 t39.5 90q0 86 -70 86q-6 0 -26 -10v-23q20 -18 55 -68q0 -20 -41 -40.5t-69 -20.5q-53 0 -79 36t-26 56q0 33 22.5 68t57.5 62.5t72 45t63 17.5q68 0 130.5 -48.5t113.5 -105.5t89 -105.5t58 -48.5q25 0 50.5 32t48 72t37 76t16.5 44q25 66 49.5 108.5t44 71.5t31.5 46.5 t12 29.5z" />
<glyph unicode="&#xad;" d="M729 610q-131 -25 -217 -28.5t-140.5 1.5t-83 11t-44.5 0t-21.5 -16.5t-13.5 -22.5t-24.5 -23.5t-55.5 -17.5q23 25 31 44.5t30 59.5zM821 659q0 2 -4 10.5t-4 12.5l-672 -14q-12 -8 -26.5 -33t-27.5 -54.5t-25.5 -60.5t-20.5 -55h559q113 0 167 55t54 139z" />
<glyph unicode="&#x2000;" horiz-adv-x="971" />
<glyph unicode="&#x2001;" horiz-adv-x="1942" />
<glyph unicode="&#x2002;" horiz-adv-x="971" />
<glyph unicode="&#x2003;" horiz-adv-x="1942" />
<glyph unicode="&#x2004;" horiz-adv-x="647" />
<glyph unicode="&#x2005;" horiz-adv-x="485" />
<glyph unicode="&#x2006;" horiz-adv-x="323" />
<glyph unicode="&#x2007;" horiz-adv-x="323" />
<glyph unicode="&#x2008;" horiz-adv-x="242" />
<glyph unicode="&#x2009;" horiz-adv-x="388" />
<glyph unicode="&#x200a;" horiz-adv-x="107" />
<glyph unicode="&#x2010;" d="M729 610q-131 -25 -217 -28.5t-140.5 1.5t-83 11t-44.5 0t-21.5 -16.5t-13.5 -22.5t-24.5 -23.5t-55.5 -17.5q23 25 31 44.5t30 59.5zM821 659q0 2 -4 10.5t-4 12.5l-672 -14q-12 -8 -26.5 -33t-27.5 -54.5t-25.5 -60.5t-20.5 -55h559q113 0 167 55t54 139z" />
<glyph unicode="&#x2011;" d="M729 610q-131 -25 -217 -28.5t-140.5 1.5t-83 11t-44.5 0t-21.5 -16.5t-13.5 -22.5t-24.5 -23.5t-55.5 -17.5q23 25 31 44.5t30 59.5zM821 659q0 2 -4 10.5t-4 12.5l-672 -14q-12 -8 -26.5 -33t-27.5 -54.5t-25.5 -60.5t-20.5 -55h559q113 0 167 55t54 139z" />
<glyph unicode="&#x2012;" d="M729 610q-131 -25 -217 -28.5t-140.5 1.5t-83 11t-44.5 0t-21.5 -16.5t-13.5 -22.5t-24.5 -23.5t-55.5 -17.5q23 25 31 44.5t30 59.5zM821 659q0 2 -4 10.5t-4 12.5l-672 -14q-12 -8 -26.5 -33t-27.5 -54.5t-25.5 -60.5t-20.5 -55h559q113 0 167 55t54 139z" />
<glyph unicode="&#x2013;" horiz-adv-x="1106" d="M944 610q-172 -25 -285 -28.5t-184.5 1.5t-108.5 11t-58 0q-22 -6 -29 -16.5t-17.5 -22.5t-32 -23.5t-72.5 -17.5q30 25 40.5 44.5t39.5 59.5zM1065 659q0 2 -5.5 10.5t-5.5 12.5l-882 -14q-15 -8 -34.5 -33t-36.5 -54.5t-33 -60.5t-27 -55h734q148 0 219 55t71 139z" />
<glyph unicode="&#x2014;" horiz-adv-x="2130" d="M1847 610q-344 -25 -569.5 -28.5t-368.5 1.5t-218 11t-117 0t-56.5 -16.5t-35.5 -22.5t-64.5 -23.5t-145.5 -17.5q60 25 81 44.5t79 59.5zM2089 659q0 2 -10.5 10.5t-10.5 12.5l-1764 -14q-32 -8 -70 -33t-72 -54.5t-67 -60.5t-54 -55h1468q296 0 438 55t142 139z" />
<glyph unicode="&#x2018;" horiz-adv-x="532" d="M293 1559q-14 -2 -15.5 -12.5t-15.5 -10.5q-29 0 -50.5 34t-86.5 70q37 29 78 54.5t59 42.5q16 -25 6 -35t-26.5 -16.5t-32.5 -14.5t-14 -31q0 -10 24.5 -27t73.5 -54zM492 1616q0 78 -71 119t-155 44t-154.5 -30t-70.5 -104q0 -27 20.5 -45.5t60.5 -50t97 -92 t129 -175.5h64v47q-61 74 -85 106.5t-24 34.5q0 14 29.5 33t64.5 38.5t65 39t30 35.5z" />
<glyph unicode="&#x2019;" horiz-adv-x="528" d="M297 1565q-16 -12 -35.5 -8t-42 16t-45 28.5t-45.5 28.5q59 45 95 72t55 43q8 -23 -2.5 -35t-27 -22.5t-30.5 -20.5t-10 -31q0 -2 20.5 -23t67.5 -48zM487 1657q-8 10 -65 49t-148 104q-20 -8 -80.5 -56t-152.5 -126q0 -23 26.5 -38t57.5 -28.5t57.5 -29.5t26.5 -41 q0 -6 -17.5 -30.5t-38 -52.5t-38 -51.5t-17.5 -29.5q0 -35 37 -35q14 0 21.5 9.5t20.5 30t40 55t80 83.5q55 53 92 85t58.5 51.5t30.5 30t9 20.5z" />
<glyph unicode="&#x201c;" horiz-adv-x="1071" d="M829 1550q-12 -2 -14 -12t-14 -10q-29 0 -50.5 33.5t-88.5 70.5q20 14 45.5 34t49 33t39 18t15.5 -9t-12.5 -21.5t-27.5 -13.5t-27.5 -15t-12.5 -26q0 -10 25.5 -27.5t72.5 -54.5zM1030 1608q0 76 -70.5 116.5t-154.5 45t-154.5 -28.5t-70.5 -105q0 -27 20.5 -45t60 -50 t96 -92t130.5 -175h63v47q-61 74 -85.5 106.5t-24.5 34.5q0 14 29.5 32.5t65.5 38t65.5 39.5t29.5 36zM293 1559q-14 -2 -15.5 -12.5t-15.5 -10.5q-29 0 -50.5 34t-86.5 70q37 29 78 54.5t59 42.5q16 -25 6 -35t-26.5 -16.5t-32.5 -14.5t-14 -31q0 -10 24.5 -27t73.5 -54z M492 1616q0 78 -71 119t-155 44t-154.5 -30t-70.5 -104q0 -27 20.5 -45.5t60.5 -50t97 -92t129 -175.5h64v47q-61 74 -85 106.5t-24 34.5q0 14 29.5 33t64.5 38.5t65 39t30 35.5z" />
<glyph unicode="&#x201d;" horiz-adv-x="1017" d="M786 1559q-16 -12 -35.5 -8.5t-41 16t-44 29t-44.5 28.5q57 47 93 73.5t54 41.5q10 -25 1 -36t-24.5 -19.5t-30 -18.5t-14.5 -35q0 -2 19.5 -23t66.5 -48zM977 1651q-8 8 -66.5 49t-146.5 104q-23 -8 -82 -56t-150 -126q0 -23 27 -38t57.5 -28.5t57 -30t26.5 -40.5 q0 -6 -17 -30.5t-38.5 -52.5t-39 -51.5t-17.5 -29.5q0 -35 37 -35q14 0 21 9.5t20.5 30t40 55t79.5 83.5q55 53 92 85t58.5 51.5t31 30t9.5 20.5zM297 1565q-16 -12 -35.5 -8t-42 16t-45 28.5t-45.5 28.5q59 45 95 72t55 43q8 -23 -2.5 -35t-27 -22.5t-30.5 -20.5t-10 -31 q0 -2 20.5 -23t67.5 -48zM487 1657q-8 10 -65 49t-148 104q-20 -8 -80.5 -56t-152.5 -126q0 -23 26.5 -38t57.5 -28.5t57.5 -29.5t26.5 -41q0 -6 -17.5 -30.5t-38 -52.5t-38 -51.5t-17.5 -29.5q0 -35 37 -35q14 0 21.5 9.5t20.5 30t40 55t80 83.5q55 53 92 85t58.5 51.5 t30.5 30t9 20.5z" />
<glyph unicode="&#x202f;" horiz-adv-x="388" />
<glyph unicode="&#x205f;" horiz-adv-x="485" />
<glyph unicode="&#x25fc;" horiz-adv-x="1249" d="M0 1249h1249v-1249h-1249v1249z" />
</font>
</defs>
</svg>
